<svg width="14" height="14" viewBox="0 0 14 14" fill="none" xmlns="http://www.w3.org/2000/svg">
<g clip-path="url(#clip0_1_127)">
<mask id="mask0_1_127" style="mask-type:alpha" maskUnits="userSpaceOnUse" x="0" y="0" width="14" height="14">
<path d="M13.63 0.339966H0.630005V13.34H13.63V0.339966Z" fill="white"/>
</mask>
<g mask="url(#mask0_1_127)">
<path d="M7.05675 3.79313H11.5179C11.5791 3.79313 11.6378 3.77173 11.6811 3.73363C11.7244 3.69554 11.7487 3.64387 11.7487 3.59V2.1681C11.7487 2.11423 11.7244 2.06256 11.6811 2.02447C11.6378 1.98637 11.5791 1.96497 11.5179 1.96497H7.82528C7.78167 1.96496 7.73894 1.97584 7.70205 1.99633C7.66517 2.01682 7.63564 2.04609 7.61688 2.08075L6.84835 3.50265C6.83159 3.53362 6.82402 3.56781 6.82633 3.60205C6.82864 3.63629 6.84077 3.66945 6.86157 3.69845C6.88238 3.72745 6.91119 3.75135 6.94532 3.7679C6.97945 3.78445 7.01778 3.79313 7.05675 3.79313ZM7.97114 2.37123H11.2871V3.38687H7.42209L7.97114 2.37123Z" fill="#5E5E5E"/>
<path d="M2.12924 3.55953C2.19086 3.58025 2.27071 3.55933 2.3051 3.54267L2.50635 3.44598L2.79345 3.90952C2.42417 4.1279 2.12161 4.4229 1.91244 4.76849C1.70327 5.11409 1.59392 5.49967 1.59403 5.89124V11.9181C1.59403 12.7022 2.31872 13.34 3.20957 13.34H11.518C12.4089 13.34 13.1335 12.7022 13.1335 11.9181V1.76184C13.1335 1.20181 12.6159 0.746195 11.9796 0.746195H8.05615C7.66614 0.744947 7.28352 0.83989 6.95168 1.02026C6.61985 1.20064 6.35206 1.45923 6.17868 1.76672L5.80456 2.42729L5.20959 2.71777L4.93773 2.27941L5.14127 2.18171C5.19496 2.15591 5.23482 2.11241 5.25208 2.06076C5.26935 2.00911 5.26262 1.95355 5.23337 1.90627L4.45999 0.656819C4.37177 0.515414 4.22361 0.410461 4.0478 0.364869C3.87198 0.319278 3.68282 0.336749 3.5216 0.41347L1.49272 1.38646C1.16038 1.54632 1.03598 1.91642 1.21623 2.21258L1.99169 3.46183C2.00622 3.48527 2.02587 3.50595 2.04952 3.52269C2.07316 3.53942 2.1001 3.55207 2.12924 3.55953ZM3.74177 0.770571C3.79584 0.746397 3.85836 0.741324 3.91654 0.756391C3.97471 0.771458 4.02415 0.805524 4.05472 0.851619L4.71755 1.92252L4.21097 2.16526L3.87817 1.62981C3.84806 1.58378 3.79866 1.54997 3.74057 1.53561C3.68247 1.52125 3.6203 1.52749 3.56736 1.55299C3.51443 1.57849 3.47495 1.62122 3.45738 1.67203C3.43981 1.72284 3.44554 1.77768 3.47336 1.82481L3.8057 2.35945L3.19711 2.65114L2.86523 2.11711C2.83512 2.07109 2.78572 2.03728 2.72763 2.02292C2.66953 2.00856 2.60736 2.0148 2.55443 2.0403C2.50149 2.0658 2.46201 2.10853 2.44444 2.15933C2.42687 2.21014 2.43261 2.26499 2.46042 2.31212L2.79184 2.84533L2.48858 2.99077L2.48743 2.99118L2.28618 3.08848L1.62242 2.01921C1.59339 1.9718 1.58673 1.91624 1.60388 1.86454C1.62102 1.81285 1.6606 1.76917 1.71405 1.74295L3.74177 0.770571ZM4.23405 3.67775L6.09098 2.75209C6.13183 2.73219 6.16461 2.70172 6.18561 2.66516L6.59156 1.94831C6.72878 1.70986 6.93815 1.50939 7.19658 1.369C7.45501 1.2286 7.75246 1.15374 8.05615 1.15265H11.9796C12.3613 1.15265 12.672 1.42607 12.672 1.76205V11.9183C12.672 12.4783 12.1543 12.9339 11.518 12.9339H3.20957C2.57328 12.9339 2.05562 12.4783 2.05562 11.9183V5.89145C2.05542 5.53816 2.16264 5.19127 2.36616 4.88677C2.56969 4.58227 2.86209 4.33125 3.21303 4.15978C3.2663 4.13377 3.30572 4.09029 3.32271 4.0388C3.33969 3.98732 3.33288 3.93202 3.30373 3.88494L2.91162 3.25179L4.53223 2.47421L4.80755 2.91805L4.00372 3.32593C3.97745 3.33925 3.95443 3.357 3.93595 3.37815C3.91747 3.39931 3.90393 3.42346 3.89606 3.44923C3.8882 3.47499 3.88616 3.50187 3.89011 3.52833C3.89405 3.55478 3.90387 3.58029 3.91902 3.60341C3.96171 3.66861 4.10618 3.72772 4.23405 3.67775Z" fill="#5E5E5E"/>
<path d="M10.1333 9.80288V6.92415L11.4504 5.76489C11.4719 5.74604 11.4889 5.72366 11.5005 5.69901C11.5121 5.67437 11.5181 5.64796 11.5181 5.62128C11.5181 5.5946 11.5121 5.56819 11.5005 5.54354C11.4889 5.5189 11.4719 5.49651 11.4504 5.47767L10.5272 4.66515C10.5058 4.64627 10.4804 4.63129 10.4524 4.62107C10.4244 4.61086 10.3944 4.60559 10.3641 4.60559C10.3338 4.60559 10.3038 4.61086 10.2758 4.62107C10.2478 4.63129 10.2223 4.64627 10.2009 4.66515L8.88378 5.82441H5.84382L4.5267 4.66515C4.50528 4.64627 4.47985 4.63129 4.45185 4.62107C4.42385 4.61086 4.39384 4.60559 4.36353 4.60559C4.33322 4.60559 4.3032 4.61086 4.2752 4.62107C4.24721 4.63129 4.22177 4.64627 4.20036 4.66515L3.2772 5.47767C3.25575 5.49651 3.23873 5.5189 3.22712 5.54354C3.21551 5.56819 3.20953 5.5946 3.20953 5.62128C3.20953 5.64796 3.21551 5.67437 3.22712 5.69901C3.23873 5.72366 3.25575 5.74604 3.2772 5.76489L4.59432 6.92415V9.80288L3.2772 10.9622C3.25575 10.981 3.23873 11.0034 3.22712 11.028C3.21551 11.0527 3.20953 11.0791 3.20953 11.1058C3.20953 11.1325 3.21551 11.1589 3.22712 11.1835C3.23873 11.2082 3.25575 11.2305 3.2772 11.2494L4.20036 12.0619C4.22177 12.0808 4.24721 12.0958 4.2752 12.106C4.3032 12.1162 4.33322 12.1215 4.36353 12.1215C4.39384 12.1215 4.42385 12.1162 4.45185 12.106C4.47985 12.0958 4.50528 12.0808 4.5267 12.0619L5.84382 10.9027H8.88378L10.2009 12.0619C10.2223 12.0808 10.2477 12.0959 10.2757 12.1061C10.3037 12.1164 10.3338 12.1216 10.3641 12.1216C10.3944 12.1216 10.4244 12.1164 10.4524 12.1061C10.4804 12.0959 10.5059 12.0808 10.5272 12.0619L11.4504 11.2494C11.4719 11.2305 11.4889 11.2082 11.5005 11.1835C11.5121 11.1589 11.5181 11.1325 11.5181 11.1058C11.5181 11.0791 11.5121 11.0527 11.5005 11.028C11.4889 11.0034 11.4719 10.981 11.4504 10.9622L10.1333 9.80288ZM10.3641 11.6311L9.1425 10.5559C9.09923 10.5178 9.04054 10.4964 8.97933 10.4964H5.74827C5.71796 10.4964 5.68794 10.5016 5.65994 10.5118C5.63194 10.522 5.6065 10.537 5.5851 10.5559L4.36353 11.6311L3.7667 11.1058L4.98828 10.0306C5.03156 9.99251 5.05588 9.94085 5.0559 9.88698V6.84005C5.05593 6.81337 5.04997 6.78695 5.03837 6.76231C5.02676 6.73766 5.00974 6.71528 4.98828 6.69644L3.7667 5.62128L4.36353 5.09599L5.5851 6.17115C5.62837 6.20924 5.68706 6.23065 5.74827 6.23066H8.97933C9.04049 6.23066 9.09934 6.20934 9.1425 6.17115L10.3641 5.09599L10.9609 5.62128L9.73932 6.69644C9.69604 6.73452 9.67172 6.78618 9.6717 6.84005V9.88698C9.6717 9.94081 9.69594 9.99261 9.73932 10.0306L10.9609 11.1058L10.3641 11.6311Z" fill="#5E5E5E"/>
<path d="M8.74856 6.83997H5.97908C5.91787 6.83997 5.85916 6.86137 5.81588 6.89946C5.7726 6.93756 5.74829 6.98923 5.74829 7.0431V9.68377C5.74829 9.73764 5.7726 9.78931 5.81588 9.8274C5.85916 9.8655 5.91787 9.8869 5.97908 9.8869H7.8254C7.88661 9.8869 7.94531 9.8655 7.98859 9.8274C8.03187 9.78931 8.05619 9.73764 8.05619 9.68377C8.05619 9.6299 8.03187 9.57823 7.98859 9.54014C7.94531 9.50204 7.88661 9.48064 7.8254 9.48064H6.20987V7.24623H8.51777V8.87126C8.51777 8.92513 8.54208 8.9768 8.58537 9.01489C8.62865 9.05298 8.68735 9.07438 8.74856 9.07438C8.80977 9.07438 8.86847 9.05298 8.91175 9.01489C8.95503 8.9768 8.97935 8.92513 8.97935 8.87126V7.0431C8.97935 6.98923 8.95503 6.93756 8.91175 6.89946C8.86847 6.86137 8.80977 6.83997 8.74856 6.83997ZM11.7488 6.83997C11.6876 6.83997 11.6289 6.86137 11.5856 6.89946C11.5424 6.93756 11.518 6.98923 11.518 7.0431V8.87126C11.518 8.92513 11.5424 8.9768 11.5856 9.01489C11.6289 9.05298 11.6876 9.07438 11.7488 9.07438C11.81 9.07438 11.8687 9.05298 11.912 9.01489C11.9553 8.9768 11.9796 8.92513 11.9796 8.87126V7.0431C11.9796 6.98923 11.9553 6.93756 11.912 6.89946C11.8687 6.86137 11.81 6.83997 11.7488 6.83997Z" fill="#5E5E5E"/>
<path d="M11.7487 9.88685C11.8762 9.88685 11.9795 9.79591 11.9795 9.68372C11.9795 9.57154 11.8762 9.48059 11.7487 9.48059C11.6213 9.48059 11.5179 9.57154 11.5179 9.68372C11.5179 9.79591 11.6213 9.88685 11.7487 9.88685Z" fill="#5E5E5E"/>
</g>
</g>
<defs>
<clipPath id="clip0_1_127">
<rect width="13" height="13" fill="white" transform="translate(0.630005 0.339966)"/>
</clipPath>
</defs>
</svg>
