<svg width="13" height="14" viewBox="0 0 13 14" fill="none" xmlns="http://www.w3.org/2000/svg">
<g clip-path="url(#clip0_1_107)">
<mask id="mask0_1_107" style="mask-type:alpha" maskUnits="userSpaceOnUse" x="0" y="0" width="13" height="14">
<path d="M13 0.339966H0V13.34H13V0.339966Z" fill="white"/>
</mask>
<g mask="url(#mask0_1_107)">
<path d="M13 7.65247C13 5.87671 12.284 4.26527 11.1258 3.09096C11.1167 3.0787 11.1068 3.06709 11.0962 3.05622C11.0853 3.04555 11.0737 3.03566 11.0615 3.02664C9.88716 1.86845 8.27571 1.15247 6.5 1.15247C4.72429 1.15247 3.11284 1.86849 1.93849 3.02664C1.92625 3.03569 1.91466 3.04557 1.9038 3.05622C1.89311 3.06708 1.88321 3.07869 1.87417 3.09096C0.716023 4.26527 0 5.87671 0 7.65247C0 9.38846 0.675957 11.0205 1.90333 12.2481L1.90418 12.249C1.93383 12.2787 1.96957 12.3028 2.00835 12.3188C2.04713 12.3349 2.0887 12.3431 2.13068 12.3431C2.21251 12.3431 2.29435 12.3119 2.35675 12.2494C2.36208 12.2441 2.36689 12.2384 2.37175 12.2328L3.35686 11.2477C3.41637 11.1876 3.44969 11.1065 3.44951 11.0219C3.44933 10.9374 3.41566 10.8563 3.35589 10.7966C3.29611 10.7368 3.21509 10.7031 3.13055 10.7029C3.04601 10.7027 2.96484 10.736 2.9048 10.7956L2.13605 11.5643C1.23965 10.5668 0.719603 9.31136 0.648082 7.97214H1.73527C1.91181 7.97214 2.05494 7.82906 2.05494 7.65247C2.05494 7.47588 1.91181 7.3328 1.73527 7.3328H0.648167C0.722502 5.95727 1.27336 4.70646 2.13814 3.74271L2.9048 4.50937C2.93445 4.53909 2.96968 4.56266 3.00847 4.57872C3.04726 4.59478 3.08884 4.60302 3.13083 4.60297C3.19405 4.60296 3.25585 4.58421 3.30841 4.54909C3.36098 4.51396 3.40195 4.46404 3.42614 4.40563C3.45033 4.34722 3.45666 4.28295 3.44433 4.22094C3.432 4.15893 3.40156 4.10197 3.35686 4.05727L2.59024 3.29057C3.55403 2.42579 4.8048 1.87493 6.18033 1.80064V2.88778C6.18033 3.06436 6.32346 3.20745 6.5 3.20745C6.67654 3.20745 6.81967 3.06436 6.81967 2.88778V1.80064C8.1952 1.87493 9.44597 2.42583 10.4098 3.29061L9.6431 4.05727C9.58358 4.1173 9.55027 4.19847 9.55045 4.28301C9.55063 4.36755 9.58429 4.44858 9.64407 4.50836C9.70384 4.56814 9.78487 4.60181 9.86941 4.602C9.95395 4.60219 10.0351 4.56888 10.0952 4.50937L10.8618 3.74271C11.7266 4.7065 12.2775 5.95727 12.3518 7.3328H11.2646C11.0881 7.3328 10.945 7.47588 10.945 7.65247C10.945 7.82906 11.0881 7.97214 11.2646 7.97214H12.3518C12.2803 9.31136 11.7603 10.5668 10.8639 11.5643L10.0952 10.7956C10.0349 10.7373 9.95409 10.705 9.87024 10.7057C9.78638 10.7064 9.70616 10.7401 9.64687 10.7994C9.58758 10.8587 9.55396 10.9389 9.55325 11.0227C9.55254 11.1066 9.58481 11.1874 9.6431 11.2477L10.6441 12.2487C10.6738 12.2784 10.709 12.302 10.7478 12.318C10.7866 12.3341 10.8281 12.3423 10.8701 12.3423C10.9121 12.3423 10.9537 12.3341 10.9925 12.318C11.0313 12.3019 11.0665 12.2784 11.0962 12.2487C12.3239 11.0209 13 9.38863 13 7.65247Z" fill="#5E5E5E"/>
<path d="M7.96859 3.98644C7.92963 3.97082 7.88796 3.96303 7.84598 3.96352C7.804 3.964 7.76253 3.97275 7.72393 3.98927C7.68534 4.00579 7.65037 4.02975 7.62104 4.05978C7.59171 4.08982 7.56858 4.12533 7.55298 4.16431L6.62921 6.47021C6.58631 6.46533 6.54319 6.46274 6.50002 6.46245C6.05009 6.46245 5.64368 6.71167 5.4393 7.11284C5.22568 7.53221 5.28041 8.03328 5.58559 8.45312C5.61735 8.49664 5.65569 8.53495 5.69922 8.56671C5.94716 8.74696 6.22408 8.84222 6.50002 8.84222C6.94995 8.84222 7.3564 8.59301 7.56073 8.19184C7.77436 7.77247 7.71963 7.27144 7.41467 6.8519C7.38286 6.80823 7.34446 6.76978 7.30082 6.73793C7.2776 6.72133 7.25394 6.70537 7.22985 6.69006L8.14646 4.40202C8.17797 4.32332 8.17694 4.23533 8.14358 4.1574C8.11023 4.07947 8.04728 4.01797 7.96859 3.98644ZM6.99099 7.90162C6.9451 7.9924 6.87489 8.06864 6.78818 8.12183C6.70148 8.17502 6.6017 8.20306 6.49998 8.20283C6.36341 8.20283 6.22595 8.15514 6.09127 8.06103C5.93782 7.84071 5.90769 7.60185 6.009 7.40302C6.05489 7.31223 6.1251 7.23598 6.21181 7.18279C6.29851 7.1296 6.3983 7.10156 6.50002 7.1018C6.56643 7.1018 6.633 7.11331 6.69941 7.13568C6.70158 7.13658 6.70359 7.13773 6.7058 7.13863C6.71279 7.1414 6.71983 7.14365 6.72686 7.14591C6.79121 7.17095 6.85228 7.20374 6.90869 7.24356C7.06209 7.46388 7.09227 7.70278 6.99099 7.90162Z" fill="#5E5E5E"/>
</g>
</g>
<defs>
<clipPath id="clip0_1_107">
<rect width="13" height="13" fill="white" transform="translate(0 0.339966)"/>
</clipPath>
</defs>
</svg>
