<svg width="13" height="14" viewBox="0 0 13 14" fill="none" xmlns="http://www.w3.org/2000/svg">
<g clip-path="url(#clip0_1_117)">
<mask id="mask0_1_117" style="mask-type:alpha" maskUnits="userSpaceOnUse" x="0" y="0" width="13" height="14">
<path d="M13 0.339966H0V13.34H13V0.339966Z" fill="white"/>
</mask>
<g mask="url(#mask0_1_117)">
<path d="M8.28713 7.29807H7.8187L8.04511 5.59402C8.05414 5.52225 8.0395 5.44938 8.00367 5.38768C7.96783 5.32599 7.91299 5.27924 7.84838 5.25532C7.71188 5.20284 7.56173 5.25601 7.49608 5.36784L5.69038 7.84531C5.65489 7.9034 5.63505 7.97062 5.63299 8.03975C5.63093 8.10888 5.64673 8.17729 5.67868 8.23763C5.74498 8.36482 5.87281 8.44365 6.01256 8.44365H6.481L6.25458 10.1477C6.24555 10.2195 6.26019 10.2923 6.29602 10.3541C6.33186 10.4158 6.3867 10.4625 6.45131 10.4864C6.48728 10.5004 6.52433 10.5068 6.56051 10.5068C6.66148 10.5068 6.7553 10.4562 6.80361 10.3739L8.60931 7.89641C8.6448 7.83832 8.66464 7.77109 8.6667 7.70197C8.66876 7.63284 8.65297 7.56442 8.62101 7.50408C8.58787 7.44129 8.53941 7.38906 8.48068 7.35282C8.42196 7.31659 8.35512 7.29768 8.28713 7.29807ZM6.75226 9.69533L6.94488 8.2468C6.94922 8.21432 6.94692 8.18123 6.93813 8.14977C6.92934 8.11832 6.91427 8.08922 6.89394 8.06446C6.8736 8.03969 6.84848 8.01983 6.82026 8.00622C6.79204 7.9926 6.76139 7.98556 6.73038 7.98555H6.13433L7.54743 6.04661L7.35481 7.49515C7.35047 7.52763 7.35277 7.56071 7.36156 7.59217C7.37035 7.62363 7.38542 7.65272 7.40575 7.67749C7.42609 7.70225 7.45121 7.72211 7.47943 7.73573C7.50765 7.74934 7.5383 7.75639 7.56931 7.75639H8.16536L6.75226 9.69533Z" fill="#5E5E5E"/>
<path d="M12.35 5.23572H11.9167C11.5583 5.23572 11.2667 5.54417 11.2667 5.92321V6.61069H10.8333V4.54824C10.8333 4.04271 10.4446 3.63159 9.96667 3.63159H8.88333V3.17326H10.1833C10.5417 3.17326 10.8333 2.86481 10.8333 2.48578V2.02746C10.8333 1.64842 10.5417 1.33997 10.1833 1.33997H5.85C5.49163 1.33997 5.2 1.64842 5.2 2.02746V2.48578C5.2 2.86481 5.49163 3.17326 5.85 3.17326H7.15V3.63159H5.86863C5.66627 3.63159 5.46932 3.70698 5.31397 3.84402L4.37515 4.67107C4.29737 4.73969 4.19932 4.77732 4.09803 4.7774H3.03333C2.55537 4.7774 2.16667 5.18851 2.16667 5.69405V6.61069H1.73333V5.23572C1.73333 4.85669 1.4417 4.54824 1.08333 4.54824H0.65C0.291633 4.54824 0 4.85669 0 5.23572V9.81896C0 10.198 0.291633 10.5065 0.65 10.5065H1.08333C1.4417 10.5065 1.73333 10.198 1.73333 9.81896V8.44399H2.16667V9.81896C2.16667 10.3245 2.55537 10.7356 3.03333 10.7356H3.73945C3.89458 10.7356 4.03888 10.8241 4.11558 10.9666L4.60807 11.8778C4.68391 12.0181 4.79344 12.1347 4.92557 12.2159C5.0577 12.297 5.20775 12.3398 5.36055 12.34H9.22892C9.35599 12.3402 9.48154 12.3107 9.59662 12.2537C9.7117 12.1967 9.81349 12.1136 9.89473 12.0102L10.6325 11.0739C10.7622 10.909 10.8332 10.7014 10.8333 10.487V8.44422H11.2667V9.1317C11.2667 9.51074 11.5583 9.81919 11.9167 9.81919H12.35C12.7084 9.81919 13 9.51074 13 9.1317V5.92344C13 5.5444 12.7084 5.23572 12.35 5.23572ZM1.3 9.81896C1.3 9.87973 1.27717 9.93802 1.23654 9.981C1.19591 10.024 1.1408 10.0481 1.08333 10.0481H0.65C0.592536 10.0481 0.537426 10.024 0.496794 9.981C0.456161 9.93802 0.433333 9.87973 0.433333 9.81896V5.23572C0.433333 5.17494 0.456161 5.11666 0.496794 5.07368C0.537426 5.0307 0.592536 5.00656 0.65 5.00656H1.08333C1.1408 5.00656 1.19591 5.0307 1.23654 5.07368C1.27717 5.11666 1.3 5.17494 1.3 5.23572V9.81896ZM1.73333 7.98566V7.06902H2.16667V7.98566H1.73333ZM5.63333 2.48578V2.02746C5.63333 1.96668 5.65616 1.90839 5.69679 1.86541C5.73743 1.82244 5.79254 1.79829 5.85 1.79829H10.1833C10.2408 1.79829 10.2959 1.82244 10.3365 1.86541C10.3772 1.90839 10.4 1.96668 10.4 2.02746V2.48578C10.4 2.54656 10.3772 2.60485 10.3365 2.64782C10.2959 2.6908 10.2408 2.71494 10.1833 2.71494H5.85C5.79254 2.71494 5.73743 2.6908 5.69679 2.64782C5.65616 2.60485 5.63333 2.54656 5.63333 2.48578ZM7.58333 3.17326H8.45V3.63159H7.58333V3.17326ZM10.4 10.4868C10.4 10.5938 10.3643 10.6978 10.2995 10.7801L9.56193 11.7164C9.52126 11.7681 9.47034 11.8097 9.41279 11.8382C9.35524 11.8667 9.29247 11.8815 9.22892 11.8814H5.36055C5.28417 11.8814 5.20916 11.86 5.14311 11.8194C5.07706 11.7789 5.02232 11.7206 4.98442 11.6505L4.49193 10.7393C4.41609 10.599 4.30656 10.4824 4.17443 10.4012C4.0423 10.32 3.89225 10.2772 3.73945 10.277H3.03333C2.79435 10.277 2.6 10.0715 2.6 9.81873V5.69382C2.6 5.44105 2.79435 5.23549 3.03333 5.23549H4.09803C4.3004 5.23549 4.49735 5.1601 4.6527 5.02306L5.59152 4.19601C5.66929 4.12739 5.76735 4.08977 5.86863 4.08968H9.96667C10.2057 4.08968 10.4 4.29524 10.4 4.54801V10.4868ZM10.8333 7.98566V7.06902H11.2667V7.98566H10.8333ZM12.5667 9.13147C12.5667 9.19225 12.5438 9.25054 12.5032 9.29352C12.4626 9.33649 12.4075 9.36064 12.35 9.36064H11.9167C11.8592 9.36064 11.8041 9.33649 11.7635 9.29352C11.7228 9.25054 11.7 9.19225 11.7 9.13147V5.92321C11.7 5.86243 11.7228 5.80414 11.7635 5.76117C11.8041 5.71819 11.8592 5.69405 11.9167 5.69405H12.35C12.4075 5.69405 12.4626 5.71819 12.5032 5.76117C12.5438 5.80414 12.5667 5.86243 12.5667 5.92321V9.13147Z" fill="#5E5E5E"/>
</g>
</g>
<defs>
<clipPath id="clip0_1_117">
<rect width="13" height="13" fill="white" transform="translate(0 0.339966)"/>
</clipPath>
</defs>
</svg>
