<svg width="29" height="29" viewBox="0 0 29 29" fill="none" xmlns="http://www.w3.org/2000/svg">
<g clip-path="url(#clip0_1_29)">
<g clip-path="url(#clip1_1_29)">
<g clip-path="url(#clip2_1_29)">
<path d="M27.2852 22.2995L21.6179 18.5201C20.8987 18.0443 19.9346 18.2009 19.4029 18.8798L17.7521 21.0024C17.6495 21.1377 17.5015 21.2314 17.3353 21.2664C17.1691 21.3014 16.9958 21.2752 16.8474 21.1928L16.5333 21.0196C15.4924 20.4522 14.1971 19.7458 11.5874 17.1352C8.97774 14.5246 8.26991 13.2284 7.7025 12.1893L7.53032 11.8753C7.44673 11.7269 7.41958 11.5532 7.45388 11.3864C7.48817 11.2195 7.58159 11.0707 7.71694 10.9673L9.83806 9.31693C10.5167 8.78517 10.6735 7.8214 10.1983 7.10198L6.41885 1.43467C5.93182 0.702078 4.9547 0.482157 4.20072 0.935395L1.83086 2.35898C1.08624 2.79672 0.539951 3.50571 0.30651 4.33733C-0.546872 7.44673 0.0951185 12.8131 8.00023 20.7191C14.2886 27.007 18.97 28.6979 22.1876 28.6979C22.9282 28.7011 23.6658 28.6048 24.3807 28.4115C25.2124 28.1783 25.9215 27.632 26.359 26.8871L27.784 24.5187C28.2379 23.7645 28.0181 22.7868 27.2852 22.2995ZM26.98 24.0399L25.5583 26.4098C25.2441 26.9474 24.7341 27.3427 24.1351 27.5128C21.2646 28.3009 16.2497 27.6482 8.66043 20.0589C1.0712 12.4697 0.418493 7.45515 1.20659 4.58421C1.37699 3.98446 1.77273 3.47385 2.311 3.15921L4.68086 1.73749C5.00801 1.54064 5.43211 1.63606 5.64344 1.95397L7.69649 5.0363L9.41966 7.62078C9.62602 7.93283 9.55821 8.35108 9.26382 8.58199L7.1422 10.2323C6.49655 10.726 6.31217 11.6193 6.70969 12.3283L6.87816 12.6344C7.47449 13.7281 8.21589 15.0887 10.9226 17.795C13.6294 20.5012 14.9895 21.2427 16.0827 21.839L16.3893 22.0079C17.0982 22.4053 17.9915 22.221 18.4852 21.5753L20.1356 19.4537C20.3665 19.1595 20.7846 19.0918 21.0968 19.2979L26.7636 23.0773C27.0817 23.2885 27.1771 23.7128 26.98 24.0399ZM15.8857 5.36809C20.2645 5.37296 23.813 8.92149 23.8179 13.3003C23.8179 13.558 24.0268 13.7669 24.2845 13.7669C24.5422 13.7669 24.7511 13.558 24.7511 13.3003C24.7456 8.4063 20.7797 4.44029 15.8857 4.43494C15.628 4.43494 15.4191 4.64381 15.4191 4.90151C15.4191 5.15922 15.628 5.36809 15.8857 5.36809Z" fill="#13141A"/>
<path d="M15.8857 8.16749C18.7189 8.17083 21.0149 10.4668 21.0182 13.3001C21.0182 13.4238 21.0674 13.5425 21.1549 13.63C21.2424 13.7175 21.3611 13.7667 21.4848 13.7667C21.6086 13.7667 21.7272 13.7175 21.8147 13.63C21.9022 13.5425 21.9514 13.4238 21.9514 13.3001C21.9475 9.95163 19.2341 7.23816 15.8857 7.23433C15.6279 7.23433 15.4191 7.44321 15.4191 7.70091C15.4191 7.95862 15.6279 8.16749 15.8857 8.16749Z" fill="#13141A"/>
<path d="M15.8857 10.9671C17.1735 10.9686 18.2171 12.0122 18.2187 13.3001C18.2187 13.4238 18.2678 13.5425 18.3553 13.63C18.4428 13.7175 18.5615 13.7667 18.6852 13.7667C18.809 13.7667 18.9277 13.7175 19.0152 13.63C19.1027 13.5425 19.1518 13.4238 19.1518 13.3001C19.1497 11.4971 17.6886 10.0359 15.8857 10.0339C15.6279 10.0339 15.4191 10.2428 15.4191 10.5005C15.4191 10.7582 15.6279 10.9671 15.8857 10.9671Z" fill="#13141A"/>
</g>
</g>
</g>
<defs>
<clipPath id="clip0_1_29">
<rect width="28" height="28" fill="white" transform="translate(0.0198975 0.699997)"/>
</clipPath>
<clipPath id="clip1_1_29">
<rect width="28" height="28" fill="white" transform="translate(0.0198975 0.699997)"/>
</clipPath>
<clipPath id="clip2_1_29">
<rect width="28" height="28" fill="white" transform="translate(0.0198975 0.699997)"/>
</clipPath>
</defs>
</svg>
