<svg xmlns="http://www.w3.org/2000/svg" width="25" height="16" viewBox="0 0 25 16" fill="none">
  <g clip-path="url(#clip0_1_71)">
    <path d="M3.28985 0.420044C3.18704 0.420044 3.08844 0.461357 3.01574 0.534896C2.94304 0.608434 2.90219 0.708174 2.90219 0.812173C2.90219 0.916172 2.94304 1.01591 3.01574 1.08945C3.08844 1.16299 3.18704 1.2043 3.28985 1.2043H4.8405C4.94332 1.2043 5.04192 1.16299 5.11462 1.08945C5.18732 1.01591 5.22816 0.916172 5.22816 0.812173C5.22816 0.708174 5.18732 0.608434 5.11462 0.534896C5.04192 0.461357 4.94332 0.420044 4.8405 0.420044H3.28985ZM5.80966 0.420044C5.70684 0.420044 5.60824 0.461357 5.53554 0.534896C5.46284 0.608434 5.42199 0.708174 5.42199 0.812173C5.42199 0.916172 5.46284 1.01591 5.53554 1.08945C5.60824 1.16299 5.70684 1.2043 5.80966 1.2043H10.3647C10.4675 1.2043 10.5661 1.16299 10.6388 1.08945C10.7115 1.01591 10.7523 0.916172 10.7523 0.812173C10.7523 0.708174 10.7115 0.608434 10.6388 0.534896C10.5661 0.461357 10.4675 0.420044 10.3647 0.420044H5.80966Z" fill="white"/>
    <path fill-rule="evenodd" clip-rule="evenodd" d="M4.25917 3.16644C4.15636 3.16644 4.05776 3.20775 3.98505 3.28129C3.91235 3.35483 3.87151 3.45457 3.87151 3.55857C3.87151 3.66257 3.91235 3.76231 3.98505 3.83584C4.05776 3.90938 4.15636 3.9507 4.25917 3.9507H13.1754C14.683 3.9507 15.6122 4.18833 16.3556 4.57006C16.9875 4.89435 17.4972 5.3255 18.1355 5.86546C18.2675 5.97702 18.4049 6.09309 18.5501 6.21406L18.6401 6.28896L18.756 6.30131C22.2953 6.67815 23.0922 7.88826 23.2546 8.50782V10.0287C23.2546 10.1327 23.2138 10.2324 23.1411 10.306C23.0684 10.3795 22.9698 10.4208 22.8669 10.4208H21.8656C21.6811 9.30815 20.7243 8.46018 19.5718 8.46018C18.4193 8.46018 17.4625 9.30815 17.278 10.4208H10.2358C10.0512 9.30815 9.09448 8.46018 7.94196 8.46018C6.78944 8.46018 5.83269 9.30815 5.64816 10.4208H3.7746C3.67178 10.4208 3.57318 10.4621 3.50048 10.5356C3.42778 10.6092 3.38693 10.7089 3.38693 10.8129C3.38693 10.9169 3.42778 11.0166 3.50048 11.0902C3.57318 11.1637 3.67178 11.205 3.7746 11.205H5.64816C5.83269 12.3177 6.78944 13.1657 7.94196 13.1657C9.09448 13.1657 10.0512 12.3177 10.2358 11.205H17.278C17.4625 12.3177 18.4193 13.1657 19.5718 13.1657C20.7243 13.1657 21.6811 12.3177 21.8656 11.205H22.8669C23.1754 11.205 23.4712 11.0811 23.6893 10.8605C23.9074 10.6399 24.0299 10.3407 24.0299 10.0287V8.41547L24.02 8.37195C23.7731 7.28987 22.6091 5.94859 18.9539 5.53411C18.8517 5.44863 18.7515 5.36354 18.6527 5.27982C18.0128 4.7377 17.4242 4.23891 16.7066 3.87051C15.8266 3.41897 14.7691 3.16644 13.1754 3.16644H4.25917ZM18.0212 10.8129C18.0212 10.397 18.1845 9.99799 18.4753 9.70384C18.7661 9.40969 19.1606 9.24443 19.5718 9.24443C19.9831 9.24443 20.3775 9.40969 20.6683 9.70384C20.9591 9.99799 21.1225 10.397 21.1225 10.8129C21.1225 11.2289 20.9591 11.6279 20.6683 11.922C20.3775 12.2162 19.9831 12.3814 19.5718 12.3814C19.1606 12.3814 18.7661 12.2162 18.4753 11.922C18.1845 11.6279 18.0212 11.2289 18.0212 10.8129ZM7.94196 9.24443C7.5307 9.24443 7.13629 9.40969 6.84549 9.70384C6.55468 9.99799 6.39131 10.397 6.39131 10.8129C6.39131 11.2289 6.55468 11.6279 6.84549 11.922C7.13629 12.2162 7.5307 12.3814 7.94196 12.3814C8.35322 12.3814 8.74763 12.2162 9.03843 11.922C9.32923 11.6279 9.49261 11.2289 9.49261 10.8129C9.49261 10.397 9.32923 9.99799 9.03843 9.70384C8.74763 9.40969 8.35322 9.24443 7.94196 9.24443Z" fill="white"/>
    <path d="M0.0299988 5.51878C0.0299988 5.41478 0.0708416 5.31504 0.143542 5.24151C0.216243 5.16797 0.314846 5.12665 0.417661 5.12665H4.77886C4.88167 5.12665 4.98027 5.16797 5.05297 5.24151C5.12567 5.31504 5.16652 5.41478 5.16652 5.51878C5.16652 5.62278 5.12567 5.72252 5.05297 5.79606C4.98027 5.8696 4.88167 5.91091 4.77886 5.91091H0.417661C0.314846 5.91091 0.216243 5.8696 0.143542 5.79606C0.0708416 5.72252 0.0299988 5.62278 0.0299988 5.51878ZM15.7136 6.0258C15.7863 6.09934 15.8271 6.19906 15.8271 6.30304C15.8271 6.40702 15.7863 6.50674 15.7136 6.58027L15.6832 6.61106C15.3197 6.9787 14.8268 7.18527 14.3128 7.18533H8.17089C8.06808 7.18533 7.96948 7.14402 7.89678 7.07048C7.82408 6.99694 7.78323 6.8972 7.78323 6.7932C7.78323 6.6892 7.82408 6.58946 7.89678 6.51592C7.96948 6.44239 8.06808 6.40107 8.17089 6.40107H14.3126C14.4654 6.40109 14.6166 6.37068 14.7577 6.31157C14.8988 6.25246 15.027 6.16582 15.135 6.05659L15.1655 6.0258C15.2382 5.95229 15.3368 5.91099 15.4396 5.91099C15.5423 5.91099 15.6409 5.95229 15.7136 6.0258ZM8.55856 15.0279C8.55856 14.9239 8.5994 14.8241 8.6721 14.7506C8.7448 14.677 8.8434 14.6357 8.94622 14.6357H10.5938C10.6966 14.6357 10.7952 14.677 10.8679 14.7506C10.9406 14.8241 10.9814 14.9239 10.9814 15.0279C10.9814 15.1318 10.9406 15.2316 10.8679 15.3051C10.7952 15.3787 10.6966 15.42 10.5938 15.42H8.94622C8.8434 15.42 8.7448 15.3787 8.6721 15.3051C8.5994 15.2316 8.55856 15.1318 8.55856 15.0279ZM11.2722 15.0279C11.2722 14.9239 11.313 14.8241 11.3857 14.7506C11.4584 14.677 11.557 14.6357 11.6598 14.6357H16.021C16.1239 14.6357 16.2225 14.677 16.2952 14.7506C16.3679 14.8241 16.4087 14.9239 16.4087 15.0279C16.4087 15.1318 16.3679 15.2316 16.2952 15.3051C16.2225 15.3787 16.1239 15.42 16.021 15.42H11.6598C11.557 15.42 11.4584 15.3787 11.3857 15.3051C11.313 15.2316 11.2722 15.1318 11.2722 15.0279Z" fill="white"/>
  </g>
  <defs>
    <clipPath id="clip0_1_71">
      <rect width="24" height="15" fill="white" transform="translate(0.0299988 0.420044)"/>
    </clipPath>
  </defs>
</svg>