<svg width="36" height="36" viewBox="0 0 36 36" fill="none" xmlns="http://www.w3.org/2000/svg">
<g clip-path="url(#clip0_213_2404)">
<mask id="mask0_213_2404" style="mask-type:alpha" maskUnits="userSpaceOnUse" x="0" y="0" width="36" height="36">
<path d="M36 0H0V36H36V0Z" fill="#D9D9D9"/>
</mask>
<g mask="url(#mask0_213_2404)">
<path d="M34.4696 1H9.32342C8.47862 1.00098 7.79403 1.68161 7.79304 2.52153V9.41735L6.64315 7.70248C6.1168 6.91312 5.05826 6.67629 4.24258 7.16547L1.87682 8.5796C1.10208 9.03156 0.533728 9.76452 0.291229 10.6244C-0.57179 13.7487 0.0685649 19.1313 8.01515 27.0331C14.3346 33.3095 19.0464 34.9999 22.2938 34.9999C23.0456 35.0033 23.7946 34.9062 24.5204 34.7111C25.3849 34.47 26.1221 33.9058 26.5777 33.1365L27.9982 30.782C28.4883 29.9717 28.2503 28.9214 27.4581 28.3983L21.7933 24.6439C21.0162 24.1329 19.9746 24.301 19.3999 25.03L17.7506 27.138C17.6672 27.2472 17.5471 27.3228 17.4123 27.3512C17.2774 27.3796 17.1368 27.3588 17.016 27.2926L16.7022 27.1207C15.6693 26.561 14.3838 25.8641 11.7876 23.2829C11.5261 23.0227 11.268 22.7591 11.0134 22.4923H34.4696C35.3123 22.4929 35.9967 21.8157 36 20.9779V2.52153C35.999 1.68161 35.3144 1.00098 34.4696 1ZM16.1278 28.1686L16.4327 28.3351C17.1991 28.7611 18.1638 28.5634 18.6983 27.8708L20.3475 25.7628C20.4379 25.6483 20.5683 25.5718 20.7129 25.5484C20.8574 25.5251 21.0055 25.5567 21.1277 25.6369L26.7925 29.3912C26.9164 29.4733 27.0037 29.5996 27.0364 29.744C27.0692 29.8884 27.0448 30.0398 26.9683 30.1668L25.5478 32.5213C25.2511 33.0271 24.7692 33.3991 24.2029 33.5596C21.366 34.3352 16.4009 33.6789 8.86544 26.1865C1.32993 18.694 0.672276 13.7582 1.45062 10.9401C1.61186 10.3771 1.98582 9.89801 2.49424 9.60292L4.86246 8.18999C4.99024 8.11408 5.14247 8.0899 5.28767 8.12244C5.43288 8.15497 5.55996 8.24174 5.64264 8.36479L9.42055 13.9968C9.50136 14.1183 9.53319 14.2655 9.50972 14.4093C9.48625 14.553 9.40919 14.6827 9.29388 14.7725L7.17294 16.4127C6.47647 16.9439 6.27757 17.9029 6.70602 18.6646L6.87404 18.9677C7.47417 20.062 8.22016 21.4236 10.9395 24.1266C13.6588 26.8296 15.0278 27.5718 16.1278 28.1686ZM34.7997 20.9779C34.7988 21.0641 34.7635 21.1465 34.7017 21.2068C34.6398 21.2672 34.5564 21.3008 34.4697 21.3002H9.93072C9.15126 20.414 8.47909 19.4399 7.92801 18.3979L7.75514 18.0847C7.68846 17.9649 7.66741 17.8253 7.69585 17.6914C7.72429 17.5575 7.80032 17.4382 7.91 17.3555L10.0309 15.7153C10.7645 15.144 10.9335 14.1083 10.4192 13.3357L8.99329 11.2079V2.52153C8.99282 2.4783 9.00102 2.43542 9.01744 2.39539C9.03386 2.35536 9.05815 2.31899 9.0889 2.28843C9.11964 2.25786 9.15622 2.23371 9.19648 2.21738C9.23674 2.20106 9.27988 2.1929 9.32335 2.19338H34.4696C34.5131 2.1929 34.5562 2.20106 34.5965 2.21738C34.6368 2.23371 34.6733 2.25786 34.7041 2.28843C34.7348 2.31899 34.7591 2.35536 34.7755 2.39539C34.792 2.43542 34.8002 2.4783 34.7997 2.52153V20.9779Z" fill="#13141A"/>
<path d="M32.4025 3.76292L22.3722 11.3258C22.2339 11.4257 22.0673 11.4796 21.8963 11.4796C21.7253 11.4796 21.5587 11.4257 21.4204 11.3258L11.3938 3.76292C11.331 3.71555 11.2594 3.68095 11.1831 3.66108C11.1069 3.64122 11.0274 3.63649 10.9493 3.64716C10.8712 3.65782 10.796 3.68368 10.7279 3.72326C10.6599 3.76283 10.6003 3.81535 10.5527 3.8778C10.5051 3.94025 10.4703 4.01142 10.4503 4.08724C10.4303 4.16306 10.4255 4.24205 10.4363 4.3197C10.447 4.39736 10.473 4.47214 10.5128 4.5398C10.5526 4.60746 10.6054 4.66665 10.6683 4.71401L20.6961 12.2763C21.0436 12.5315 21.4643 12.6693 21.8964 12.6693C22.3285 12.6693 22.7492 12.5315 23.0967 12.2763L33.1276 4.71401C33.1904 4.66666 33.2433 4.60744 33.2831 4.53974C33.3229 4.47205 33.349 4.39722 33.3597 4.31952C33.3704 4.24183 33.3655 4.16279 33.3455 4.08695C33.3254 4.01111 33.2905 3.93994 33.2428 3.87752C33.1466 3.75163 33.0041 3.66884 32.8465 3.64736C32.689 3.62587 32.5293 3.66743 32.4025 3.76292ZM16.7747 12.3264L10.6268 18.872C10.5205 18.9881 10.4646 19.1412 10.4711 19.2981C10.4776 19.4549 10.546 19.6029 10.6615 19.71C10.777 19.8171 10.9303 19.8746 11.0881 19.8701C11.246 19.8655 11.3957 19.7994 11.5048 19.6859L17.6527 13.1374C17.7502 13.02 17.7989 12.87 17.7888 12.7181C17.7787 12.5661 17.7105 12.4238 17.5984 12.3202C17.4862 12.2166 17.3384 12.1595 17.1853 12.1607C17.0321 12.1618 16.8853 12.2211 16.7747 12.3264ZM27.0577 12.3264C27.0039 12.2691 26.9393 12.2229 26.8676 12.1903C26.7959 12.1578 26.7184 12.1397 26.6397 12.137C26.5609 12.1342 26.4823 12.1469 26.4085 12.1744C26.3347 12.2018 26.267 12.2435 26.2094 12.2969C26.1517 12.3503 26.1052 12.4145 26.0725 12.4859C26.0398 12.5572 26.0216 12.6342 26.0188 12.7125C26.0161 12.7908 26.0288 12.8689 26.0564 12.9423C26.084 13.0157 26.1259 13.083 26.1797 13.1403L32.3258 19.6859C32.3796 19.7432 32.4441 19.7894 32.5159 19.8219C32.5876 19.8544 32.665 19.8726 32.7438 19.8753C32.8226 19.8781 32.9011 19.8654 32.975 19.8379C33.0488 19.8105 33.1165 19.7688 33.1741 19.7154C33.2318 19.662 33.2783 19.5977 33.311 19.5264C33.3437 19.4551 33.3619 19.3781 33.3647 19.2998C33.3674 19.2215 33.3546 19.1434 33.327 19.07C33.2994 18.9966 33.2576 18.9293 33.2038 18.872L27.0577 12.3264Z" fill="#13141A"/>
</g>
</g>
<defs>
<clipPath id="clip0_213_2404">
<rect width="36" height="36" fill="white"/>
</clipPath>
</defs>
</svg>
