<svg width="43" height="43" viewBox="0 0 43 43" fill="none" xmlns="http://www.w3.org/2000/svg">
<g clip-path="url(#clip0_213_2111)">
<mask id="mask0_213_2111" style="mask-type:alpha" maskUnits="userSpaceOnUse" x="0" y="0" width="43" height="43">
<path d="M42.6104 0.911133H0.610352V42.9111H42.6104V0.911133Z" fill="#D9D9D9"/>
</mask>
<g mask="url(#mask0_213_2111)">
<path d="M39.5956 10.6034C39.5956 10.2523 39.2402 9.97133 38.8847 9.97133C27.367 9.97133 21.7502 1.2623 21.7502 1.19207C21.7502 1.12183 21.6791 1.12183 21.6791 1.12183L21.608 1.0516C21.608 1.0516 21.5369 1.0516 21.5369 0.981367C21.4658 0.981367 21.4659 0.911133 21.3948 0.911133H21.1103C21.0392 0.911133 21.0392 0.911133 20.9681 0.981367H20.897C20.8259 0.981367 20.826 1.0516 20.7549 1.0516L20.6838 1.12183C20.4704 1.2623 14.8538 9.97133 3.33605 9.97133C2.98056 9.97133 2.62508 10.2523 2.62508 10.6034C2.62508 10.8844 1.41643 37.1519 20.897 42.9111H21.3237C40.8043 37.2221 39.5956 10.8844 39.5956 10.6034ZM4.04702 11.376C13.8584 11.095 19.404 5.05494 21.1103 2.80745C22.8877 5.05494 28.3623 11.095 38.1737 11.376C38.2448 15.3793 37.6759 36.5198 21.1103 41.5766C4.5447 36.5198 3.97593 15.3793 4.04702 11.376Z" fill="#13141A"/>
<path d="M30.3535 22.6139C30.3535 17.557 26.2298 13.4834 21.1108 13.4834C15.9918 13.4834 11.8682 17.557 11.8682 22.6139C11.8682 27.6707 15.9918 31.7443 21.1108 31.7443C26.2298 31.7443 30.3535 27.6707 30.3535 22.6139ZM13.2901 22.6139C13.2901 18.3296 16.7739 14.8881 21.1108 14.8881C25.4477 14.8881 28.9315 18.3296 28.9315 22.6139C28.9315 26.8981 25.4477 30.3396 21.1108 30.3396C16.7739 30.3396 13.2901 26.8981 13.2901 22.6139Z" fill="#46D993"/>
<path d="M25.7315 20.155C25.4471 19.8741 25.0205 19.8741 24.7361 20.155L19.546 25.2821L17.1998 22.9644C16.9154 22.6835 16.4889 22.6835 16.2045 22.9644C15.9201 23.2454 15.9201 23.6668 16.2045 23.9477L19.0484 26.7571C19.1906 26.8975 19.4038 26.9678 19.546 26.9678C19.6882 26.9678 19.9015 26.8975 20.0437 26.7571L25.7315 21.1383C26.0159 20.8574 26.0159 20.436 25.7315 20.155Z" fill="#46D993"/>
</g>
</g>
<defs>
<clipPath id="clip0_213_2111">
<rect width="42" height="42" fill="white" transform="translate(0.610352 0.911133)"/>
</clipPath>
</defs>
</svg>
