<svg width="82" height="29" viewBox="0 0 82 29" fill="none" xmlns="http://www.w3.org/2000/svg">
<g clip-path="url(#clip0_1_64)">
<g clip-path="url(#clip1_1_64)">
<g clip-path="url(#clip2_1_64)">
<path d="M12.6802 14.4055H16.2065V19.3418C15.1062 19.6942 13.717 19.8874 12.2728 19.8874C6.41996 19.8874 2.98004 14.8921 2.98004 10.0136C2.98004 5.22884 6.09151 1.87259 10.4324 1.87259C13.1793 1.87259 14.7776 2.80005 16.2075 4.09197V5.7025L18.8887 3.03029C17.1928 1.88676 14.7372 0.799988 11.2272 0.799988C3.52198 0.799988 0 6.29402 0 10.8091C0 17.2358 4.69673 21.1073 10.5989 21.1073C13.4608 21.1073 16.0018 20.6719 18.937 19.8579V14.7579C18.937 14.4971 19.0519 14.3182 19.2238 14.1611L20.15 13.238H13.8604L12.6802 14.4055Z" fill="url(#paint0_linear_1_64)"/>
<path d="M28.4772 7.69708C24.0421 7.69708 21.2942 10.927 21.2942 14.3554C21.2942 17.3146 23.508 20.828 27.9933 20.828C32.3079 20.828 34.9552 17.5917 34.9552 14.1033C34.9552 10.8539 32.3682 7.69828 28.4772 7.69828V7.69708ZM27.7414 8.63876C30.8682 8.63876 32.2608 12.6989 32.2608 15.5948C32.2608 19.9016 29.019 19.9867 28.6315 19.9867C27.148 19.9867 26.1112 19.0931 25.3351 17.9211C24.6519 16.841 23.9841 14.8343 23.9841 12.8735C23.9841 10.9204 24.6256 9.96668 25.6351 9.26507C26.4606 8.73914 27.2335 8.63876 27.7403 8.63876H27.7414Z" fill="url(#paint1_linear_1_64)"/>
<path d="M57.4689 7.69604C53.5953 7.69604 51.4999 10.1402 51.4999 12.8692C51.4999 14.9467 52.9931 17.2905 56.0739 17.2905H56.8533C56.8533 17.2905 56.6411 17.8045 56.64 18.3009C56.64 19.0332 56.9038 19.4444 57.4643 20.0773C52.1632 20.3992 50.0327 22.5302 50.0327 24.8205C50.0327 26.8262 51.9597 28.8 56.0093 28.8C60.8034 28.8 63.2864 26.1473 63.2864 23.544C63.2864 21.7087 62.369 20.7026 60.0458 18.9677C59.3627 18.4385 59.2302 18.1015 59.2302 17.7054C59.2302 17.138 59.5707 16.7625 59.6955 16.6208C59.9155 16.3894 60.2965 16.1254 60.4388 15.9988C61.2194 15.3398 62.3219 14.3644 62.3219 12.4177C62.3219 11.0821 61.7645 9.93311 60.4947 8.85724H62.0449L63.2098 7.69628L57.4689 7.69604ZM56.4003 8.56458C57.1032 8.56458 57.6899 8.8123 58.3096 9.32623C58.997 9.94382 60.0953 11.6035 60.0953 13.657C60.0953 15.8731 58.3677 16.4798 57.4327 16.4798C56.9751 16.4798 56.4267 16.3521 55.9624 16.0357C54.9311 15.3691 53.9074 13.5948 53.9074 11.4834C53.9074 9.57827 55.046 8.56458 56.4003 8.56458ZM57.9341 20.9186C58.2296 20.9186 58.4422 20.9427 58.4422 20.9427C58.4422 20.9427 59.1395 21.4392 59.6267 21.81C60.7609 22.7037 61.4681 23.3868 61.4681 24.6035C61.4681 26.2762 59.9112 27.5878 57.3899 27.5878C54.6223 27.5878 52.5071 26.3035 52.5071 24.2064C52.5071 22.4692 53.9566 20.9741 57.9341 20.9186Z" fill="url(#paint2_linear_1_64)"/>
<path d="M64.0486 20.4448H69.3661L70.1761 19.6375L68.651 19.4476C68.2405 19.3974 67.9965 19.0439 67.9965 18.7013V2.69307C67.9965 2.37773 68.1432 2.21624 68.2504 2.11356L69.2095 1.15771H64.6748L63.4946 2.33398H65.2573V18.9161C65.2573 19.1518 65.1828 19.3122 65.023 19.477L64.0486 20.4448Z" fill="url(#paint3_linear_1_64)"/>
<path d="M76.571 7.69708C73.6019 7.69708 70.4478 9.95249 70.4478 14.0017C70.4478 17.346 72.7107 20.828 76.9389 20.828C77.9932 20.828 78.8614 20.6928 79.6748 20.3207C80.5474 19.9202 81.3871 19.2699 82.0001 18.4526C80.843 19.0342 79.8992 19.4161 78.6456 19.4161C76.2633 19.4161 73.9663 17.703 73.1627 14.554L81.5785 11.1638C81.0925 9.43648 79.7218 7.69708 76.5721 7.69708H76.571ZM76.0213 8.62347C77.6144 8.62347 78.766 9.92958 78.766 10.952C78.766 11.2826 78.5581 11.4572 78.1463 11.6187L72.9733 13.7039C72.9733 13.7039 72.8333 13.0546 72.8333 12.353C72.8333 9.4102 74.9682 8.62347 76.0213 8.62347Z" fill="url(#paint4_linear_1_64)"/>
<path d="M43.5263 7.69708C39.0912 7.69708 36.3433 10.927 36.3433 14.3554C36.3433 17.3146 38.5571 20.828 43.0424 20.828C47.357 20.828 50.0042 17.5917 50.0042 14.1033C50.0042 10.8539 47.4172 7.69828 43.5263 7.69828V7.69708ZM42.7905 8.63876C45.9174 8.63876 47.3098 12.6989 47.3098 15.5948C47.3098 19.9016 44.0681 19.9867 43.6806 19.9867C42.1971 19.9867 41.1603 19.0931 40.3842 17.9211C39.7011 16.841 39.0332 14.8343 39.0332 12.8735C39.0332 10.9204 39.6746 9.96668 40.6842 9.26507C41.5096 8.73914 42.2826 8.63876 42.7894 8.63876H42.7905Z" fill="url(#paint5_linear_1_64)"/>
</g>
</g>
</g>
<defs>
<linearGradient id="paint0_linear_1_64" x1="10.0249" y1="0.742503" x2="10.0249" y2="21.1062" gradientUnits="userSpaceOnUse">
<stop stop-color="#196EEF"/>
<stop offset="0.5" stop-color="#186DEE"/>
<stop offset="1" stop-color="#1065E7"/>
</linearGradient>
<linearGradient id="paint1_linear_1_64" x1="28.075" y1="7.66598" x2="28.075" y2="20.8335" gradientUnits="userSpaceOnUse">
<stop stop-color="#DE5744"/>
<stop offset="0.5" stop-color="#DB4632"/>
<stop offset="1" stop-color="#D13D29"/>
</linearGradient>
<linearGradient id="paint2_linear_1_64" x1="56.6109" y1="7.66602" x2="56.6109" y2="28.8081" gradientUnits="userSpaceOnUse">
<stop stop-color="#1A6FEF"/>
<stop offset="0.25" stop-color="#1E72EF"/>
<stop offset="0.5" stop-color="#166BEC"/>
<stop offset="0.75" stop-color="#1267E9"/>
<stop offset="1" stop-color="#1063E5" stop-opacity="0.87"/>
</linearGradient>
<linearGradient id="paint3_linear_1_64" x1="66.7869" y1="1.11232" x2="66.7869" y2="20.4634" gradientUnits="userSpaceOnUse">
<stop stop-color="#0AA561"/>
<stop offset="0.5" stop-color="#009B58"/>
<stop offset="1" stop-color="#00914B"/>
</linearGradient>
<linearGradient id="paint4_linear_1_64" x1="76.1757" y1="7.66598" x2="76.1757" y2="20.7972" gradientUnits="userSpaceOnUse">
<stop stop-color="#DE5644"/>
<stop offset="0.5" stop-color="#DA4531"/>
<stop offset="1" stop-color="#CE3A28"/>
</linearGradient>
<linearGradient id="paint5_linear_1_64" x1="43.1245" y1="7.69458" x2="43.1245" y2="20.8074" gradientUnits="userSpaceOnUse">
<stop stop-color="#FFC01A"/>
<stop offset="0.5" stop-color="#FFBA03"/>
<stop offset="1" stop-color="#FFB300"/>
</linearGradient>
<clipPath id="clip0_1_64">
<rect width="82" height="28" fill="white" transform="translate(0 0.799988)"/>
</clipPath>
<clipPath id="clip1_1_64">
<rect width="82" height="28" fill="white" transform="translate(0 0.799988)"/>
</clipPath>
<clipPath id="clip2_1_64">
<rect width="82" height="28" fill="white" transform="translate(0 0.799988)"/>
</clipPath>
</defs>
</svg>
