<svg width="43" height="43" viewBox="0 0 43 43" fill="none" xmlns="http://www.w3.org/2000/svg">
<g clip-path="url(#clip0_213_2122)">
<mask id="mask0_213_2122" style="mask-type:alpha" maskUnits="userSpaceOnUse" x="0" y="0" width="43" height="43">
<path d="M42.6104 0.911133H0.610352V42.9111H42.6104V0.911133Z" fill="#D9D9D9"/>
</mask>
<g mask="url(#mask0_213_2122)">
<path d="M38.6316 22.3938H31.7916C31.6325 22.3938 31.4799 22.3317 31.3673 22.221C31.2548 22.1104 31.1916 21.9603 31.1916 21.8039C31.1916 21.6474 31.2548 21.4973 31.3673 21.3867C31.4799 21.276 31.6325 21.2139 31.7916 21.2139H38.6316C39.3253 21.2131 39.9904 20.9418 40.4809 20.4594C40.9715 19.9771 41.2474 19.3231 41.2482 18.641V18.294C41.2474 17.6119 40.9715 16.9579 40.4809 16.4756C39.9904 15.9932 39.3253 15.7219 38.6316 15.7211H26.34C26.2462 15.7211 26.1537 15.6995 26.0699 15.6579C25.9861 15.6164 25.9134 15.5561 25.8576 15.4819C25.8018 15.4077 25.7645 15.3217 25.7487 15.2308C25.7329 15.1398 25.7389 15.0465 25.7664 14.9583L26.757 11.7848C26.9157 11.2781 26.9966 10.7509 26.997 10.2208V7.75108C26.9964 7.01856 26.8397 6.29431 26.5369 5.62504C26.234 4.95577 25.7919 4.35634 25.239 3.86545C24.2583 2.97881 22.9628 2.50616 21.6312 2.54919V5.62301C21.6361 6.92043 21.3776 8.20578 20.8709 9.40374C20.3643 10.6017 19.6195 11.6882 18.6804 12.5995C16.779 14.4527 14.2794 17.1058 13.167 19.2215C12.8259 19.8921 12.3032 20.4572 11.6565 20.8545C11.0098 21.2519 10.2641 21.466 9.50156 21.4735H8.96816C8.80903 21.4735 8.65642 21.4113 8.5439 21.3007C8.43138 21.19 8.36816 21.04 8.36816 20.8835C8.36816 20.727 8.43138 20.5769 8.5439 20.4663C8.65642 20.3557 8.80903 20.2935 8.96816 20.2935H9.50396C10.0463 20.2856 10.5759 20.1308 11.0346 19.846C11.4931 19.5612 11.8629 19.1575 12.1032 18.6793C13.2876 16.4273 15.8754 13.6745 17.838 11.7618C18.6638 10.9601 19.3187 10.0045 19.7644 8.95098C20.2101 7.89742 20.4376 6.76702 20.4336 5.62596V2.00641C20.4336 1.86191 20.4876 1.72243 20.5852 1.61444C20.6829 1.50645 20.8175 1.43746 20.9634 1.42056L21.1266 1.40227C22.014 1.31354 22.9104 1.40895 23.7579 1.68234C24.6054 1.95572 25.3851 2.40098 26.0466 2.98932C26.7242 3.59085 27.2661 4.32542 27.6371 5.14562C28.0081 5.96582 28.2001 6.8534 28.2006 7.75108V10.219C28.2009 10.8665 28.1026 11.5104 27.909 12.1293L27.1566 14.5394H38.6316C39.6438 14.5406 40.6141 14.9367 41.3296 15.6406C42.0451 16.3445 42.4474 17.2988 42.4482 18.294V18.641C42.4471 19.6359 42.0446 20.5899 41.3291 21.2934C40.6136 21.997 39.6435 22.3927 38.6316 22.3938Z" fill="black"/>
<path d="M37.0779 28.7197H30.5463C30.3872 28.7197 30.2346 28.6575 30.122 28.5469C30.0095 28.4363 29.9463 28.2862 29.9463 28.1297C29.9463 27.9732 30.0095 27.8232 30.122 27.7125C30.2346 27.6019 30.3872 27.5397 30.5463 27.5397H37.0779C37.7719 27.5397 38.4374 27.2687 38.9281 26.7861C39.4188 26.3036 39.6945 25.6492 39.6945 24.9668C39.6945 24.2844 39.4188 23.63 38.9281 23.1475C38.4374 22.665 37.7719 22.3939 37.0779 22.3939H31.7889C31.6298 22.3939 31.4772 22.3317 31.3646 22.2211C31.2521 22.1105 31.1889 21.9604 31.1889 21.8039C31.1889 21.6474 31.2521 21.4974 31.3646 21.3867C31.4772 21.2761 31.6298 21.2139 31.7889 21.2139H37.0779C38.0901 21.2139 39.0609 21.6093 39.7766 22.3131C40.4924 23.0169 40.8945 23.9715 40.8945 24.9668C40.8945 25.9621 40.4924 26.9167 39.7766 27.6205C39.0609 28.3243 38.0901 28.7197 37.0779 28.7197Z" fill="black"/>
<path d="M36.0685 35.0445H28.0609C27.9017 35.0445 27.7491 34.9824 27.6366 34.8717C27.5241 34.7611 27.4609 34.611 27.4609 34.4546C27.4609 34.2981 27.5241 34.148 27.6366 34.0374C27.7491 33.9267 27.9017 33.8646 28.0609 33.8646H36.0685C36.4154 33.8697 36.7599 33.807 37.0819 33.6801C37.4039 33.5531 37.6971 33.3644 37.9442 33.125C38.1914 32.8856 38.3877 32.6003 38.5217 32.2856C38.6557 31.9709 38.7247 31.6331 38.7247 31.292C38.7247 30.9508 38.6557 30.613 38.5217 30.2984C38.3877 29.9837 38.1914 29.6983 37.9442 29.4589C37.6971 29.2195 37.4039 29.0308 37.0819 28.9039C36.7599 28.7769 36.4154 28.7142 36.0685 28.7193H30.5485C30.3893 28.7193 30.2367 28.6572 30.1242 28.5465C30.0117 28.4359 29.9485 28.2858 29.9485 28.1294C29.9485 27.9729 30.0117 27.8228 30.1242 27.7122C30.2367 27.6015 30.3893 27.5394 30.5485 27.5394H36.0685C36.5737 27.5331 37.0751 27.6256 37.5436 27.8114C38.0122 27.9972 38.4386 28.2726 38.7981 28.6217C39.1576 28.9708 39.443 29.3865 39.6378 29.8449C39.8326 30.3033 39.9329 30.7952 39.9329 31.292C39.9329 31.7888 39.8326 32.2806 39.6378 32.739C39.443 33.1974 39.1576 33.6132 38.7981 33.9622C38.4386 34.3113 38.0122 34.5867 37.5436 34.7725C37.0751 34.9583 36.5737 35.0508 36.0685 35.0445Z" fill="black"/>
<path d="M33.5083 41.37H17.8033C16.6807 41.3728 15.574 41.1094 14.5769 40.6021C13.5799 40.0949 12.7219 39.3587 12.0757 38.4561H8.96824C8.80911 38.4561 8.6565 38.3939 8.54398 38.2833C8.43145 38.1726 8.36824 38.0226 8.36824 37.8661C8.36824 37.7096 8.43145 37.5595 8.54398 37.4489C8.6565 37.3383 8.80911 37.2761 8.96824 37.2761H12.3979C12.4987 37.2761 12.5979 37.3011 12.6863 37.3487C12.7747 37.3963 12.8495 37.4651 12.9037 37.5487C13.4277 38.36 14.152 39.0276 15.0091 39.4895C15.8662 39.9513 16.8283 40.1923 17.8057 40.19H33.5083C34.2023 40.19 34.8678 39.919 35.3585 39.4364C35.8492 38.9539 36.1249 38.2995 36.1249 37.6171C36.1249 36.9347 35.8492 36.2803 35.3585 35.7978C34.8678 35.3153 34.2023 35.0442 33.5083 35.0442H28.0609C27.9018 35.0442 27.7491 34.982 27.6366 34.8714C27.5241 34.7608 27.4609 34.6107 27.4609 34.4542C27.4609 34.2977 27.5241 34.1477 27.6366 34.037C27.7491 33.9264 27.9018 33.8642 28.0609 33.8642H33.5083C34.0095 33.8642 34.5057 33.9613 34.9688 34.1499C35.4319 34.3385 35.8526 34.6149 36.207 34.9634C36.5614 35.3119 36.8426 35.7256 37.0344 36.1809C37.2262 36.6363 37.3249 37.1243 37.3249 37.6171C37.3249 38.11 37.2262 38.598 37.0344 39.0533C36.8426 39.5086 36.5614 39.9223 36.207 40.2708C35.8526 40.6193 35.4319 40.8957 34.9688 41.0843C34.5057 41.2729 34.0095 41.37 33.5083 41.37ZM1.04824 31.7415C0.889112 31.7415 0.736499 31.6793 0.623978 31.5687C0.511456 31.458 0.448242 31.308 0.448242 31.1515V29.4405C0.448242 29.2841 0.511456 29.134 0.623978 29.0234C0.736499 28.9127 0.889112 28.8506 1.04824 28.8506C1.20737 28.8506 1.35998 28.9127 1.47251 29.0234C1.58503 29.134 1.64824 29.2841 1.64824 29.4405V31.1515C1.64824 31.308 1.58503 31.458 1.47251 31.5687C1.35998 31.6793 1.20737 31.7415 1.04824 31.7415Z" fill="black"/>
<path d="M8.20024 40.9929H1.81024C1.44916 40.9924 1.10301 40.8511 0.847688 40.6001C0.592367 40.349 0.448718 40.0087 0.448242 39.6536V35.2818C0.448242 35.1254 0.511456 34.9753 0.623978 34.8646C0.736499 34.754 0.889112 34.6918 1.04824 34.6918C1.20737 34.6918 1.35998 34.754 1.47251 34.8646C1.58503 34.9753 1.64824 35.1254 1.64824 35.2818V39.6536C1.64824 39.6958 1.66531 39.7364 1.69569 39.7662C1.72607 39.7961 1.76728 39.8129 1.81024 39.8129H8.20024C8.22191 39.8133 8.24344 39.8095 8.26362 39.8017C8.28379 39.7939 8.3022 39.7823 8.3178 39.7675C8.3334 39.7527 8.34588 39.735 8.35454 39.7155C8.36319 39.6959 8.36785 39.6749 8.36824 39.6536V18.5971C8.36785 18.5758 8.36319 18.5548 8.35454 18.5352C8.34588 18.5157 8.3334 18.498 8.3178 18.4832C8.3022 18.4684 8.28379 18.4568 8.26362 18.449C8.24344 18.4412 8.22191 18.4374 8.20024 18.4378H1.81024C1.78897 18.4378 1.7679 18.4419 1.74825 18.4499C1.72859 18.4579 1.71073 18.4697 1.69569 18.4845C1.68065 18.4993 1.66871 18.5168 1.66057 18.5361C1.65243 18.5555 1.64824 18.5762 1.64824 18.5971V25.3111C1.64824 25.4676 1.58503 25.6176 1.47251 25.7283C1.35998 25.8389 1.20737 25.9011 1.04824 25.9011C0.889112 25.9011 0.736499 25.8389 0.623978 25.7283C0.511456 25.6176 0.448242 25.4676 0.448242 25.3111V18.5971C0.448718 18.242 0.592367 17.9017 0.847688 17.6506C1.10301 17.3996 1.44916 17.2583 1.81024 17.2578H8.20024C8.56212 17.2575 8.90935 17.3983 9.1658 17.6494C9.42224 17.9005 9.56697 18.2413 9.56824 18.5971V39.6536C9.56697 40.0094 9.42224 40.3502 9.1658 40.6013C8.90935 40.8524 8.56212 40.9932 8.20024 40.9929Z" fill="#46D993"/>
</g>
</g>
<defs>
<clipPath id="clip0_213_2122">
<rect width="42" height="42" fill="white" transform="translate(0.610352 0.911133)"/>
</clipPath>
</defs>
</svg>
