<svg width="26" height="26" viewBox="0 0 26 26" fill="none" xmlns="http://www.w3.org/2000/svg">
<rect x="0.5" y="0.5" width="25" height="25" rx="12.5" stroke="white" stroke-opacity="0.2"/>
<path d="M9.59375 17H7.41406V9.99219H9.59375V17ZM8.49219 9.05469C7.8125 9.05469 7.25 8.46875 7.25 7.76562C7.25 7.08594 7.8125 6.52344 8.49219 6.52344C9.19531 6.52344 9.75781 7.08594 9.75781 7.76562C9.75781 8.46875 9.19531 9.05469 8.49219 9.05469ZM17.7266 17H15.5703V13.6016C15.5703 12.7812 15.5469 11.75 14.4219 11.75C13.2969 11.75 13.1328 12.6172 13.1328 13.5312V17H10.9531V9.99219H13.0391V10.9531H13.0625C13.3672 10.4141 14.0703 9.82812 15.125 9.82812C17.3281 9.82812 17.75 11.2812 17.75 13.1562V17H17.7266Z" fill="white"/>
</svg>
