<svg xmlns="http://www.w3.org/2000/svg" width="17" height="17" viewBox="0 0 17 17" fill="none">
  <g clip-path="url(#clip0_1_1469)">
    <path fill-rule="evenodd" clip-rule="evenodd" d="M14.6311 13.179C15.617 11.8491 16.2 10.2026 16.2 8.42C16.2 4.00169 12.6182 0.419998 8.19995 0.419998C3.78164 0.419998 0.199951 4.00169 0.199951 8.42C0.199951 12.8382 3.78164 16.42 8.19995 16.42C10.5181 16.42 12.6058 15.4341 14.067 13.8587C14.2673 13.6426 14.4556 13.4157 14.6311 13.179ZM14.1875 12.42C14.9533 11.2759 15.3999 9.90009 15.3999 8.42C15.3999 4.44355 12.1764 1.21998 8.19986 1.21998C4.2235 1.21998 0.999934 4.44355 0.999934 8.42C0.999934 9.90017 1.44653 11.2759 2.2124 12.42C3.17861 10.9766 4.65296 9.90194 6.37956 9.45214C5.54589 8.87444 4.99993 7.91102 4.99993 6.81995C4.99993 5.05266 6.43266 3.61993 8.19995 3.61993C9.96724 3.61993 11.4 5.05266 11.4 6.81995C11.4 7.91093 10.854 8.87444 10.0203 9.45206C11.7469 9.90194 13.2213 10.9765 14.1875 12.42ZM13.6722 13.0993C12.5495 11.2531 10.5188 10.02 8.20003 10.02C5.88121 10.02 3.85044 11.2531 2.72771 13.0994C4.04824 14.6422 6.00987 15.62 8.19995 15.62C10.3901 15.62 12.3517 14.6422 13.6722 13.0993ZM8.19995 9.21998C9.52546 9.21998 10.6 8.14554 10.6 6.81995C10.6 5.49444 9.52554 4.41992 8.19995 4.41992C6.87435 4.41992 5.79992 5.49452 5.79992 6.82003C5.79992 8.14554 6.87444 9.21998 8.19995 9.21998Z" fill="#13141A"/>
  </g>
  <defs>
    <clipPath id="clip0_1_1469">
      <rect width="16" height="16" fill="white" transform="translate(0.199951 0.419998)"/>
    </clipPath>
  </defs>
</svg>