<svg width="251" height="52" viewBox="0 0 251 52" fill="none" xmlns="http://www.w3.org/2000/svg">
<g clip-path="url(#clip0_1_11463)">
<path d="M81.2422 32.4369V4.08984H93.0157C95.0784 4.08984 96.967 4.4408 98.6815 5.14273C100.396 5.81766 101.869 6.78956 103.101 8.05843C104.36 9.3273 105.325 10.8257 105.995 12.5535C106.664 14.2813 106.999 16.1846 106.999 18.2634C106.999 20.3422 106.664 22.259 105.995 24.0138C105.325 25.7416 104.36 27.24 103.101 28.5089C101.869 29.7507 100.396 30.7226 98.6815 31.4246C96.967 32.0995 95.0784 32.4369 93.0157 32.4369H81.2422ZM88.0733 27.7394L87.1491 26.3626H92.8148C93.9399 26.3626 94.9445 26.1736 95.8285 25.7956C96.7125 25.3907 97.4626 24.8372 98.0787 24.1353C98.7217 23.4334 99.2173 22.583 99.5655 21.5841C99.9138 20.5852 100.088 19.4783 100.088 18.2634C100.088 17.0485 99.9138 15.9417 99.5655 14.9428C99.2173 13.9439 98.7217 13.0934 98.0787 12.3915C97.4626 11.6896 96.7125 11.1496 95.8285 10.7717C94.9445 10.3667 93.9399 10.1643 92.8148 10.1643H87.0285L88.0733 8.86834V27.7394Z" fill="white"/>
<path d="M111.598 32.437V10.9338H117.706L117.988 17.9395L116.782 16.6032C117.103 15.4423 117.626 14.4029 118.349 13.485C119.099 12.5671 119.97 11.8382 120.961 11.2982C121.952 10.7583 123.01 10.4883 124.135 10.4883C124.618 10.4883 125.06 10.5288 125.461 10.6098C125.89 10.6908 126.279 10.7853 126.627 10.8933L124.859 18.061C124.564 17.8721 124.162 17.7236 123.653 17.6156C123.171 17.4806 122.662 17.4131 122.126 17.4131C121.537 17.4131 120.988 17.5211 120.479 17.7371C119.97 17.926 119.541 18.2095 119.193 18.5875C118.845 18.9654 118.563 19.4109 118.349 19.9238C118.162 20.4368 118.068 21.0172 118.068 21.6652V32.437H111.598Z" fill="white"/>
<path d="M130.246 32.4371V10.9339H136.676V32.4371H130.246ZM133.461 6.68181C132.256 6.68181 131.305 6.39834 130.608 5.8314C129.938 5.23746 129.603 4.40055 129.603 3.32066C129.603 2.34876 129.952 1.55234 130.648 0.931404C131.345 0.310468 132.282 0 133.461 0C134.666 0 135.604 0.296969 136.274 0.890908C136.943 1.45785 137.278 2.26777 137.278 3.32066C137.278 4.31955 136.93 5.12947 136.234 5.75041C135.564 6.37134 134.64 6.68181 133.461 6.68181Z" fill="white"/>
<path d="M149.266 32.4373L140.346 10.9341H147.458L152.762 27.0109L151.195 27.1729L156.66 10.9341H163.692L154.329 32.4373H149.266Z" fill="white"/>
<path d="M175.82 32.842C173.757 32.842 171.909 32.3561 170.275 31.3842C168.641 30.4123 167.341 29.0894 166.377 27.4156C165.439 25.7147 164.971 23.7979 164.971 21.6652C164.971 19.5324 165.439 17.6291 166.377 15.9553C167.341 14.2544 168.641 12.9181 170.275 11.9462C171.909 10.9743 173.757 10.4883 175.82 10.4883C177.722 10.4883 179.463 10.8258 181.044 11.5007C182.651 12.1756 183.923 13.1205 184.861 14.3354L181.365 18.547C180.99 18.115 180.548 17.7101 180.039 17.3321C179.53 16.9541 178.967 16.6572 178.351 16.4412C177.735 16.2252 177.092 16.1172 176.423 16.1172C175.405 16.1172 174.507 16.3602 173.73 16.8462C172.953 17.3051 172.351 17.953 171.922 18.79C171.494 19.6269 171.279 20.5853 171.279 21.6652C171.279 22.6911 171.494 23.6225 171.922 24.4594C172.378 25.2963 172.994 25.9577 173.771 26.4437C174.547 26.9296 175.431 27.1726 176.423 27.1726C177.119 27.1726 177.762 27.0916 178.351 26.9296C178.941 26.7406 179.476 26.4707 179.959 26.1197C180.468 25.7687 180.936 25.3368 181.365 24.8238L184.821 29.0759C183.91 30.2368 182.638 31.1547 181.003 31.8296C179.396 32.5045 177.668 32.842 175.82 32.842Z" fill="white"/>
<path d="M198.399 32.842C196.176 32.842 194.194 32.3561 192.452 31.3842C190.738 30.4123 189.372 29.0894 188.354 27.4156C187.363 25.7417 186.867 23.8249 186.867 21.6652C186.867 19.5054 187.363 17.5886 188.354 15.9148C189.372 14.2409 190.738 12.9181 192.452 11.9462C194.194 10.9743 196.176 10.4883 198.399 10.4883C200.623 10.4883 202.592 10.9743 204.306 11.9462C206.047 12.9181 207.414 14.2409 208.405 15.9148C209.396 17.5886 209.892 19.5054 209.892 21.6652C209.892 23.8249 209.396 25.7417 208.405 27.4156C207.414 29.0894 206.047 30.4123 204.306 31.3842C202.592 32.3561 200.623 32.842 198.399 32.842ZM198.399 27.2536C199.364 27.2536 200.221 27.0106 200.971 26.5247C201.721 26.0387 202.311 25.3773 202.739 24.5404C203.168 23.7034 203.369 22.7451 203.342 21.6652C203.369 20.5853 203.168 19.6269 202.739 18.79C202.311 17.926 201.721 17.2511 200.971 16.7652C200.221 16.2792 199.364 16.0362 198.399 16.0362C197.435 16.0362 196.564 16.2792 195.788 16.7652C195.037 17.2511 194.448 17.926 194.019 18.79C193.591 19.6269 193.39 20.5853 193.417 21.6652C193.39 22.7451 193.591 23.7034 194.019 24.5404C194.448 25.3773 195.037 26.0387 195.788 26.5247C196.564 27.0106 197.435 27.2536 198.399 27.2536Z" fill="white"/>
<path d="M85.737 51.7058C85.4167 51.7058 85.1722 51.6241 85.0036 51.4609C84.8349 51.2976 84.7211 51.0894 84.6621 50.8363C84.6031 50.5833 84.5651 50.322 84.5483 50.0526C84.5483 49.8975 84.5567 49.7139 84.5736 49.5016C84.5904 49.2893 84.6115 49.0853 84.6368 48.8893C84.6705 48.6852 84.6958 48.5342 84.7127 48.4363H81.8167C81.2771 48.9832 80.7628 49.5179 80.2738 50.0404C79.7932 50.5547 79.3211 51.0772 78.8574 51.6078H77.5928C77.812 51.4119 78.0986 51.1506 78.4527 50.8241C78.8153 50.4894 79.2242 50.1098 79.6794 49.6853C80.1347 49.2608 80.6068 48.8118 81.0958 48.3383C81.5932 47.8566 82.0907 47.375 82.5881 46.8933C83.0855 46.4035 83.5534 45.9341 83.9918 45.4851C84.4387 45.028 84.8349 44.6157 85.1806 44.2483C85.3492 44.0687 85.5052 43.8891 85.6485 43.7095C85.8003 43.5218 85.9689 43.3667 86.1544 43.2442C86.3399 43.1218 86.5675 43.0605 86.8373 43.0605H87.7478C87.6045 43.1912 87.4612 43.4116 87.3178 43.7218C87.1745 44.032 87.0438 44.3667 86.9258 44.7259C86.8162 45.0851 86.7235 45.4116 86.6476 45.7055C86.538 46.1464 86.4242 46.6239 86.3061 47.1382C86.1965 47.6526 86.108 48.1628 86.0406 48.6689C85.9731 49.1751 85.952 49.6445 85.9773 50.0771C85.9858 50.2322 86.0153 50.3955 86.0658 50.567C86.1249 50.7302 86.205 50.8731 86.3061 50.9955C86.4157 51.1098 86.5506 51.167 86.7108 51.167C86.8541 51.167 87.0101 51.1139 87.1787 51.0078L87.2546 51.118C87.145 51.2813 86.9342 51.42 86.6223 51.5343C86.3188 51.6486 86.0237 51.7058 85.737 51.7058ZM80.6785 45.4974C80.5436 45.3586 80.4424 45.2157 80.375 45.0688C80.316 44.9218 80.2865 44.7831 80.2865 44.6524C80.2865 44.4892 80.3202 44.3341 80.3876 44.1871C80.4635 44.032 80.552 43.9014 80.6532 43.7953C80.8555 43.5748 81.1085 43.4116 81.412 43.3054C81.7155 43.1993 82.0359 43.134 82.3731 43.1095C82.7188 43.0769 83.0476 43.0605 83.3595 43.0605H86.1923C86.0153 43.232 85.7455 43.3667 85.3829 43.4646C85.0288 43.5544 84.641 43.6238 84.2195 43.6728C83.7979 43.7136 83.389 43.7544 82.9928 43.7953C82.605 43.8279 82.2846 43.8728 82.0317 43.93C81.5848 44.0279 81.2434 44.2157 81.0073 44.4932C80.7797 44.7708 80.6701 45.1055 80.6785 45.4974ZM82.3731 47.824H84.8012C84.9024 47.2852 85.0204 46.7464 85.1553 46.2076C85.2986 45.6688 85.4251 45.1953 85.5347 44.7871C85.0204 45.2606 84.4935 45.7545 83.9539 46.2688C83.4228 46.775 82.8958 47.2934 82.3731 47.824Z" fill="white"/>
<path d="M94.1088 51.7058C93.7969 51.7058 93.5819 51.6201 93.4639 51.4486C93.3543 51.269 93.2995 51.0527 93.2995 50.7996C93.2995 50.669 93.3079 50.5343 93.3248 50.3955C93.3501 50.2486 93.3796 50.1016 93.4133 49.9547C93.4386 49.8241 93.4892 49.6485 93.565 49.4281C93.6494 49.1995 93.7421 48.9546 93.8433 48.6934C93.9529 48.4322 94.0625 48.1791 94.1721 47.9342C94.2817 47.6811 94.3786 47.4648 94.4629 47.2852C94.328 47.4893 94.1552 47.7383 93.9444 48.0322C93.7421 48.3179 93.5229 48.6159 93.2868 48.9261C93.0592 49.2363 92.8358 49.5302 92.6166 49.8077C92.4058 50.0771 92.2203 50.2976 92.0601 50.469C91.6723 50.8772 91.2761 51.1833 90.8714 51.3874C90.4667 51.5915 90.0957 51.6935 89.7585 51.6935C89.3032 51.6935 88.9491 51.5915 88.6962 51.3874C88.4433 51.1833 88.3168 50.8323 88.3168 50.3343C88.3168 50.0975 88.3463 49.8241 88.4053 49.5138C88.4643 49.1955 88.5613 48.8363 88.6962 48.4363C88.8564 47.9546 89.0545 47.4485 89.2906 46.9178C89.5266 46.379 89.7754 45.8525 90.0367 45.3382C90.3065 44.8157 90.5679 44.3341 90.8208 43.8932C90.8376 43.8606 90.8714 43.7993 90.922 43.7095C90.981 43.6197 91.0273 43.5544 91.0611 43.5136C90.7323 43.5218 90.3782 43.5626 89.9988 43.6361C89.6278 43.7014 89.2695 43.7953 88.9238 43.9177C88.5866 44.0402 88.2957 44.183 88.0512 44.3463C87.8152 44.5096 87.6634 44.6892 87.596 44.8851C87.5875 44.9096 87.5707 44.9218 87.5454 44.9218C87.4695 44.9218 87.4316 44.8647 87.4316 44.7504C87.4316 44.7259 87.44 44.6892 87.4568 44.6402C87.5412 44.4279 87.6381 44.2402 87.7477 44.0769C87.8573 43.9136 87.9711 43.7748 88.0892 43.6606C88.3674 43.383 88.6793 43.2156 89.025 43.1585C89.3707 43.0932 89.7374 43.0605 90.1252 43.0605H92.996C92.8189 43.1912 92.625 43.4034 92.4142 43.6973C92.2035 43.9912 91.9843 44.3259 91.7566 44.7014C91.5374 45.0769 91.3266 45.4647 91.1243 45.8647C90.922 46.2566 90.7407 46.6239 90.5805 46.9668C90.4287 47.3015 90.3065 47.575 90.2138 47.7872C90.1632 47.9097 90.0789 48.1056 89.9608 48.375C89.8512 48.6444 89.7501 48.9424 89.6573 49.2689C89.5646 49.5873 89.5182 49.8812 89.5182 50.1506C89.5182 50.3792 89.5688 50.567 89.67 50.7139C89.7711 50.8608 89.944 50.9302 90.1885 50.9221C90.4498 50.9139 90.7491 50.7914 91.0864 50.5547C91.4236 50.318 91.7777 50.0037 92.1487 49.6118C92.5196 49.22 92.8906 48.7914 93.2615 48.326C93.6325 47.8526 93.9824 47.3791 94.3112 46.9056C94.6484 46.4239 94.9477 45.979 95.2091 45.5708C95.4704 45.1545 95.6728 44.8116 95.8161 44.5422C96.1112 44.0198 96.3768 43.6442 96.6128 43.4157C96.8573 43.1789 97.1271 43.0605 97.4222 43.0605H98.2063C98.0292 43.1912 97.8353 43.4116 97.6245 43.7218C97.4138 44.032 97.2072 44.3667 97.0049 44.7259C96.8025 45.0851 96.6255 45.4116 96.4737 45.7055C96.2545 46.1464 96.0311 46.6239 95.8035 47.1382C95.5758 47.6526 95.3735 48.1628 95.1964 48.6689C95.0194 49.1751 94.8887 49.6445 94.8044 50.0771C94.7791 50.2078 94.7665 50.3465 94.7665 50.4935C94.7665 50.6731 94.796 50.8323 94.855 50.971C94.9224 51.1017 95.0405 51.167 95.2091 51.167C95.3524 51.167 95.521 51.1139 95.7149 51.0078H95.7276C95.7444 51.0078 95.7571 51.0241 95.7655 51.0568C95.7739 51.0813 95.7697 51.1017 95.7529 51.118C95.5927 51.2813 95.3524 51.42 95.032 51.5343C94.7117 51.6486 94.4039 51.7058 94.1088 51.7058Z" fill="white"/>
<path d="M100.671 51.8773C100.393 51.8773 100.207 51.7834 100.115 51.5957C100.022 51.3997 99.9755 51.1834 99.9755 50.9467C99.9755 50.7834 99.9881 50.6242 100.013 50.4691C100.039 50.3058 100.064 50.1711 100.089 50.065C100.157 49.7548 100.266 49.3874 100.418 48.9629C100.57 48.5302 100.743 48.0772 100.937 47.6037C101.139 47.122 101.349 46.6485 101.569 46.1832C101.788 45.7097 101.999 45.2689 102.201 44.8607C102.412 44.4444 102.597 44.0892 102.757 43.7954C102.563 43.8035 102.34 43.8035 102.087 43.7954C101.834 43.779 101.573 43.7709 101.303 43.7709C100.84 43.7709 100.38 43.8076 99.9249 43.8811C99.4781 43.9464 99.1113 44.1056 98.8247 44.3586C98.6898 44.4811 98.5928 44.6117 98.5338 44.7505C98.4748 44.8893 98.4453 45.0281 98.4453 45.1668C98.4453 45.3219 98.4706 45.473 98.5211 45.6199C98.5296 45.6362 98.5338 45.6567 98.5338 45.6811C98.5338 45.7628 98.4916 45.8036 98.4073 45.8036C98.3567 45.8036 98.3188 45.7832 98.2935 45.7424C98.2092 45.6118 98.146 45.4811 98.1038 45.3505C98.0701 45.2117 98.0532 45.077 98.0532 44.9464C98.0532 44.7178 98.0954 44.5015 98.1797 44.2974C98.264 44.0933 98.3652 43.926 98.4832 43.7954C98.7783 43.4606 99.1788 43.2402 99.6846 43.1341C100.191 43.0198 100.717 42.9627 101.265 42.9627C101.687 42.9627 102.096 42.979 102.492 43.0117C102.896 43.0443 103.255 43.0688 103.567 43.0851C103.862 43.1015 104.229 43.13 104.667 43.1708C105.105 43.2035 105.531 43.2198 105.944 43.2198C106.315 43.2198 106.648 43.1953 106.943 43.1464C107.238 43.0974 107.453 43.0076 107.588 42.877C107.614 42.9259 107.626 42.9831 107.626 43.0484C107.626 43.2198 107.525 43.3872 107.323 43.5504C107.12 43.7137 106.846 43.8239 106.501 43.8811C106.391 43.8974 106.265 43.9096 106.121 43.9178C105.986 43.926 105.843 43.9301 105.691 43.9301C105.438 43.9301 105.185 43.926 104.933 43.9178C104.68 43.9015 104.456 43.8852 104.262 43.8688C104.068 43.8525 103.938 43.8484 103.87 43.8566C103.82 43.9301 103.74 44.0648 103.63 44.2607C103.529 44.4566 103.419 44.6689 103.301 44.8974C103.183 45.126 103.078 45.3342 102.985 45.522C102.825 45.8485 102.656 46.2159 102.479 46.624C102.302 47.0322 102.133 47.4445 101.973 47.8608C101.813 48.2772 101.674 48.6731 101.556 49.0486C101.446 49.4241 101.375 49.7466 101.341 50.016C101.333 50.0405 101.328 50.0691 101.328 50.1017C101.328 50.1262 101.328 50.1507 101.328 50.1752C101.328 50.3303 101.358 50.465 101.417 50.5793C101.484 50.6854 101.585 50.7385 101.72 50.7385C101.838 50.7385 101.982 50.6773 102.15 50.5548C102.319 50.4324 102.513 50.2283 102.732 49.9425C102.774 49.8936 102.812 49.8691 102.846 49.8691C102.896 49.8691 102.922 49.9099 102.922 49.9915C102.922 50.0487 102.901 50.1262 102.859 50.2242C102.825 50.3221 102.762 50.4364 102.669 50.5671C102.593 50.6732 102.471 50.816 102.302 50.9956C102.133 51.1671 101.969 51.314 101.809 51.4365C101.666 51.5508 101.489 51.6528 101.278 51.7426C101.067 51.8324 100.865 51.8773 100.671 51.8773Z" fill="white"/>
<path d="M108.683 51.9996C108.059 51.9996 107.511 51.9098 107.039 51.7302C106.566 51.5587 106.2 51.2771 105.938 50.8852C105.677 50.4934 105.546 49.9709 105.546 49.3178C105.546 48.6647 105.656 48.028 105.875 47.4075C106.103 46.7789 106.415 46.1953 106.811 45.6565C107.207 45.1177 107.671 44.6442 108.202 44.236C108.742 43.8278 109.323 43.5094 109.947 43.2809C110.571 43.0523 111.22 42.938 111.895 42.938C112.645 42.938 113.256 43.0604 113.729 43.3053C114.201 43.5502 114.546 43.885 114.766 44.3095C114.993 44.7258 115.107 45.1952 115.107 45.7177C115.107 46.4116 114.934 47.1381 114.588 47.8974C114.234 48.6729 113.771 49.3709 113.197 49.9913C112.624 50.6118 111.954 51.1016 111.187 51.4608C110.428 51.82 109.593 51.9996 108.683 51.9996ZM109.833 51.3506C110.331 51.2199 110.82 50.9791 111.3 50.6281C111.781 50.277 112.215 49.8566 112.603 49.3668C112.991 48.877 113.299 48.3627 113.526 47.8239C113.88 46.9994 114.057 46.2238 114.057 45.4973C114.057 45.383 114.049 45.2728 114.032 45.1666C114.024 45.0605 114.011 44.9585 113.994 44.8605C113.901 44.3625 113.686 44.0115 113.349 43.8074C113.012 43.6033 112.632 43.5013 112.211 43.5013C111.773 43.5013 111.326 43.587 110.87 43.7584C110.415 43.9217 110.023 44.1258 109.694 44.3707C109.29 44.6809 108.914 45.036 108.569 45.436C108.223 45.8361 107.932 46.2606 107.696 46.7096C107.494 47.1014 107.329 47.53 107.203 47.9953C107.085 48.4525 107.026 48.8974 107.026 49.3301C107.026 49.7219 107.085 50.0811 107.203 50.4077C107.321 50.7342 107.515 50.9995 107.785 51.2036C108.054 51.3995 108.413 51.4975 108.86 51.4975C109.146 51.4975 109.471 51.4485 109.833 51.3506Z" fill="white"/>
<path d="M123.912 51.7058C123.583 51.7058 123.36 51.6241 123.242 51.4609C123.124 51.2894 123.065 51.0772 123.065 50.8241C123.065 50.5955 123.098 50.3384 123.166 50.0526C123.242 49.7016 123.377 49.2853 123.57 48.8036C123.773 48.322 123.996 47.8199 124.241 47.2974C124.494 46.7668 124.742 46.2607 124.987 45.779C125.24 45.2974 125.459 44.8851 125.644 44.5422C125.535 44.6402 125.421 44.7422 125.303 44.8484C125.193 44.9545 125.08 45.0729 124.962 45.2035C124.473 45.7341 124.026 46.2403 123.621 46.7219C123.225 47.1954 122.841 47.6648 122.47 48.1301C122.108 48.5873 121.733 49.0567 121.345 49.5383C121.134 49.8077 120.965 50.0118 120.839 50.1506C120.721 50.2812 120.611 50.371 120.51 50.42C120.417 50.4608 120.299 50.4812 120.156 50.4812C119.945 50.4812 119.705 50.42 119.435 50.2976C119.553 50.1588 119.633 49.8608 119.675 49.4036C119.726 48.9465 119.751 48.424 119.751 47.8362C119.751 47.2403 119.73 46.6239 119.688 45.9872C119.646 45.3504 119.583 44.7871 119.498 44.2973C119.448 44.379 119.355 44.5586 119.22 44.8361C119.094 45.1137 118.938 45.4565 118.752 45.8647C118.575 46.2647 118.385 46.7015 118.183 47.175C117.981 47.6403 117.783 48.1097 117.589 48.5832C117.403 49.0485 117.235 49.4894 117.083 49.9057C116.94 50.322 116.83 50.6812 116.754 50.9833C116.678 51.2853 116.653 51.4935 116.678 51.6078H115.515C115.7 51.1506 115.911 50.6445 116.147 50.0894C116.392 49.5261 116.644 48.9506 116.906 48.3628C117.167 47.775 117.424 47.2036 117.677 46.6484C117.939 46.0933 118.175 45.5872 118.385 45.13C118.605 44.6647 118.786 44.281 118.929 43.9789C119.073 43.6769 119.165 43.4891 119.207 43.4157C118.836 43.4075 118.457 43.4442 118.069 43.5259C117.681 43.5993 117.319 43.7055 116.982 43.8442C116.644 43.983 116.358 44.1422 116.122 44.3218C115.894 44.5014 115.747 44.6892 115.679 44.8851C115.671 44.9096 115.654 44.9218 115.629 44.9218C115.561 44.9218 115.527 44.8688 115.527 44.7626C115.527 44.7463 115.527 44.73 115.527 44.7137C115.536 44.6892 115.544 44.6647 115.553 44.6402C115.629 44.4279 115.721 44.2402 115.831 44.0769C115.949 43.9136 116.063 43.7748 116.172 43.6606C116.451 43.383 116.762 43.2156 117.108 43.1585C117.454 43.0932 117.821 43.0605 118.208 43.0605H119.435C119.621 43.0605 119.802 43.0605 119.979 43.0605C120.156 43.0605 120.312 43.1054 120.447 43.1952C120.582 43.2769 120.67 43.4401 120.712 43.685C120.746 43.8565 120.776 44.1177 120.801 44.4688C120.835 44.8116 120.86 45.1953 120.877 45.6198C120.902 46.0443 120.923 46.4647 120.94 46.8811C120.957 47.2974 120.97 47.6566 120.978 47.9587C120.978 47.975 120.978 48.024 120.978 48.1056C120.986 48.1791 120.991 48.273 120.991 48.3873C120.991 48.4934 120.986 48.6159 120.978 48.7546C120.978 48.8853 120.97 49.0118 120.953 49.1342C121.13 48.922 121.349 48.6608 121.61 48.3505C121.88 48.0322 122.171 47.6893 122.483 47.3219C122.795 46.9464 123.111 46.5709 123.431 46.1954C123.752 45.8198 124.059 45.4606 124.355 45.1178C124.65 44.7749 124.907 44.4769 125.126 44.2238C125.354 43.9626 125.522 43.7667 125.632 43.6361C125.826 43.4238 126.07 43.2769 126.365 43.1952C126.66 43.1054 126.955 43.0605 127.251 43.0605H128.035C127.858 43.1912 127.664 43.4116 127.453 43.7218C127.242 44.032 127.036 44.3667 126.833 44.7259C126.639 45.0851 126.466 45.4116 126.315 45.7055C126.096 46.1464 125.872 46.6239 125.644 47.1382C125.417 47.6526 125.214 48.1628 125.037 48.6689C124.86 49.1751 124.73 49.6445 124.645 50.0771C124.62 50.2078 124.607 50.3465 124.607 50.4935C124.607 50.6731 124.637 50.8323 124.696 50.971C124.763 51.1017 124.881 51.167 125.05 51.167C125.185 51.167 125.349 51.1139 125.543 51.0078H125.556C125.573 51.0078 125.585 51.0241 125.594 51.0568C125.602 51.0813 125.598 51.1017 125.581 51.118C125.421 51.2813 125.177 51.42 124.848 51.5343C124.519 51.6486 124.207 51.7058 123.912 51.7058Z" fill="white"/>
<path d="M130.097 51.9996C129.474 51.9996 128.926 51.9098 128.453 51.7302C127.981 51.5587 127.615 51.2771 127.353 50.8852C127.092 50.4934 126.961 49.9709 126.961 49.3178C126.961 48.6647 127.071 48.028 127.29 47.4075C127.518 46.7789 127.83 46.1953 128.226 45.6565C128.622 45.1177 129.086 44.6442 129.617 44.236C130.156 43.8278 130.738 43.5094 131.362 43.2809C131.986 43.0523 132.635 42.938 133.31 42.938C134.06 42.938 134.671 43.0604 135.143 43.3053C135.615 43.5502 135.961 43.885 136.18 44.3095C136.408 44.7258 136.522 45.1952 136.522 45.7177C136.522 46.4116 136.349 47.1381 136.003 47.8974C135.649 48.6729 135.186 49.3709 134.612 49.9913C134.039 50.6118 133.369 51.1016 132.601 51.4608C131.843 51.82 131.008 51.9996 130.097 51.9996ZM131.248 51.3506C131.746 51.2199 132.235 50.9791 132.715 50.6281C133.196 50.277 133.63 49.8566 134.018 49.3668C134.406 48.877 134.713 48.3627 134.941 47.8239C135.295 46.9994 135.472 46.2238 135.472 45.4973C135.472 45.383 135.464 45.2728 135.447 45.1666C135.438 45.0605 135.426 44.9585 135.409 44.8605C135.316 44.3625 135.101 44.0115 134.764 43.8074C134.427 43.6033 134.047 43.5013 133.626 43.5013C133.187 43.5013 132.741 43.587 132.285 43.7584C131.83 43.9217 131.438 44.1258 131.109 44.3707C130.704 44.6809 130.329 45.036 129.984 45.436C129.638 45.8361 129.347 46.2606 129.111 46.7096C128.909 47.1014 128.744 47.53 128.618 47.9953C128.5 48.4525 128.441 48.8974 128.441 49.3301C128.441 49.7219 128.5 50.0811 128.618 50.4077C128.736 50.7342 128.93 50.9995 129.2 51.2036C129.469 51.3995 129.828 51.4975 130.275 51.4975C130.561 51.4975 130.886 51.4485 131.248 51.3506Z" fill="white"/>
<path d="M139.697 51.8773C139.418 51.8773 139.233 51.7834 139.14 51.5957C139.047 51.3997 139.001 51.1834 139.001 50.9467C139.001 50.7834 139.014 50.6242 139.039 50.4691C139.064 50.3058 139.09 50.1711 139.115 50.065C139.182 49.7548 139.292 49.3874 139.444 48.9629C139.595 48.5302 139.768 48.0772 139.962 47.6037C140.165 47.122 140.375 46.6485 140.595 46.1832C140.814 45.7097 141.025 45.2689 141.227 44.8607C141.438 44.4444 141.623 44.0892 141.783 43.7954C141.589 43.8035 141.366 43.8035 141.113 43.7954C140.86 43.779 140.599 43.7709 140.329 43.7709C139.865 43.7709 139.406 43.8076 138.951 43.8811C138.504 43.9464 138.137 44.1056 137.85 44.3586C137.715 44.4811 137.618 44.6117 137.559 44.7505C137.5 44.8893 137.471 45.0281 137.471 45.1668C137.471 45.3219 137.496 45.473 137.547 45.6199C137.555 45.6362 137.559 45.6567 137.559 45.6811C137.559 45.7628 137.517 45.8036 137.433 45.8036C137.382 45.8036 137.344 45.7832 137.319 45.7424C137.235 45.6118 137.172 45.4811 137.129 45.3505C137.096 45.2117 137.079 45.077 137.079 44.9464C137.079 44.7178 137.121 44.5015 137.205 44.2974C137.29 44.0933 137.391 43.926 137.509 43.7954C137.804 43.4606 138.204 43.2402 138.71 43.1341C139.216 43.0198 139.743 42.9627 140.291 42.9627C140.713 42.9627 141.121 42.979 141.518 43.0117C141.922 43.0443 142.281 43.0688 142.593 43.0851C142.888 43.1015 143.254 43.13 143.693 43.1708C144.131 43.2035 144.557 43.2198 144.97 43.2198C145.341 43.2198 145.674 43.1953 145.969 43.1464C146.264 43.0974 146.479 43.0076 146.614 42.877C146.639 42.9259 146.652 42.9831 146.652 43.0484C146.652 43.2198 146.551 43.3872 146.349 43.5504C146.146 43.7137 145.872 43.8239 145.527 43.8811C145.417 43.8974 145.291 43.9096 145.147 43.9178C145.012 43.926 144.869 43.9301 144.717 43.9301C144.464 43.9301 144.211 43.926 143.958 43.9178C143.706 43.9015 143.482 43.8852 143.288 43.8688C143.094 43.8525 142.964 43.8484 142.896 43.8566C142.846 43.9301 142.765 44.0648 142.656 44.2607C142.555 44.4566 142.445 44.6689 142.327 44.8974C142.209 45.126 142.104 45.3342 142.011 45.522C141.851 45.8485 141.682 46.2159 141.505 46.624C141.328 47.0322 141.159 47.4445 140.999 47.8608C140.839 48.2772 140.7 48.6731 140.582 49.0486C140.472 49.4241 140.401 49.7466 140.367 50.016C140.358 50.0405 140.354 50.0691 140.354 50.1017C140.354 50.1262 140.354 50.1507 140.354 50.1752C140.354 50.3303 140.384 50.465 140.443 50.5793C140.51 50.6854 140.611 50.7385 140.746 50.7385C140.864 50.7385 141.008 50.6773 141.176 50.5548C141.345 50.4324 141.539 50.2283 141.758 49.9425C141.8 49.8936 141.838 49.8691 141.872 49.8691C141.922 49.8691 141.948 49.9099 141.948 49.9915C141.948 50.0487 141.927 50.1262 141.884 50.2242C141.851 50.3221 141.788 50.4364 141.695 50.5671C141.619 50.6732 141.497 50.816 141.328 50.9956C141.159 51.1671 140.995 51.314 140.835 51.4365C140.691 51.5508 140.514 51.6528 140.304 51.7426C140.093 51.8324 139.891 51.8773 139.697 51.8773Z" fill="white"/>
<path d="M146.278 51.6078C146.38 51.1996 146.515 50.7465 146.683 50.2486C146.86 49.7424 147.058 49.2159 147.278 48.6689C147.505 48.122 147.737 47.5791 147.973 47.0403C148.209 46.5015 148.437 45.9872 148.656 45.4974C148.875 44.9994 149.128 44.4973 149.415 43.9912C149.474 43.8932 149.524 43.8034 149.567 43.7218C149.617 43.6401 149.672 43.5708 149.731 43.5136C149.402 43.5218 149.048 43.5626 148.669 43.6361C148.298 43.7014 147.939 43.7953 147.594 43.9177C147.256 44.0402 146.966 44.183 146.721 44.3463C146.485 44.5096 146.333 44.6892 146.266 44.8851C146.257 44.9096 146.241 44.9218 146.215 44.9218C146.139 44.9218 146.101 44.8647 146.101 44.7504C146.101 44.7259 146.11 44.6892 146.127 44.6402C146.203 44.4279 146.295 44.2402 146.405 44.0769C146.523 43.9136 146.641 43.7748 146.759 43.6606C147.037 43.383 147.349 43.2156 147.695 43.1585C148.041 43.0932 148.407 43.0605 148.795 43.0605H151.653C151.451 43.2075 151.236 43.4483 151.008 43.783C150.781 44.1096 150.557 44.4769 150.338 44.8851C150.119 45.2933 149.912 45.6933 149.718 46.0851C149.533 46.477 149.377 46.8076 149.25 47.077C149.191 47.2076 149.107 47.4076 148.997 47.677C148.888 47.9383 148.766 48.2362 148.631 48.571C148.504 48.9057 148.382 49.2526 148.264 49.6118C148.146 49.9628 148.049 50.2894 147.973 50.5914C147.897 50.8935 147.859 51.1425 147.859 51.3384C147.859 51.3956 147.863 51.4486 147.872 51.4976C147.889 51.5384 147.901 51.5752 147.91 51.6078H146.278Z" fill="white"/>
<path d="M152.354 51.6079C152.455 51.4201 152.522 51.1834 152.556 50.8977C152.598 50.612 152.623 50.3099 152.632 49.9915C152.649 49.665 152.666 49.3507 152.682 49.0486C152.699 48.7629 152.712 48.469 152.72 48.167C152.729 47.8649 152.733 47.5588 152.733 47.2486C152.733 46.8159 152.716 46.3914 152.682 45.975C152.657 45.5505 152.607 45.1628 152.531 44.8117C152.497 44.624 152.43 44.4444 152.328 44.2729C152.236 44.1015 152.118 44.0158 151.974 44.0158C151.898 44.0158 151.814 44.0484 151.721 44.1137C151.637 44.1709 151.54 44.2811 151.43 44.4444C151.422 44.4607 151.405 44.4566 151.38 44.4321C151.363 44.4076 151.359 44.3872 151.367 44.3709C151.435 44.1668 151.57 43.9464 151.772 43.7096C151.974 43.4729 152.189 43.277 152.417 43.1219C152.535 43.0402 152.64 42.9831 152.733 42.9504C152.834 42.9178 152.927 42.9014 153.011 42.9014C153.264 42.9014 153.458 43.028 153.593 43.2811C153.728 43.526 153.825 43.8035 153.884 44.1137C153.943 44.424 153.981 44.7995 153.998 45.2403C154.023 45.673 154.036 46.1261 154.036 46.5995C154.036 47.0975 154.027 47.5914 154.01 48.0812C153.993 48.5711 153.972 49.0078 153.947 49.3915C153.922 49.7752 153.901 50.0609 153.884 50.2487C154.171 49.865 154.482 49.4119 154.82 48.8894C155.157 48.367 155.498 47.82 155.844 47.2486C156.198 46.6771 156.531 46.122 156.843 45.5832C157.155 45.0362 157.429 44.5423 157.665 44.1015C157.91 43.6607 158.087 43.3137 158.196 43.0606H159.334C159.208 43.2566 159.006 43.5668 158.727 43.9913C158.449 44.4076 158.125 44.8893 157.754 45.4362C157.391 45.9832 157.008 46.5587 156.603 47.1628C156.198 47.7588 155.806 48.3425 155.427 48.9139C155.047 49.4772 154.71 49.9793 154.415 50.4201C154.255 50.6732 154.086 50.9222 153.909 51.1671C153.741 51.4038 153.53 51.5467 153.277 51.5957C153.252 51.6038 153.214 51.6079 153.163 51.6079H152.354Z" fill="white"/>
<path d="M159.842 51.608C159.707 51.608 159.606 51.5549 159.539 51.4488C159.48 51.3427 159.45 51.2039 159.45 51.0325C159.45 50.7957 159.488 50.5182 159.564 50.1998C159.648 49.8814 159.75 49.5508 159.868 49.2079C159.994 48.865 160.121 48.5385 160.247 48.2283C160.373 47.9099 160.483 47.6405 160.576 47.4201H159.88C159.813 47.4201 159.779 47.3956 159.779 47.3466C159.779 47.2976 159.817 47.2323 159.893 47.1507C159.969 47.0609 160.057 46.9833 160.158 46.918C160.26 46.8527 160.344 46.8201 160.411 46.8201H160.841C161.052 46.3384 161.25 45.8894 161.436 45.4731C161.621 45.0486 161.853 44.5996 162.131 44.1261C162.199 44.0118 162.262 43.9057 162.321 43.8077C162.38 43.7016 162.447 43.6077 162.523 43.5261C162.068 43.5832 161.6 43.6689 161.12 43.7832C160.647 43.8975 160.226 44.0444 159.855 44.224C159.484 44.4036 159.223 44.6159 159.071 44.8608C159.062 44.8853 159.046 44.8975 159.02 44.8975C159.003 44.8975 158.991 44.8812 158.982 44.8486C158.965 44.8159 158.961 44.7792 158.97 44.7384C159.054 44.5261 159.159 44.322 159.286 44.1261C159.412 43.9302 159.535 43.775 159.653 43.6608C159.838 43.473 160.091 43.3383 160.411 43.2567C160.732 43.175 161.061 43.122 161.398 43.0975C161.743 43.073 162.039 43.0607 162.283 43.0607H164.787C165.082 43.0607 165.343 43.0526 165.571 43.0362C165.807 43.0118 166.005 42.9995 166.165 42.9995C166.427 42.9995 166.579 43.0607 166.621 43.1832C166.629 43.2158 166.633 43.2485 166.633 43.2812C166.642 43.3056 166.646 43.3383 166.646 43.3791C166.646 43.5424 166.608 43.7301 166.532 43.9424C166.456 44.1465 166.372 44.3465 166.279 44.5424C166.195 44.7302 166.128 44.8853 166.077 45.0077C166.069 45.0486 166.043 45.0771 166.001 45.0935C165.967 45.1098 165.934 45.118 165.9 45.118C165.858 45.118 165.82 45.1098 165.786 45.0935C165.761 45.0771 165.752 45.0241 165.761 44.9343C165.778 44.8363 165.799 44.7261 165.824 44.6037C165.849 44.4812 165.862 44.3751 165.862 44.2853C165.862 44.024 165.752 43.824 165.533 43.6852C165.322 43.5383 165.057 43.4648 164.736 43.4648C164.5 43.4648 164.306 43.4852 164.155 43.5261C164.003 43.5587 163.881 43.6444 163.788 43.7832C163.451 44.2649 163.143 44.7588 162.865 45.2649C162.595 45.771 162.342 46.2894 162.106 46.8201H165.407C165.432 46.8201 165.415 46.869 165.356 46.967C165.306 47.065 165.238 47.167 165.154 47.2731C165.078 47.3711 165.01 47.4201 164.951 47.4201H161.828C161.735 47.6487 161.625 47.9262 161.499 48.2528C161.373 48.5793 161.254 48.9018 161.145 49.2202C161.044 49.5385 160.964 49.812 160.905 50.0406C160.854 50.2365 160.829 50.412 160.829 50.5672C160.829 50.7712 160.892 50.9263 161.018 51.0325C161.153 51.1386 161.385 51.1917 161.714 51.1917C162.169 51.1917 162.625 51.1753 163.08 51.1427C163.535 51.1019 163.982 51.0202 164.42 50.8978C164.8 50.7916 165.137 50.6488 165.432 50.4692C165.736 50.2896 165.955 50.0651 166.09 49.7957C166.106 49.763 166.132 49.7467 166.165 49.7467C166.225 49.7467 166.254 49.7916 166.254 49.8814C166.254 49.8977 166.25 49.9181 166.241 49.9426C166.241 49.9671 166.237 49.9957 166.229 50.0284C166.161 50.2406 166.081 50.4284 165.988 50.5916C165.896 50.7549 165.799 50.8937 165.698 51.008C165.462 51.2855 165.158 51.457 164.787 51.5223C164.416 51.5794 164.045 51.608 163.674 51.608H159.842Z" fill="white"/>
<path d="M172.92 51.9016C172.212 51.7873 171.693 51.4893 171.365 51.0077C171.044 50.526 170.884 49.9546 170.884 49.2933C170.884 48.8117 170.964 48.3096 171.124 47.7871C171.285 47.2565 171.512 46.7381 171.807 46.232C172.111 45.7258 172.473 45.2564 172.895 44.8238C173.316 44.3829 173.793 44.0074 174.324 43.6972C174.855 43.387 175.433 43.1706 176.056 43.0482C176.436 42.9747 176.798 42.938 177.144 42.938C177.819 42.938 178.358 43.0686 178.763 43.3298C179.167 43.5829 179.37 43.9094 179.37 44.3095C179.37 44.3911 179.361 44.4727 179.344 44.5544C179.336 44.6278 179.311 44.7095 179.269 44.7993C179.176 45.036 179.02 45.2483 178.801 45.436C178.59 45.6156 178.345 45.7544 178.067 45.8524C177.797 45.9503 177.519 45.9912 177.233 45.9748C177.098 45.9585 176.98 45.9136 176.878 45.8401C176.786 45.7585 176.739 45.6605 176.739 45.5462C176.739 45.432 176.79 45.3095 176.891 45.1789C176.984 45.2115 177.089 45.2279 177.207 45.2279C177.418 45.2279 177.625 45.1789 177.827 45.0809C178.029 44.983 178.198 44.8483 178.333 44.6768C178.468 44.5054 178.535 44.3135 178.535 44.1013C178.535 43.8156 178.434 43.6278 178.232 43.538C178.029 43.44 177.802 43.3911 177.549 43.3911C177.38 43.3911 177.211 43.4074 177.043 43.44C176.883 43.4645 176.752 43.489 176.651 43.5135C176.17 43.636 175.677 43.8605 175.171 44.187C174.674 44.5054 174.219 44.8972 173.805 45.3626C173.392 45.8197 173.072 46.3218 172.844 46.8687C172.676 47.2688 172.545 47.6729 172.452 48.081C172.359 48.4892 172.313 48.877 172.313 49.2443C172.313 49.7178 172.393 50.1342 172.553 50.4934C172.722 50.8526 172.988 51.1016 173.35 51.2403C173.679 51.3628 174.016 51.424 174.362 51.424C174.918 51.424 175.479 51.2934 176.044 51.0322C176.617 50.7709 177.144 50.4403 177.625 50.0403C177.92 49.7872 178.185 49.526 178.421 49.2566C178.657 48.9872 178.839 48.7015 178.965 48.3994C179.125 48.4974 179.205 48.6402 179.205 48.828C179.205 48.975 179.159 49.1341 179.066 49.3056C178.982 49.477 178.881 49.6362 178.763 49.7831C178.653 49.9301 178.556 50.0444 178.472 50.126C177.882 50.722 177.174 51.1791 176.347 51.4975C175.53 51.8159 174.699 51.9751 173.856 51.9751C173.536 51.9751 173.224 51.9506 172.92 51.9016Z" fill="white"/>
<path d="M186.093 51.7058C185.772 51.7058 185.528 51.6241 185.359 51.4609C185.191 51.2976 185.077 51.0894 185.018 50.8363C184.959 50.5833 184.921 50.322 184.904 50.0526C184.904 49.8975 184.912 49.7139 184.929 49.5016C184.946 49.2893 184.967 49.0853 184.992 48.8893C185.026 48.6852 185.051 48.5342 185.068 48.4363H182.172C181.633 48.9832 181.118 49.5179 180.629 50.0404C180.149 50.5547 179.677 51.0772 179.213 51.6078H177.948C178.168 51.4119 178.454 51.1506 178.808 50.8241C179.171 50.4894 179.58 50.1098 180.035 49.6853C180.49 49.2608 180.963 48.8118 181.452 48.3383C181.949 47.8566 182.446 47.375 182.944 46.8933C183.441 46.4035 183.909 45.9341 184.348 45.4851C184.794 45.028 185.191 44.6157 185.536 44.2483C185.705 44.0687 185.861 43.8891 186.004 43.7095C186.156 43.5218 186.325 43.3667 186.51 43.2442C186.696 43.1218 186.923 43.0605 187.193 43.0605H188.103C187.96 43.1912 187.817 43.4116 187.674 43.7218C187.53 44.032 187.4 44.3667 187.281 44.7259C187.172 45.0851 187.079 45.4116 187.003 45.7055C186.894 46.1464 186.78 46.6239 186.662 47.1382C186.552 47.6526 186.464 48.1628 186.396 48.6689C186.329 49.1751 186.308 49.6445 186.333 50.0771C186.341 50.2322 186.371 50.3955 186.422 50.567C186.481 50.7302 186.561 50.8731 186.662 50.9955C186.771 51.1098 186.906 51.167 187.066 51.167C187.21 51.167 187.366 51.1139 187.534 51.0078L187.61 51.118C187.501 51.2813 187.29 51.42 186.978 51.5343C186.674 51.6486 186.379 51.7058 186.093 51.7058ZM181.034 45.4974C180.899 45.3586 180.798 45.2157 180.731 45.0688C180.672 44.9218 180.642 44.7831 180.642 44.6524C180.642 44.4892 180.676 44.3341 180.743 44.1871C180.819 44.032 180.908 43.9014 181.009 43.7953C181.211 43.5748 181.464 43.4116 181.768 43.3054C182.071 43.1993 182.392 43.134 182.729 43.1095C183.074 43.0769 183.403 43.0605 183.715 43.0605H186.548C186.371 43.232 186.101 43.3667 185.739 43.4646C185.385 43.5544 184.997 43.6238 184.575 43.6728C184.154 43.7136 183.745 43.7544 183.348 43.7953C182.961 43.8279 182.64 43.8728 182.387 43.93C181.94 44.0279 181.599 44.2157 181.363 44.4932C181.135 44.7708 181.026 45.1055 181.034 45.4974ZM182.729 47.824H185.157C185.258 47.2852 185.376 46.7464 185.511 46.2076C185.654 45.6688 185.781 45.1953 185.89 44.7871C185.376 45.2606 184.849 45.7545 184.31 46.2688C183.778 46.775 183.252 47.2934 182.729 47.824Z" fill="white"/>
<path d="M188.139 51.6078C188.24 51.1996 188.375 50.7465 188.544 50.2486C188.721 49.7424 188.919 49.2159 189.138 48.6689C189.366 48.122 189.598 47.5791 189.834 47.0403C190.07 46.5015 190.297 45.9872 190.516 45.4974C190.736 44.9994 190.989 44.4973 191.275 43.9912C191.334 43.8932 191.385 43.8034 191.427 43.7218C191.478 43.6401 191.532 43.5708 191.591 43.5136C191.263 43.5218 190.909 43.5626 190.529 43.6361C190.158 43.7014 189.8 43.7953 189.454 43.9177C189.117 44.0402 188.826 44.183 188.582 44.3463C188.346 44.5096 188.194 44.6892 188.126 44.8851C188.118 44.9096 188.101 44.9218 188.076 44.9218C188 44.9218 187.962 44.8647 187.962 44.7504C187.962 44.7259 187.97 44.6892 187.987 44.6402C188.063 44.4279 188.156 44.2402 188.265 44.0769C188.383 43.9136 188.501 43.7748 188.62 43.6606C188.898 43.383 189.21 43.2156 189.555 43.1585C189.901 43.0932 190.268 43.0605 190.656 43.0605H193.729C194.083 43.0605 194.399 43.0973 194.677 43.1707C194.955 43.2361 195.187 43.3299 195.373 43.4524C195.617 43.6075 195.794 43.7993 195.904 44.0279C196.013 44.2483 196.068 44.481 196.068 44.7259C196.068 45.1014 195.984 45.4361 195.815 45.73C195.647 46.0239 195.423 46.277 195.145 46.4892C194.875 46.7015 194.572 46.8729 194.235 47.0035C193.897 47.1342 193.556 47.2321 193.21 47.2974L192.805 47.3709C193.008 48.0322 193.265 48.6281 193.577 49.1587C193.889 49.6894 194.213 50.1547 194.551 50.5547C194.888 50.9547 195.191 51.2976 195.461 51.5833C195.335 51.6078 195.141 51.6201 194.879 51.6201C194.652 51.6201 194.433 51.616 194.222 51.6078C194.011 51.5915 193.906 51.5833 193.906 51.5833C193.695 51.5833 193.488 51.4731 193.286 51.2527C193.084 51.0323 192.89 50.7506 192.704 50.4078C192.519 50.0567 192.35 49.6934 192.198 49.3179C192.055 48.9342 191.933 48.5791 191.832 48.2526C191.739 47.926 191.676 47.673 191.642 47.4934C191.642 47.4689 191.638 47.4444 191.629 47.4199C191.629 47.3954 191.629 47.3668 191.629 47.3342C191.629 47.2852 191.638 47.2444 191.655 47.2117C191.68 47.1709 191.726 47.1464 191.794 47.1382C192.215 47.0893 192.599 47.0158 192.945 46.9178C193.29 46.8117 193.606 46.6688 193.893 46.4892C194.18 46.3015 194.412 46.0729 194.589 45.8035C194.766 45.5259 194.854 45.1994 194.854 44.8239C194.854 44.5218 194.766 44.2483 194.589 44.0034C194.42 43.7504 194.146 43.583 193.767 43.5014C193.665 43.4769 193.556 43.4605 193.438 43.4524C193.328 43.4442 193.214 43.4361 193.096 43.4279C192.911 43.6728 192.717 43.9667 192.515 44.3096C192.312 44.6524 192.114 45.0157 191.92 45.3994C191.726 45.7749 191.541 46.1505 191.364 46.526C191.195 46.8933 191.043 47.2321 190.909 47.5423C190.841 47.7138 190.74 47.9628 190.605 48.2893C190.479 48.6159 190.348 48.971 190.213 49.3547C190.078 49.7383 189.96 50.1098 189.859 50.469C189.766 50.82 189.72 51.1098 189.72 51.3384C189.72 51.4609 189.737 51.5507 189.77 51.6078H188.139Z" fill="white"/>
<path d="M201.344 51.7548C201.099 51.7139 200.872 51.6568 200.661 51.5833C200.45 51.5017 200.269 51.3996 200.117 51.2772C200.007 51.1792 199.927 51.0649 199.877 50.9343C199.826 50.7955 199.801 50.6486 199.801 50.4935C199.801 50.2322 199.847 49.9628 199.94 49.6853C200.033 49.3996 200.113 49.1546 200.18 48.9506C200.34 48.4934 200.53 48.0077 200.749 47.4934C200.977 46.9791 201.205 46.4811 201.432 45.9994C201.668 45.5178 201.879 45.0892 202.065 44.7137C202.25 44.3381 202.389 44.0647 202.482 43.8932C202.516 43.8279 202.545 43.7667 202.57 43.7095C202.604 43.6524 202.638 43.5993 202.672 43.5503C202.587 43.5585 202.507 43.5708 202.431 43.5871C202.355 43.5952 202.284 43.6034 202.216 43.6116C201.845 43.6606 201.458 43.7422 201.053 43.8565C200.657 43.9626 200.298 44.0973 199.978 44.2606C199.658 44.4239 199.426 44.6239 199.282 44.8606C199.274 44.8851 199.257 44.8973 199.232 44.8973C199.215 44.8973 199.202 44.881 199.194 44.8484C199.177 44.8157 199.173 44.779 199.181 44.7382C199.266 44.5259 199.371 44.3218 199.497 44.1259C199.624 43.93 199.746 43.7748 199.864 43.6606C200.05 43.4728 200.303 43.3381 200.623 43.2565C200.943 43.1748 201.272 43.1218 201.609 43.0973C201.955 43.0728 202.25 43.0605 202.495 43.0605H205.087C205.939 43.0605 206.622 43.2156 207.136 43.5259C207.659 43.8361 208.038 44.2443 208.274 44.7504C208.51 45.2565 208.628 45.8035 208.628 46.3913C208.628 46.5301 208.624 46.6688 208.615 46.8076C208.607 46.9464 208.59 47.0852 208.565 47.224C208.438 47.9668 208.19 48.6281 207.819 49.2077C207.456 49.7792 207.005 50.2608 206.466 50.6527C205.926 51.0445 205.319 51.3425 204.644 51.5466C203.978 51.7425 203.279 51.8405 202.545 51.8405C202.351 51.8405 202.153 51.8323 201.951 51.816C201.748 51.8078 201.546 51.7874 201.344 51.7548ZM201.66 51.2772C201.77 51.2853 201.879 51.2976 201.989 51.3139C202.098 51.3221 202.208 51.3262 202.318 51.3262C202.916 51.3262 203.481 51.2241 204.012 51.02C204.552 50.8159 205.036 50.5302 205.466 50.1629C205.905 49.7955 206.276 49.371 206.579 48.8893C206.883 48.4077 207.102 47.8852 207.237 47.3219C207.33 46.9464 207.376 46.5872 207.376 46.2443C207.376 45.877 207.317 45.5259 207.199 45.1912C207.089 44.8484 206.908 44.5422 206.655 44.2728C206.428 44.0279 206.124 43.8402 205.745 43.7095C205.365 43.5708 205.015 43.4891 204.695 43.4646C204.619 43.4565 204.543 43.4524 204.467 43.4524C204.392 43.4442 204.316 43.4401 204.24 43.4401C204.088 43.6361 203.932 43.8687 203.772 44.1381C203.612 44.3994 203.456 44.6688 203.304 44.9463C203.161 45.2239 203.034 45.477 202.925 45.7055C202.638 46.3015 202.368 46.8974 202.115 47.4934C201.862 48.0893 201.635 48.6975 201.432 49.3179C201.373 49.4975 201.314 49.7016 201.255 49.9302C201.196 50.1588 201.167 50.371 201.167 50.567C201.167 50.7465 201.2 50.9057 201.268 51.0445C201.344 51.1751 201.474 51.2527 201.66 51.2772Z" fill="white"/>
<path d="M209.539 51.608C209.404 51.608 209.303 51.5549 209.235 51.4488C209.176 51.3427 209.147 51.2039 209.147 51.0325C209.147 50.7957 209.185 50.5182 209.26 50.1998C209.345 49.8814 209.446 49.5508 209.564 49.2079C209.69 48.865 209.817 48.5385 209.943 48.2283C210.07 47.9099 210.179 47.6405 210.272 47.4201H209.577C209.509 47.4201 209.475 47.3956 209.475 47.3466C209.475 47.2976 209.513 47.2323 209.589 47.1507C209.665 47.0609 209.754 46.9833 209.855 46.918C209.956 46.8527 210.04 46.8201 210.108 46.8201H210.538C210.748 46.3384 210.947 45.8894 211.132 45.4731C211.318 45.0486 211.549 44.5996 211.828 44.1261C211.895 44.0118 211.958 43.9057 212.017 43.8077C212.076 43.7016 212.144 43.6077 212.22 43.5261C211.764 43.5832 211.296 43.6689 210.816 43.7832C210.344 43.8975 209.922 44.0444 209.551 44.224C209.18 44.4036 208.919 44.6159 208.767 44.8608C208.759 44.8853 208.742 44.8975 208.717 44.8975C208.7 44.8975 208.687 44.8812 208.679 44.8486C208.662 44.8159 208.658 44.7792 208.666 44.7384C208.75 44.5261 208.856 44.322 208.982 44.1261C209.109 43.9302 209.231 43.775 209.349 43.6608C209.534 43.473 209.787 43.3383 210.108 43.2567C210.428 43.175 210.757 43.122 211.094 43.0975C211.44 43.073 211.735 43.0607 211.979 43.0607H214.483C214.778 43.0607 215.04 43.0526 215.267 43.0362C215.503 43.0118 215.702 42.9995 215.862 42.9995C216.123 42.9995 216.275 43.0607 216.317 43.1832C216.325 43.2158 216.33 43.2485 216.33 43.2812C216.338 43.3056 216.342 43.3383 216.342 43.3791C216.342 43.5424 216.304 43.7301 216.229 43.9424C216.153 44.1465 216.068 44.3465 215.976 44.5424C215.891 44.7302 215.824 44.8853 215.773 45.0077C215.765 45.0486 215.74 45.0771 215.697 45.0935C215.664 45.1098 215.63 45.118 215.596 45.118C215.554 45.118 215.516 45.1098 215.482 45.0935C215.457 45.0771 215.449 45.0241 215.457 44.9343C215.474 44.8363 215.495 44.7261 215.52 44.6037C215.546 44.4812 215.558 44.3751 215.558 44.2853C215.558 44.024 215.449 43.824 215.229 43.6852C215.019 43.5383 214.753 43.4648 214.433 43.4648C214.197 43.4648 214.003 43.4852 213.851 43.5261C213.699 43.5587 213.577 43.6444 213.484 43.7832C213.147 44.2649 212.839 44.7588 212.561 45.2649C212.291 45.771 212.038 46.2894 211.802 46.8201H215.103C215.128 46.8201 215.111 46.869 215.052 46.967C215.002 47.065 214.934 47.167 214.85 47.2731C214.774 47.3711 214.707 47.4201 214.648 47.4201H211.524C211.431 47.6487 211.322 47.9262 211.195 48.2528C211.069 48.5793 210.951 48.9018 210.841 49.2202C210.74 49.5385 210.66 49.812 210.601 50.0406C210.55 50.2365 210.525 50.412 210.525 50.5672C210.525 50.7712 210.588 50.9263 210.715 51.0325C210.85 51.1386 211.081 51.1917 211.41 51.1917C211.866 51.1917 212.321 51.1753 212.776 51.1427C213.231 51.1019 213.678 51.0202 214.117 50.8978C214.496 50.7916 214.833 50.6488 215.128 50.4692C215.432 50.2896 215.651 50.0651 215.786 49.7957C215.803 49.763 215.828 49.7467 215.862 49.7467C215.921 49.7467 215.95 49.7916 215.95 49.8814C215.95 49.8977 215.946 49.9181 215.938 49.9426C215.938 49.9671 215.933 49.9957 215.925 50.0284C215.858 50.2406 215.777 50.4284 215.685 50.5916C215.592 50.7549 215.495 50.8937 215.394 51.008C215.158 51.2855 214.854 51.457 214.483 51.5223C214.112 51.5794 213.741 51.608 213.37 51.608H209.539Z" fill="white"/>
<path d="M223.402 51.7058C223.082 51.7058 222.837 51.6241 222.669 51.4609C222.5 51.2976 222.386 51.0894 222.327 50.8363C222.268 50.5833 222.23 50.322 222.213 50.0526C222.213 49.8975 222.222 49.7139 222.239 49.5016C222.255 49.2893 222.276 49.0853 222.302 48.8893C222.335 48.6852 222.361 48.5342 222.378 48.4363H219.482C218.942 48.9832 218.428 49.5179 217.939 50.0404C217.458 50.5547 216.986 51.0772 216.522 51.6078H215.258C215.477 51.4119 215.764 51.1506 216.118 50.8241C216.48 50.4894 216.889 50.1098 217.344 49.6853C217.8 49.2608 218.272 48.8118 218.761 48.3383C219.258 47.8566 219.756 47.375 220.253 46.8933C220.75 46.4035 221.218 45.9341 221.657 45.4851C222.104 45.028 222.5 44.6157 222.846 44.2483C223.014 44.0687 223.17 43.8891 223.313 43.7095C223.465 43.5218 223.634 43.3667 223.819 43.2442C224.005 43.1218 224.232 43.0605 224.502 43.0605H225.413C225.269 43.1912 225.126 43.4116 224.983 43.7218C224.839 44.032 224.709 44.3667 224.591 44.7259C224.481 45.0851 224.388 45.4116 224.313 45.7055C224.203 46.1464 224.089 46.6239 223.971 47.1382C223.861 47.6526 223.773 48.1628 223.706 48.6689C223.638 49.1751 223.617 49.6445 223.642 50.0771C223.651 50.2322 223.68 50.3955 223.731 50.567C223.79 50.7302 223.87 50.8731 223.971 50.9955C224.081 51.1098 224.216 51.167 224.376 51.167C224.519 51.167 224.675 51.1139 224.844 51.0078L224.92 51.118C224.81 51.2813 224.599 51.42 224.287 51.5343C223.984 51.6486 223.689 51.7058 223.402 51.7058ZM218.343 45.4974C218.209 45.3586 218.107 45.2157 218.04 45.0688C217.981 44.9218 217.951 44.7831 217.951 44.6524C217.951 44.4892 217.985 44.3341 218.053 44.1871C218.128 44.032 218.217 43.9014 218.318 43.7953C218.52 43.5748 218.773 43.4116 219.077 43.3054C219.38 43.1993 219.701 43.134 220.038 43.1095C220.384 43.0769 220.713 43.0605 221.024 43.0605H223.857C223.68 43.232 223.41 43.3667 223.048 43.4646C222.694 43.5544 222.306 43.6238 221.884 43.6728C221.463 43.7136 221.054 43.7544 220.658 43.7953C220.27 43.8279 219.95 43.8728 219.697 43.93C219.25 44.0279 218.908 44.2157 218.672 44.4932C218.445 44.7708 218.335 45.1055 218.343 45.4974ZM220.038 47.824H222.466C222.567 47.2852 222.685 46.7464 222.82 46.2076C222.964 45.6688 223.09 45.1953 223.2 44.7871C222.685 45.2606 222.158 45.7545 221.619 46.2688C221.088 46.775 220.561 47.2934 220.038 47.824Z" fill="white"/>
<path d="M226.35 51.6078C226.173 51.6078 226.042 51.5466 225.958 51.4241C225.882 51.3017 225.844 51.1343 225.844 50.9221C225.844 50.7996 225.856 50.6649 225.882 50.518C225.907 50.371 225.936 50.2159 225.97 50.0526C226.071 49.62 226.227 49.1424 226.438 48.6199C226.657 48.0893 226.906 47.5464 227.184 46.9913C227.471 46.428 227.758 45.8811 228.044 45.3504C228.339 44.8198 228.613 44.3341 228.866 43.8932C228.883 43.8606 228.917 43.7993 228.967 43.7095C229.026 43.6197 229.073 43.5544 229.106 43.5136C228.778 43.5218 228.424 43.5626 228.044 43.6361C227.673 43.7014 227.315 43.7953 226.969 43.9177C226.632 44.0402 226.341 44.183 226.097 44.3463C225.861 44.5096 225.709 44.6892 225.641 44.8851C225.633 44.9096 225.616 44.9218 225.591 44.9218C225.515 44.9218 225.477 44.8647 225.477 44.7504C225.477 44.7259 225.485 44.6892 225.502 44.6402C225.587 44.4279 225.684 44.2402 225.793 44.0769C225.903 43.9136 226.017 43.7748 226.135 43.6606C226.413 43.383 226.725 43.2156 227.07 43.1585C227.416 43.0932 227.783 43.0605 228.171 43.0605H231.041C230.856 43.1993 230.637 43.4524 230.384 43.8197C230.131 44.1789 229.869 44.5871 229.6 45.0443C229.482 45.2484 229.334 45.5137 229.157 45.8402C228.98 46.1668 228.795 46.5301 228.601 46.9301C228.407 47.3219 228.221 47.7179 228.044 48.1179C227.867 48.5179 227.715 48.8975 227.589 49.2567C227.462 49.6077 227.382 49.9098 227.349 50.1629C227.34 50.2037 227.336 50.2445 227.336 50.2853C227.336 50.318 227.336 50.3547 227.336 50.3955C227.336 50.6241 227.399 50.8159 227.526 50.971C227.652 51.118 227.888 51.1915 228.234 51.1915C228.681 51.1915 229.132 51.1751 229.587 51.1425C230.051 51.1017 230.502 51.02 230.94 50.8976C231.311 50.7914 231.648 50.6486 231.952 50.469C232.255 50.2894 232.475 50.0649 232.61 49.7955C232.626 49.7628 232.647 49.7465 232.673 49.7465C232.732 49.7465 232.761 49.7914 232.761 49.8812C232.761 49.8975 232.757 49.9179 232.749 49.9424C232.749 49.9669 232.744 49.9955 232.736 50.0282C232.669 50.2404 232.588 50.4282 232.496 50.5914C232.403 50.7547 232.31 50.8935 232.218 51.0078C231.981 51.2853 231.674 51.4568 231.294 51.5221C230.923 51.5792 230.552 51.6078 230.181 51.6078H226.35Z" fill="white"/>
<path d="M233.065 51.608C232.93 51.608 232.829 51.5549 232.762 51.4488C232.703 51.3427 232.673 51.2039 232.673 51.0325C232.673 50.7957 232.711 50.5182 232.787 50.1998C232.871 49.8814 232.973 49.5508 233.091 49.2079C233.217 48.865 233.344 48.5385 233.47 48.2283C233.596 47.9099 233.706 47.6405 233.799 47.4201H233.103C233.036 47.4201 233.002 47.3956 233.002 47.3466C233.002 47.2976 233.04 47.2323 233.116 47.1507C233.192 47.0609 233.28 46.9833 233.381 46.918C233.483 46.8527 233.567 46.8201 233.634 46.8201H234.064C234.275 46.3384 234.473 45.8894 234.659 45.4731C234.844 45.0486 235.076 44.5996 235.354 44.1261C235.422 44.0118 235.485 43.9057 235.544 43.8077C235.603 43.7016 235.67 43.6077 235.746 43.5261C235.291 43.5832 234.823 43.6689 234.343 43.7832C233.87 43.8975 233.449 44.0444 233.078 44.224C232.707 44.4036 232.446 44.6159 232.294 44.8608C232.285 44.8853 232.269 44.8975 232.243 44.8975C232.226 44.8975 232.214 44.8812 232.205 44.8486C232.188 44.8159 232.184 44.7792 232.193 44.7384C232.277 44.5261 232.382 44.322 232.509 44.1261C232.635 43.9302 232.758 43.775 232.876 43.6608C233.061 43.473 233.314 43.3383 233.634 43.2567C233.955 43.175 234.284 43.122 234.621 43.0975C234.966 43.073 235.262 43.0607 235.506 43.0607H238.01C238.305 43.0607 238.566 43.0526 238.794 43.0362C239.03 43.0118 239.228 42.9995 239.388 42.9995C239.65 42.9995 239.802 43.0607 239.844 43.1832C239.852 43.2158 239.856 43.2485 239.856 43.2812C239.865 43.3056 239.869 43.3383 239.869 43.3791C239.869 43.5424 239.831 43.7301 239.755 43.9424C239.679 44.1465 239.595 44.3465 239.502 44.5424C239.418 44.7302 239.351 44.8853 239.3 45.0077C239.292 45.0486 239.266 45.0771 239.224 45.0935C239.19 45.1098 239.157 45.118 239.123 45.118C239.081 45.118 239.043 45.1098 239.009 45.0935C238.984 45.0771 238.975 45.0241 238.984 44.9343C239.001 44.8363 239.022 44.7261 239.047 44.6037C239.072 44.4812 239.085 44.3751 239.085 44.2853C239.085 44.024 238.975 43.824 238.756 43.6852C238.545 43.5383 238.28 43.4648 237.959 43.4648C237.723 43.4648 237.529 43.4852 237.378 43.5261C237.226 43.5587 237.104 43.6444 237.011 43.7832C236.674 44.2649 236.366 44.7588 236.088 45.2649C235.818 45.771 235.565 46.2894 235.329 46.8201H238.63C238.655 46.8201 238.638 46.869 238.579 46.967C238.529 47.065 238.461 47.167 238.377 47.2731C238.301 47.3711 238.233 47.4201 238.174 47.4201H235.051C234.958 47.6487 234.848 47.9262 234.722 48.2528C234.596 48.5793 234.477 48.9018 234.368 49.2202C234.267 49.5385 234.187 49.812 234.128 50.0406C234.077 50.2365 234.052 50.412 234.052 50.5672C234.052 50.7712 234.115 50.9263 234.241 51.0325C234.376 51.1386 234.608 51.1917 234.937 51.1917C235.392 51.1917 235.847 51.1753 236.303 51.1427C236.758 51.1019 237.205 51.0202 237.643 50.8978C238.023 50.7916 238.36 50.6488 238.655 50.4692C238.959 50.2896 239.178 50.0651 239.313 49.7957C239.329 49.763 239.355 49.7467 239.388 49.7467C239.448 49.7467 239.477 49.7916 239.477 49.8814C239.477 49.8977 239.473 49.9181 239.464 49.9426C239.464 49.9671 239.46 49.9957 239.452 50.0284C239.384 50.2406 239.304 50.4284 239.211 50.5916C239.119 50.7549 239.022 50.8937 238.921 51.008C238.685 51.2855 238.381 51.457 238.01 51.5223C237.639 51.5794 237.268 51.608 236.897 51.608H233.065Z" fill="white"/>
<path d="M240.626 51.6078C240.728 51.1996 240.862 50.7465 241.031 50.2486C241.208 49.7424 241.406 49.2159 241.625 48.6689C241.853 48.122 242.085 47.5791 242.321 47.0403C242.557 46.5015 242.785 45.9872 243.004 45.4974C243.223 44.9994 243.476 44.4973 243.763 43.9912C243.822 43.8932 243.872 43.8034 243.914 43.7218C243.965 43.6401 244.02 43.5708 244.079 43.5136C243.75 43.5218 243.396 43.5626 243.017 43.6361C242.646 43.7014 242.287 43.7953 241.942 43.9177C241.604 44.0402 241.313 44.183 241.069 44.3463C240.833 44.5096 240.681 44.6892 240.614 44.8851C240.605 44.9096 240.588 44.9218 240.563 44.9218C240.487 44.9218 240.449 44.8647 240.449 44.7504C240.449 44.7259 240.458 44.6892 240.475 44.6402C240.55 44.4279 240.643 44.2402 240.753 44.0769C240.871 43.9136 240.989 43.7748 241.107 43.6606C241.385 43.383 241.697 43.2156 242.043 43.1585C242.388 43.0932 242.755 43.0605 243.143 43.0605H246.216C246.57 43.0605 246.886 43.0973 247.165 43.1707C247.443 43.2361 247.675 43.3299 247.86 43.4524C248.105 43.6075 248.282 43.7993 248.391 44.0279C248.501 44.2483 248.556 44.481 248.556 44.7259C248.556 45.1014 248.471 45.4361 248.303 45.73C248.134 46.0239 247.911 46.277 247.632 46.4892C247.363 46.7015 247.059 46.8729 246.722 47.0035C246.385 47.1342 246.043 47.2321 245.698 47.2974L245.293 47.3709C245.495 48.0322 245.752 48.6281 246.064 49.1587C246.376 49.6894 246.701 50.1547 247.038 50.5547C247.375 50.9547 247.679 51.2976 247.949 51.5833C247.822 51.6078 247.628 51.6201 247.367 51.6201C247.139 51.6201 246.92 51.616 246.709 51.6078C246.498 51.5915 246.393 51.5833 246.393 51.5833C246.182 51.5833 245.976 51.4731 245.773 51.2527C245.571 51.0323 245.377 50.7506 245.192 50.4078C245.006 50.0567 244.838 49.6934 244.686 49.3179C244.543 48.9342 244.42 48.5791 244.319 48.2526C244.226 47.926 244.163 47.673 244.129 47.4934C244.129 47.4689 244.125 47.4444 244.117 47.4199C244.117 47.3954 244.117 47.3668 244.117 47.3342C244.117 47.2852 244.125 47.2444 244.142 47.2117C244.167 47.1709 244.214 47.1464 244.281 47.1382C244.703 47.0893 245.086 47.0158 245.432 46.9178C245.778 46.8117 246.094 46.6688 246.38 46.4892C246.667 46.3015 246.899 46.0729 247.076 45.8035C247.253 45.5259 247.342 45.1994 247.342 44.8239C247.342 44.5218 247.253 44.2483 247.076 44.0034C246.907 43.7504 246.633 43.583 246.254 43.5014C246.153 43.4769 246.043 43.4605 245.925 43.4524C245.816 43.4442 245.702 43.4361 245.584 43.4279C245.398 43.6728 245.204 43.9667 245.002 44.3096C244.8 44.6524 244.602 45.0157 244.408 45.3994C244.214 45.7749 244.028 46.1505 243.851 46.526C243.683 46.8933 243.531 47.2321 243.396 47.5423C243.328 47.7138 243.227 47.9628 243.092 48.2893C242.966 48.6159 242.835 48.971 242.7 49.3547C242.565 49.7383 242.447 50.1098 242.346 50.469C242.254 50.82 242.207 51.1098 242.207 51.3384C242.207 51.4609 242.224 51.5507 242.258 51.6078H240.626Z" fill="white"/>
<path d="M250.154 51.7057C250.12 51.6893 250.052 51.6608 249.951 51.62C249.858 51.5791 249.77 51.5302 249.686 51.473C249.584 51.3995 249.534 51.3097 249.534 51.2036C249.534 51.0893 249.589 50.9791 249.698 50.873C249.783 50.7832 249.888 50.7097 250.014 50.6526C250.141 50.5954 250.28 50.5669 250.432 50.5669C250.575 50.5669 250.697 50.5913 250.798 50.6403C250.9 50.6811 250.95 50.7587 250.95 50.873C250.95 50.8975 250.942 50.9424 250.925 51.0077C250.857 51.0158 250.769 51.0648 250.659 51.1546C250.55 51.2444 250.444 51.3424 250.343 51.4485C250.25 51.5546 250.187 51.6404 250.154 51.7057Z" fill="white"/>
<path d="M62.1895 21.2015L58.3917 18.2139L58.3462 18.1751L61.8818 17.4794C62.1112 17.4345 62.3176 17.3127 62.4658 17.1348C62.614 16.957 62.6949 16.7341 62.6946 16.5041V13.5185C62.6946 13.2545 62.588 13.0014 62.3981 12.8147C62.2083 12.6281 61.9509 12.5232 61.6824 12.5232H56.6214C56.3529 12.5232 56.0955 12.6281 55.9057 12.8147C55.7158 13.0014 55.6092 13.2545 55.6092 13.5185V15.2621L55.5393 15.1695C55.4751 15.0005 55.3639 14.8526 55.2185 14.7426C54.6486 13.9494 54.1607 13.1552 53.8429 12.4685L52.1323 8.76929C51.0421 6.40964 48.1229 4.56152 45.4872 4.56152H21.1943C18.5585 4.56152 15.6393 6.40964 14.5492 8.76929L12.8395 12.4675C12.5217 13.1542 12.0338 13.9494 11.464 14.7426C11.3188 14.8529 11.2077 15.0007 11.1431 15.1695L11.0732 15.2621V13.5185C11.0732 13.2545 10.9666 13.0014 10.7768 12.8147C10.5869 12.6281 10.3295 12.5232 10.061 12.5232H4.99901C4.73056 12.5232 4.4731 12.6281 4.28328 12.8147C4.09345 13.0014 3.98681 13.2545 3.98681 13.5185V16.5041C3.98681 16.9788 4.32691 17.3869 4.80062 17.4794L8.33625 18.1751L8.2907 18.2139L4.4919 21.2015C2.50596 22.764 0.950195 25.9467 0.950195 28.4467V45.3654C0.950195 47.0114 2.31263 48.351 3.98681 48.351H12.0844C13.7586 48.351 15.121 47.0114 15.121 45.3654V43.3749H51.5604V45.3654C51.5604 47.0114 52.9228 48.351 54.597 48.351H62.6946C64.3688 48.351 65.7312 47.0114 65.7312 45.3654V28.4467C65.7312 25.9467 64.1755 22.764 62.1895 21.2015ZM52.9916 41.3845L50.6706 39.1025C49.6858 38.1341 47.8921 37.4036 46.4994 37.4036H19.676C18.2832 37.4036 16.4895 38.1341 15.5047 39.1025L13.1837 41.3845H6.01122C4.33703 41.3845 2.97461 40.0449 2.97461 38.3988V33.4228H3.98681V34.418C3.98681 36.6134 5.8027 38.3988 8.03562 38.3988H11.0722C11.3407 38.3988 11.5981 38.294 11.788 38.1074C11.9778 37.9207 12.0844 37.6676 12.0844 37.4036C12.0844 37.1397 11.9778 36.8865 11.788 36.6999C11.5981 36.5133 11.3407 36.4084 11.0722 36.4084H8.03562C6.91916 36.4084 6.01122 35.5157 6.01122 34.418V33.4228H8.03562C8.87575 33.4228 10.1815 33.9542 10.7757 34.5384C10.8694 34.6311 10.9809 34.7047 11.1038 34.755C11.2266 34.8052 11.3583 34.831 11.4913 34.831C11.6243 34.831 11.756 34.8052 11.8788 34.755C12.0016 34.7047 12.1131 34.6311 12.2069 34.5384C12.301 34.4461 12.3756 34.3364 12.4266 34.2156C12.4775 34.0949 12.5037 33.9655 12.5037 33.8348C12.5037 33.7041 12.4775 33.5747 12.4266 33.4539C12.3756 33.3332 12.301 33.2235 12.2069 33.1312C11.222 32.1628 9.42943 31.4323 8.03562 31.4323H2.97461V28.4467C2.97461 28.0954 3.03129 27.7162 3.11125 27.3291C3.75906 27.9939 4.70143 28.4467 6.01122 28.4467H14.1088C14.3773 28.4466 14.6347 28.3417 14.8245 28.1551L16.1333 26.8683L17.442 28.1551C17.5359 28.2476 17.6474 28.3211 17.7703 28.3711C17.8931 28.4211 18.0247 28.4468 18.1577 28.4467H29.885L32.6251 31.1407C32.7189 31.2335 32.8304 31.3071 32.9532 31.3573C33.076 31.4075 33.2077 31.4334 33.3407 31.4334C33.4737 31.4334 33.6054 31.4075 33.7282 31.3573C33.8511 31.3071 33.9626 31.2335 34.0563 31.1407L36.7964 28.4467H48.5238C48.792 28.4467 49.0501 28.3422 49.2394 28.1551L50.5482 26.8683L51.8569 28.1551C51.9508 28.2476 52.0624 28.3211 52.1852 28.3711C52.308 28.4211 52.4396 28.4468 52.5726 28.4467H60.6702C61.98 28.4467 62.9224 27.9939 63.5702 27.3291C63.6501 27.7162 63.7068 28.0954 63.7068 28.4467V31.4323H58.6458C57.253 31.4323 55.4594 32.1628 54.4745 33.1312C54.3805 33.2236 54.306 33.3333 54.2551 33.454C54.2043 33.5747 54.1781 33.7041 54.1781 33.8348C54.1781 33.9655 54.2043 34.0949 54.2551 34.2156C54.306 34.3363 54.3805 34.446 54.4745 34.5384C54.5685 34.6308 54.6801 34.7041 54.8028 34.7541C54.9256 34.8041 55.0572 34.8299 55.1901 34.8299C55.323 34.8299 55.4546 34.8041 55.5774 34.7541C55.7002 34.7041 55.8118 34.6308 55.9058 34.5384C56.4999 33.9542 57.8057 33.4228 58.6458 33.4228H60.6702V34.418C60.6702 35.5157 59.7623 36.4084 58.6458 36.4084H55.6092C55.3407 36.4084 55.0833 36.5133 54.8934 36.6999C54.7036 36.8865 54.597 37.1397 54.597 37.4036C54.597 37.6676 54.7036 37.9207 54.8934 38.1074C55.0833 38.294 55.3407 38.3988 55.6092 38.3988H58.6458C60.8787 38.3988 62.6946 36.6134 62.6946 34.418V33.4228H63.7068V38.3988C63.7068 40.0449 62.3444 41.3845 60.6702 41.3845H52.9916ZM50.1291 41.3845H16.0462L16.9359 40.5097C17.5301 39.9255 18.8358 39.3941 19.676 39.3941H46.4994C47.3395 39.3941 48.6452 39.9255 49.2394 40.5097L50.1291 41.3845ZM12.6513 16.5041H54.0301C55.011 17.779 56.1315 18.9852 57.1265 19.7684L58.3442 20.7258L51.1848 23.5413L51.1828 23.5423C51.0567 23.5923 50.942 23.6667 50.8458 23.7612L49.8336 24.7564L48.1047 26.4563H36.3773C36.2444 26.4561 36.1127 26.4818 35.9899 26.5319C35.8671 26.5819 35.7556 26.6553 35.6617 26.7479L33.3407 29.0299L31.0197 26.7479C30.9259 26.6553 30.8143 26.5819 30.6915 26.5319C30.5687 26.4818 30.437 26.4561 30.3041 26.4563H18.5767L16.8489 24.7574L15.8367 23.7622C15.7404 23.6677 15.6258 23.5933 15.4996 23.5433L15.4976 23.5423L8.33827 20.7268L9.55595 19.7694C10.5499 18.9852 11.6704 17.779 12.6513 16.5041ZM62.6349 24.8828C62.4314 25.9228 61.7755 26.4563 60.6702 26.4563H52.9916L51.9794 25.461L52.1292 25.3138L60.1611 22.1549L60.9243 22.756C61.566 23.2606 62.1581 24.0279 62.6349 24.8828ZM57.6336 14.5137H60.6702V15.688L57.6336 16.2852V14.5137ZM14.6807 13.2916L16.3904 9.59333C17.1536 7.94426 19.3531 6.55195 21.1943 6.55195H45.4872C47.3284 6.55195 49.5279 7.94426 50.2901 9.59234L52.0007 13.2916C52.1788 13.6757 52.4106 14.0907 52.6647 14.5137H14.0167C14.2708 14.0907 14.5036 13.6757 14.6807 13.2916ZM6.01122 14.5137H9.04782V16.2852L6.01122 15.688V14.5137ZM5.75614 22.756L6.51934 22.1549L14.5522 25.3138L14.702 25.461L13.6898 26.4563H6.01122C4.90589 26.4563 4.24998 25.9228 4.04653 24.8828C4.52328 24.0279 5.11441 23.2606 5.75614 22.756ZM12.0844 46.3606H3.98681C3.42909 46.3606 2.97461 45.9137 2.97461 45.3654V42.3548C3.84584 43.0127 4.91269 43.3711 6.01122 43.3749H13.0966V45.3654C13.0966 45.9137 12.6422 46.3606 12.0844 46.3606ZM62.6946 46.3606H54.597C54.0393 46.3606 53.5848 45.9137 53.5848 45.3654V43.3749H60.6702C61.814 43.3749 62.8586 42.9858 63.7068 42.3548V45.3654C63.7068 45.9137 63.2523 46.3606 62.6946 46.3606Z" fill="white"/>
</g>
<defs>
<clipPath id="clip0_1_11463">
<rect width="250" height="52" fill="white" transform="translate(0.950195)"/>
</clipPath>
</defs>
</svg>
