<svg xmlns="http://www.w3.org/2000/svg" width="221" height="48" viewBox="0 0 221 48" fill="none">
  <g clip-path="url(#clip0_1_8)">
    <path d="M70.3333 29.2591V4.54021H80.6799C82.4927 4.54021 84.1524 4.84625 85.659 5.45834C87.1656 6.04688 88.4605 6.89439 89.5434 8.00086C90.6499 9.10733 91.4974 10.4139 92.0859 11.9206C92.6744 13.4272 92.9687 15.0869 92.9687 16.8997C92.9687 18.7124 92.6744 20.3838 92.0859 21.9141C91.4974 23.4207 90.6499 24.7273 89.5434 25.8338C88.4605 26.9167 87.1656 27.7642 85.659 28.3763C84.1524 28.9648 82.4927 29.2591 80.6799 29.2591H70.3333ZM76.3364 25.1629L75.5242 23.9622H80.5033C81.4921 23.9622 82.3749 23.7975 83.1518 23.4679C83.9287 23.1147 84.5878 22.6322 85.1293 22.02C85.6943 21.4079 86.1299 20.6663 86.4359 19.7953C86.7419 18.9243 86.895 17.9591 86.895 16.8997C86.895 15.8403 86.7419 14.875 86.4359 14.004C86.1299 13.133 85.6943 12.3914 85.1293 11.7793C84.5878 11.1672 83.9287 10.6964 83.1518 10.3668C82.3749 10.0137 81.4921 9.83712 80.5033 9.83712H75.4183L76.3364 8.70712V25.1629ZM97.0107 29.2591V10.5081H102.378L102.625 16.6172L101.566 15.4519C101.848 14.4396 102.307 13.5332 102.943 12.7328C103.602 11.9324 104.368 11.2968 105.238 10.8259C106.109 10.355 107.039 10.1196 108.028 10.1196C108.452 10.1196 108.84 10.1549 109.193 10.2256C109.57 10.2962 109.912 10.3786 110.218 10.4728L108.664 16.7231C108.404 16.5584 108.051 16.4288 107.604 16.3347C107.181 16.2169 106.734 16.1581 106.262 16.1581C105.745 16.1581 105.262 16.2522 104.815 16.4406C104.368 16.6054 103.99 16.8526 103.685 17.1822C103.379 17.5118 103.132 17.9002 102.943 18.3475C102.779 18.7948 102.696 19.3009 102.696 19.8659V29.2591H97.0107ZM113.399 29.2591V10.5081H119.049V29.2591H113.399ZM116.224 6.80023C115.164 6.80023 114.329 6.55304 113.717 6.05866C113.128 5.54074 112.834 4.81094 112.834 3.86927C112.834 3.02176 113.139 2.32727 113.752 1.78581C114.364 1.24435 115.188 0.973618 116.224 0.973618C117.283 0.973618 118.107 1.23257 118.696 1.7505C119.284 2.24488 119.578 2.95113 119.578 3.86927C119.578 4.74031 119.273 5.44657 118.66 5.98803C118.072 6.5295 117.26 6.80023 116.224 6.80023ZM130.114 29.2591L122.274 10.5081H128.525L133.186 24.5272L131.809 24.6685L136.611 10.5081H142.791L134.563 29.2591H130.114ZM153.448 29.6123C151.636 29.6123 150.012 29.1885 148.575 28.341C147.14 27.4935 145.997 26.34 145.15 24.8804C144.327 23.3972 143.914 21.7257 143.914 19.8659C143.914 18.0062 144.327 16.3465 145.15 14.8868C145.997 13.4037 147.14 12.2384 148.575 11.3909C150.012 10.5434 151.636 10.1196 153.448 10.1196C155.12 10.1196 156.651 10.4139 158.039 11.0024C159.452 11.591 160.57 12.415 161.394 13.4743L158.322 17.1469C157.993 16.7702 157.604 16.4171 157.156 16.0875C156.709 15.7579 156.215 15.499 155.673 15.3106C155.132 15.1222 154.567 15.0281 153.978 15.0281C153.084 15.0281 152.295 15.24 151.612 15.6637C150.93 16.064 150.4 16.629 150.023 17.3587C149.647 18.0885 149.458 18.9243 149.458 19.8659C149.458 20.7606 149.647 21.5728 150.023 22.3025C150.424 23.0323 150.965 23.6091 151.647 24.0329C152.331 24.4566 153.107 24.6685 153.978 24.6685C154.591 24.6685 155.156 24.5979 155.673 24.4566C156.192 24.2918 156.662 24.0564 157.086 23.7504C157.534 23.4443 157.945 23.0676 158.322 22.6203L161.358 26.3282C160.558 27.3405 159.44 28.1409 158.004 28.7295C156.591 29.318 155.073 29.6123 153.448 29.6123ZM173.292 29.6123C171.338 29.6123 169.595 29.1885 168.066 28.341C166.559 27.4935 165.358 26.34 164.464 24.8804C163.592 23.4207 163.157 21.7493 163.157 19.8659C163.157 17.9826 163.592 16.3112 164.464 14.8515C165.358 13.3919 166.559 12.2384 168.066 11.3909C169.595 10.5434 171.338 10.1196 173.292 10.1196C175.245 10.1196 176.976 10.5434 178.483 11.3909C180.013 12.2384 181.213 13.3919 182.085 14.8515C182.956 16.3112 183.392 17.9826 183.392 19.8659C183.392 21.7493 182.956 23.4207 182.085 24.8804C181.213 26.34 180.013 27.4935 178.483 28.341C176.976 29.1885 175.245 29.6123 173.292 29.6123ZM173.292 24.7391C174.14 24.7391 174.892 24.5272 175.552 24.1035C176.211 23.6797 176.729 23.1029 177.106 22.3732C177.482 21.6434 177.659 20.8076 177.636 19.8659C177.659 18.9243 177.482 18.0885 177.106 17.3587C176.729 16.6054 176.211 16.0169 175.552 15.5931C174.892 15.1694 174.14 14.9575 173.292 14.9575C172.445 14.9575 171.679 15.1694 170.997 15.5931C170.337 16.0169 169.819 16.6054 169.443 17.3587C169.066 18.0885 168.889 18.9243 168.913 19.8659C168.889 20.8076 169.066 21.6434 169.443 22.3732C169.819 23.1029 170.337 23.6797 170.997 24.1035C171.679 24.5272 172.445 24.7391 173.292 24.7391Z" fill="#13141A"/>
    <path d="M74.5062 46.4999C74.225 46.4999 74.0105 46.4259 73.8625 46.2779C73.7145 46.1299 73.6146 45.9412 73.5629 45.7119C73.5111 45.4825 73.4778 45.2457 73.463 45.0016C73.463 44.861 73.4704 44.6946 73.4852 44.5022C73.5 44.3098 73.5185 44.1248 73.5407 43.9472C73.5702 43.7623 73.5924 43.6254 73.6073 43.5366H71.0658C70.5923 44.0323 70.1409 44.517 69.7118 44.9905C69.29 45.4566 68.8757 45.9301 68.4688 46.4111H67.3589C67.5513 46.2335 67.8029 45.9967 68.1136 45.7008C68.4317 45.3974 68.7906 45.0533 69.1901 44.6686C69.5897 44.2839 70.004 43.8769 70.4332 43.4478C70.8697 43.0113 71.3062 42.5748 71.7427 42.1382C72.1793 41.6943 72.59 41.2688 72.9747 40.8619C73.3668 40.4475 73.7145 40.0739 74.0179 39.741C74.1659 39.5782 74.3027 39.4154 74.4285 39.2527C74.5617 39.0825 74.7097 38.9419 74.8725 38.8309C75.0352 38.7199 75.235 38.6644 75.4718 38.6644H76.2709C76.145 38.7828 76.0193 38.9826 75.8935 39.2638C75.7677 39.545 75.6531 39.8482 75.5495 40.1738C75.4533 40.4994 75.3719 40.7953 75.3053 41.0617C75.2092 41.4612 75.1093 41.8941 75.0056 42.3602C74.9095 42.8263 74.8318 43.2887 74.7726 43.7475C74.7134 44.2062 74.6949 44.6316 74.7171 45.0238C74.7245 45.1643 74.7504 45.3123 74.7948 45.4677C74.8465 45.6157 74.9169 45.7452 75.0056 45.8561C75.1018 45.9598 75.2203 46.0115 75.3608 46.0115C75.4866 46.0115 75.6234 45.9634 75.7714 45.8672L75.838 45.9671C75.7419 46.1151 75.5568 46.2409 75.2831 46.3445C75.0167 46.4481 74.7578 46.4999 74.5062 46.4999ZM70.0669 40.873C69.9486 40.7472 69.8598 40.6178 69.8005 40.4846C69.7488 40.3514 69.7229 40.2256 69.7229 40.1072C69.7229 39.9592 69.7524 39.8187 69.8116 39.6855C69.8782 39.5449 69.9559 39.4265 70.0447 39.3303C70.2223 39.1306 70.4443 38.9826 70.7106 38.8864C70.977 38.7903 71.2582 38.731 71.5541 38.7088C71.8575 38.6793 72.146 38.6644 72.4197 38.6644H74.9058C74.7504 38.8198 74.5136 38.9419 74.1955 39.0307C73.8847 39.1121 73.5444 39.175 73.1744 39.2194C72.8045 39.2564 72.4457 39.2933 72.0979 39.3303C71.7576 39.3599 71.4764 39.4007 71.2544 39.4524C70.8622 39.5412 70.5626 39.7114 70.3555 39.963C70.1557 40.2145 70.0595 40.5179 70.0669 40.873ZM71.5541 42.9817H73.685C73.7737 42.4934 73.8774 42.005 73.9957 41.5167C74.1215 41.0284 74.2325 40.5993 74.3287 40.2293C73.8774 40.6584 73.4149 41.1061 72.9414 41.5722C72.4752 42.031 72.0128 42.5007 71.5541 42.9817ZM81.8533 46.4999C81.5796 46.4999 81.3909 46.4222 81.2873 46.2668C81.1911 46.104 81.143 45.9079 81.143 45.6786C81.143 45.5602 81.1504 45.4381 81.1652 45.3123C81.1874 45.1792 81.2133 45.046 81.2429 44.9128C81.2651 44.7944 81.3095 44.6353 81.3761 44.4356C81.45 44.2284 81.5314 44.0065 81.6202 43.7697C81.7164 43.5329 81.8126 43.3035 81.9088 43.0816C82.0049 42.8522 82.0901 42.6561 82.1641 42.4934C82.0457 42.6783 81.894 42.904 81.709 43.1704C81.5315 43.4294 81.339 43.6993 81.1319 43.9805C80.9321 44.2617 80.7361 44.5281 80.5437 44.7796C80.3588 45.0238 80.1959 45.2235 80.0554 45.3789C79.7151 45.7489 79.3673 46.0264 79.0121 46.2113C78.657 46.3962 78.3314 46.4888 78.0355 46.4888C77.6359 46.4888 77.3252 46.3962 77.1032 46.2113C76.8813 46.0264 76.7703 45.7081 76.7703 45.2568C76.7703 45.0422 76.7962 44.7944 76.848 44.5133C76.8997 44.2247 76.9849 43.8991 77.1032 43.5366C77.2438 43.1 77.4177 42.6414 77.6248 42.1604C77.832 41.6721 78.0503 41.1949 78.2796 40.7287C78.5164 40.2552 78.7458 39.8187 78.9677 39.4191C78.9826 39.3896 79.0121 39.3341 79.0565 39.2527C79.1083 39.1712 79.149 39.1121 79.1786 39.0751C78.8901 39.0825 78.5793 39.1195 78.2463 39.1861C77.9208 39.2453 77.6064 39.3303 77.303 39.4413C77.0071 39.5523 76.7518 39.6818 76.5372 39.8298C76.3301 39.9778 76.1969 40.1405 76.1377 40.3181C76.1303 40.3403 76.1155 40.3514 76.0933 40.3514C76.0267 40.3514 75.9934 40.2996 75.9934 40.196C75.9934 40.1738 76.0008 40.1405 76.0156 40.0961C76.0895 39.9037 76.1747 39.7336 76.2709 39.5856C76.367 39.4376 76.4669 39.3119 76.5705 39.2083C76.8147 38.9567 77.0884 38.805 77.3918 38.7532C77.6952 38.694 78.017 38.6644 78.3573 38.6644H80.8766C80.7213 38.7828 80.5511 38.9752 80.3661 39.2416C80.1812 39.5079 79.9888 39.8113 79.789 40.1516C79.5966 40.4919 79.4117 40.8435 79.2341 41.206C79.0565 41.5611 78.8974 41.8941 78.7569 42.2048C78.6237 42.5082 78.5164 42.756 78.435 42.9484C78.3906 43.0594 78.3167 43.237 78.2131 43.4811C78.1169 43.7253 78.0281 43.9954 77.9467 44.2913C77.8653 44.5798 77.8246 44.8462 77.8246 45.0904C77.8246 45.2975 77.869 45.4677 77.9578 45.6009C78.0466 45.7341 78.1982 45.7969 78.4128 45.7896C78.6422 45.7822 78.9049 45.6712 79.2008 45.4566C79.4967 45.242 79.8075 44.9572 80.1331 44.602C80.4586 44.2469 80.7841 43.8585 81.1097 43.4367C81.4353 43.0076 81.7423 42.5784 82.0309 42.1493C82.3268 41.7128 82.5895 41.3096 82.8189 40.9396C83.0482 40.5623 83.2258 40.2515 83.3516 40.0073C83.6106 39.5339 83.8436 39.1934 84.0508 38.9863C84.2654 38.7717 84.5021 38.6644 84.761 38.6644H85.4491C85.2938 38.7828 85.1236 38.9826 84.9386 39.2638C84.7537 39.545 84.5724 39.8482 84.3948 40.1738C84.2172 40.4994 84.0619 40.7953 83.9287 41.0617C83.7363 41.4612 83.5402 41.8941 83.3405 42.3602C83.1407 42.8263 82.9631 43.2887 82.8078 43.7475C82.6524 44.2062 82.5377 44.6316 82.4637 45.0238C82.4415 45.1421 82.4304 45.2679 82.4304 45.4011C82.4304 45.5639 82.4563 45.7081 82.5081 45.834C82.5673 45.9523 82.6708 46.0115 82.8189 46.0115C82.9447 46.0115 83.0926 45.9634 83.2628 45.8672H83.2739C83.2887 45.8672 83.2998 45.8821 83.3072 45.9116C83.3145 45.9338 83.3109 45.9523 83.2961 45.9671C83.1555 46.1151 82.9447 46.2409 82.6635 46.3445C82.3823 46.4481 82.1123 46.4999 81.8533 46.4999ZM87.612 46.6552C87.3678 46.6552 87.2051 46.5702 87.1237 46.4C87.0423 46.2224 87.0016 46.0264 87.0016 45.8118C87.0016 45.6637 87.0127 45.5195 87.0349 45.3789C87.0571 45.2309 87.0793 45.1088 87.1015 45.0127C87.1607 44.7315 87.2569 44.3985 87.39 44.0138C87.5232 43.6217 87.6749 43.211 87.8451 42.7819C88.0226 42.3454 88.2076 41.9163 88.4 41.4945C88.5924 41.0654 88.7773 40.6659 88.9549 40.2959C89.1398 39.9186 89.3027 39.5967 89.4432 39.3303C89.273 39.3377 89.077 39.3377 88.855 39.3303C88.633 39.3155 88.4037 39.3082 88.1669 39.3082C87.76 39.3082 87.3567 39.3414 86.9572 39.408C86.565 39.4673 86.2432 39.6115 85.9917 39.8409C85.8733 39.9519 85.7882 40.0702 85.7364 40.196C85.6846 40.3218 85.6587 40.4475 85.6587 40.5734C85.6587 40.7139 85.6809 40.8508 85.7253 40.984C85.7327 40.9988 85.7364 41.0173 85.7364 41.0395C85.7364 41.1134 85.6994 41.1505 85.6254 41.1505C85.581 41.1505 85.5477 41.132 85.5255 41.095C85.4516 40.9766 85.3961 40.8582 85.3591 40.7398C85.3295 40.614 85.3147 40.4919 85.3147 40.3736C85.3147 40.1665 85.3517 39.9703 85.4256 39.7854C85.4996 39.6004 85.5884 39.4487 85.692 39.3303C85.951 39.027 86.3024 38.8272 86.7463 38.731C87.1903 38.6274 87.6527 38.5757 88.1336 38.5757C88.5036 38.5757 88.8624 38.5905 89.2102 38.6201C89.5653 38.6496 89.8798 38.6718 90.1535 38.6866C90.4125 38.7015 90.7344 38.7273 91.1191 38.7643C91.5038 38.7939 91.8775 38.8087 92.24 38.8087C92.5656 38.8087 92.8578 38.7865 93.1168 38.7421C93.3757 38.6977 93.5644 38.6163 93.6828 38.498C93.705 38.5424 93.7161 38.5941 93.7161 38.6534C93.7161 38.8087 93.6273 38.9604 93.4497 39.1084C93.2721 39.2564 93.0317 39.3563 92.7283 39.408C92.6322 39.4229 92.5212 39.434 92.3954 39.4413C92.277 39.4487 92.1512 39.4524 92.018 39.4524C91.7961 39.4524 91.5741 39.4487 91.3521 39.4413C91.1302 39.4265 90.9341 39.4118 90.7639 39.3969C90.5937 39.3821 90.4791 39.3785 90.4199 39.3858C90.3755 39.4524 90.3052 39.5745 90.209 39.7521C90.1202 39.9297 90.0241 40.1221 89.9204 40.3292C89.8168 40.5363 89.7244 40.725 89.643 40.8952C89.5024 41.1911 89.3544 41.5241 89.1991 41.8941C89.0437 42.264 88.8957 42.6376 88.7551 43.015C88.6146 43.3923 88.4925 43.7512 88.3889 44.0915C88.2927 44.4318 88.2298 44.7241 88.2002 44.9683C88.1928 44.9905 88.1891 45.0164 88.1891 45.046C88.1891 45.0682 88.1891 45.0904 88.1891 45.1126C88.1891 45.2531 88.215 45.3752 88.2668 45.4788C88.326 45.575 88.4148 45.6231 88.5332 45.6231C88.6368 45.6231 88.7625 45.5676 88.9105 45.4566C89.0585 45.3456 89.2286 45.1607 89.421 44.9017C89.4581 44.8573 89.4914 44.8351 89.5209 44.8351C89.5653 44.8351 89.5875 44.8721 89.5875 44.9461C89.5875 44.9978 89.569 45.0682 89.532 45.157C89.5025 45.2457 89.447 45.3494 89.3655 45.4677C89.2989 45.5639 89.1917 45.6934 89.0437 45.8561C88.8957 46.0115 88.7514 46.1447 88.6109 46.2557C88.485 46.3593 88.3297 46.4517 88.1447 46.5331C87.9598 46.6146 87.7822 46.6552 87.612 46.6552ZM94.6432 46.7662C94.0956 46.7662 93.6147 46.6848 93.2004 46.522C92.786 46.3667 92.4642 46.1114 92.2348 45.7563C92.0054 45.4011 91.8908 44.9276 91.8908 44.3357C91.8908 43.7437 91.9869 43.1666 92.1794 42.6043C92.3791 42.0346 92.6529 41.5056 93.0006 41.0173C93.3483 40.529 93.7553 40.0999 94.2214 39.7299C94.6949 39.3599 95.2055 39.0714 95.753 38.8642C96.3005 38.6571 96.8702 38.5535 97.4621 38.5535C98.1206 38.5535 98.657 38.6645 99.0714 38.8864C99.4857 39.1084 99.7891 39.4118 99.9815 39.7965C100.181 40.1738 100.281 40.5993 100.281 41.0728C100.281 41.7017 100.129 42.3602 99.8261 43.0483C99.5153 43.7512 99.1083 44.3838 98.6053 44.9461C98.1021 45.5084 97.5139 45.9523 96.8406 46.2779C96.1747 46.6035 95.4423 46.7662 94.6432 46.7662ZM95.6531 46.178C96.0896 46.0597 96.5188 45.8413 96.9405 45.5232C97.3623 45.2051 97.7432 44.824 98.0837 44.3801C98.424 43.9361 98.6941 43.47 98.8938 42.9817C99.2046 42.2344 99.36 41.5315 99.36 40.873C99.36 40.7694 99.3525 40.6695 99.3378 40.5734C99.3303 40.4772 99.3192 40.3847 99.3045 40.2959C99.223 39.8446 99.0344 39.5264 98.7384 39.3414C98.4424 39.1565 98.1095 39.064 97.7396 39.064C97.3548 39.064 96.9627 39.1417 96.5632 39.2971C96.1636 39.4451 95.8196 39.63 95.531 39.852C95.1759 40.1332 94.8466 40.455 94.5433 40.8175C94.2399 41.18 93.9846 41.5648 93.7775 41.9717C93.5999 42.3269 93.4557 42.7153 93.3447 43.1371C93.2411 43.5514 93.1893 43.9546 93.1893 44.3468C93.1893 44.7019 93.2411 45.0275 93.3447 45.3234C93.4482 45.6194 93.6184 45.8599 93.8552 46.0448C94.0919 46.2224 94.4064 46.3112 94.7986 46.3112C95.0501 46.3112 95.3349 46.2668 95.6531 46.178ZM108.008 46.4999C107.719 46.4999 107.524 46.4259 107.42 46.2779C107.317 46.1225 107.264 45.9301 107.264 45.7008C107.264 45.4936 107.295 45.2606 107.353 45.0016C107.42 44.6835 107.539 44.3061 107.708 43.8696C107.886 43.433 108.083 42.978 108.297 42.5045C108.518 42.0235 108.737 41.5648 108.951 41.1283C109.173 40.6917 109.366 40.3181 109.528 40.0073C109.433 40.0961 109.333 40.1887 109.229 40.2848C109.133 40.381 109.033 40.4883 108.929 40.6067C108.5 41.0876 108.108 41.5463 107.753 41.9828C107.406 42.4119 107.069 42.8374 106.743 43.2591C106.425 43.6735 106.096 44.0989 105.755 44.5354C105.57 44.7796 105.422 44.9646 105.311 45.0904C105.208 45.2087 105.111 45.2901 105.023 45.3345C104.942 45.3716 104.838 45.39 104.712 45.39C104.527 45.39 104.316 45.3345 104.079 45.2235C104.183 45.0977 104.254 44.8277 104.29 44.4134C104.334 43.999 104.357 43.5255 104.357 42.9928C104.357 42.4527 104.338 41.8941 104.301 41.3169C104.265 40.7398 104.209 40.2293 104.135 39.7854C104.09 39.8593 104.01 40.0222 103.89 40.2737C103.779 40.5252 103.643 40.836 103.48 41.206C103.324 41.5685 103.158 41.9644 102.98 42.3935C102.803 42.8152 102.629 43.2407 102.459 43.6698C102.296 44.0915 102.148 44.4911 102.015 44.8684C101.89 45.2457 101.793 45.5713 101.726 45.845C101.66 46.1188 101.638 46.3074 101.66 46.4111H100.639C100.802 45.9967 100.987 45.538 101.194 45.0349C101.408 44.5244 101.63 44.0027 101.859 43.47C102.09 42.9373 102.315 42.4194 102.536 41.9163C102.767 41.4131 102.973 40.9544 103.158 40.5401C103.351 40.1183 103.51 39.7705 103.635 39.4968C103.761 39.2231 103.843 39.0529 103.879 38.9863C103.555 38.9789 103.222 39.0122 102.881 39.0862C102.541 39.1528 102.223 39.2489 101.926 39.3747C101.63 39.5006 101.379 39.6448 101.172 39.8076C100.972 39.9703 100.842 40.1405 100.783 40.3181C100.776 40.3403 100.761 40.3514 100.739 40.3514C100.68 40.3514 100.65 40.3033 100.65 40.2071C100.65 40.1923 100.65 40.1776 100.65 40.1627C100.657 40.1405 100.665 40.1183 100.672 40.0961C100.739 39.9037 100.82 39.7336 100.916 39.5856C101.02 39.4376 101.12 39.3119 101.216 39.2083C101.46 38.9567 101.734 38.805 102.037 38.7532C102.341 38.694 102.663 38.6644 103.003 38.6644H104.079C104.243 38.6644 104.401 38.6644 104.556 38.6644C104.712 38.6644 104.849 38.7051 104.967 38.7865C105.086 38.8605 105.164 39.0085 105.2 39.2305C105.23 39.3858 105.256 39.6226 105.278 39.9408C105.308 40.2515 105.33 40.5993 105.344 40.984C105.367 41.3687 105.386 41.7498 105.4 42.1271C105.415 42.5045 105.426 42.83 105.433 43.1038C105.433 43.1186 105.433 43.163 105.433 43.2369C105.441 43.3035 105.444 43.3886 105.444 43.4922C105.444 43.5884 105.441 43.6993 105.433 43.8252C105.433 43.9435 105.426 44.0582 105.411 44.1692C105.566 43.9768 105.759 43.7401 105.988 43.4589C106.225 43.1704 106.48 42.8596 106.754 42.5267C107.028 42.1863 107.306 41.8459 107.586 41.5056C107.868 41.1653 108.138 40.8397 108.396 40.529C108.656 40.2182 108.882 39.9481 109.073 39.7188C109.273 39.482 109.421 39.3044 109.517 39.1861C109.688 38.9937 109.903 38.8605 110.161 38.7865C110.42 38.7051 110.68 38.6644 110.938 38.6644H111.626C111.471 38.7828 111.301 38.9826 111.115 39.2638C110.931 39.545 110.749 39.8482 110.572 40.1738C110.402 40.4994 110.25 40.7953 110.117 41.0617C109.925 41.4612 109.728 41.8941 109.528 42.3602C109.329 42.8263 109.151 43.2887 108.996 43.7475C108.84 44.2062 108.726 44.6316 108.652 45.0238C108.629 45.1421 108.618 45.2679 108.618 45.4011C108.618 45.5639 108.645 45.7081 108.696 45.834C108.756 45.9523 108.859 46.0115 109.007 46.0115C109.126 46.0115 109.27 45.9634 109.44 45.8672H109.451C109.466 45.8672 109.477 45.8821 109.484 45.9116C109.492 45.9338 109.488 45.9523 109.473 45.9671C109.333 46.1151 109.118 46.2409 108.829 46.3445C108.541 46.4481 108.267 46.4999 108.008 46.4999ZM113.437 46.7662C112.889 46.7662 112.408 46.6848 111.994 46.522C111.58 46.3667 111.258 46.1114 111.029 45.7563C110.799 45.4011 110.685 44.9276 110.685 44.3357C110.685 43.7437 110.781 43.1666 110.973 42.6043C111.173 42.0346 111.446 41.5056 111.794 41.0173C112.142 40.529 112.549 40.0999 113.015 39.7299C113.488 39.3599 113.999 39.0714 114.547 38.8642C115.094 38.6571 115.664 38.5535 116.256 38.5535C116.914 38.5535 117.451 38.6645 117.865 38.8864C118.279 39.1084 118.583 39.4118 118.775 39.7965C118.975 40.1738 119.075 40.5993 119.075 41.0728C119.075 41.7017 118.923 42.3602 118.62 43.0483C118.309 43.7512 117.902 44.3838 117.399 44.9461C116.896 45.5084 116.307 45.9523 115.635 46.2779C114.969 46.6035 114.236 46.7662 113.437 46.7662ZM114.447 46.178C114.883 46.0597 115.313 45.8413 115.734 45.5232C116.156 45.2051 116.536 44.824 116.878 44.3801C117.218 43.9361 117.488 43.47 117.688 42.9817C117.998 42.2344 118.154 41.5315 118.154 40.873C118.154 40.7694 118.146 40.6695 118.132 40.5734C118.124 40.4772 118.112 40.3847 118.098 40.2959C118.017 39.8446 117.828 39.5264 117.532 39.3414C117.236 39.1565 116.903 39.064 116.533 39.064C116.148 39.064 115.757 39.1417 115.357 39.2971C114.958 39.4451 114.613 39.63 114.325 39.852C113.97 40.1332 113.64 40.455 113.337 40.8175C113.033 41.18 112.778 41.5648 112.571 41.9717C112.394 42.3269 112.25 42.7153 112.139 43.1371C112.035 43.5514 111.983 43.9546 111.983 44.3468C111.983 44.7019 112.035 45.0275 112.139 45.3234C112.241 45.6194 112.412 45.8599 112.649 46.0448C112.885 46.2224 113.2 46.3112 113.592 46.3112C113.844 46.3112 114.128 46.2668 114.447 46.178ZM121.861 46.6552C121.616 46.6552 121.454 46.5702 121.372 46.4C121.291 46.2224 121.25 46.0264 121.25 45.8118C121.25 45.6637 121.261 45.5195 121.284 45.3789C121.306 45.2309 121.328 45.1088 121.35 45.0127C121.41 44.7315 121.505 44.3985 121.639 44.0138C121.772 43.6217 121.923 43.211 122.094 42.7819C122.271 42.3454 122.456 41.9163 122.649 41.4945C122.841 41.0654 123.026 40.6659 123.204 40.2959C123.388 39.9186 123.552 39.5967 123.692 39.3303C123.521 39.3377 123.326 39.3377 123.104 39.3303C122.882 39.3155 122.653 39.3082 122.416 39.3082C122.009 39.3082 121.605 39.3414 121.206 39.408C120.813 39.4673 120.492 39.6115 120.24 39.8409C120.122 39.9519 120.036 40.0702 119.985 40.196C119.934 40.3218 119.907 40.4475 119.907 40.5734C119.907 40.7139 119.93 40.8508 119.974 40.984C119.981 40.9988 119.985 41.0173 119.985 41.0395C119.985 41.1134 119.948 41.1505 119.874 41.1505C119.83 41.1505 119.796 41.132 119.774 41.095C119.701 40.9766 119.645 40.8582 119.608 40.7398C119.578 40.614 119.563 40.4919 119.563 40.3736C119.563 40.1665 119.601 39.9703 119.674 39.7854C119.748 39.6004 119.837 39.4487 119.941 39.3303C120.2 39.027 120.551 38.8272 120.995 38.731C121.439 38.6274 121.901 38.5757 122.382 38.5757C122.753 38.5757 123.111 38.5905 123.459 38.6201C123.814 38.6496 124.129 38.6718 124.402 38.6866C124.661 38.7015 124.983 38.7273 125.368 38.7643C125.752 38.7939 126.126 38.8087 126.489 38.8087C126.815 38.8087 127.106 38.7865 127.365 38.7421C127.625 38.6977 127.813 38.6163 127.931 38.498C127.954 38.5424 127.965 38.5941 127.965 38.6534C127.965 38.8087 127.876 38.9604 127.698 39.1084C127.521 39.2564 127.281 39.3563 126.977 39.408C126.881 39.4229 126.77 39.434 126.644 39.4413C126.526 39.4487 126.4 39.4524 126.267 39.4524C126.045 39.4524 125.823 39.4487 125.601 39.4413C125.379 39.4265 125.183 39.4118 125.013 39.3969C124.842 39.3821 124.728 39.3785 124.669 39.3858C124.624 39.4524 124.553 39.5745 124.458 39.7521C124.369 39.9297 124.273 40.1221 124.169 40.3292C124.065 40.5363 123.973 40.725 123.892 40.8952C123.751 41.1911 123.603 41.5241 123.448 41.8941C123.292 42.264 123.144 42.6376 123.004 43.015C122.864 43.3923 122.741 43.7512 122.638 44.0915C122.542 44.4318 122.478 44.7241 122.449 44.9683C122.442 44.9905 122.438 45.0164 122.438 45.046C122.438 45.0682 122.438 45.0904 122.438 45.1126C122.438 45.2531 122.464 45.3752 122.515 45.4788C122.575 45.575 122.664 45.6231 122.782 45.6231C122.886 45.6231 123.011 45.5676 123.159 45.4566C123.307 45.3456 123.477 45.1607 123.67 44.9017C123.707 44.8573 123.74 44.8351 123.77 44.8351C123.814 44.8351 123.836 44.8721 123.836 44.9461C123.836 44.9978 123.818 45.0682 123.781 45.157C123.751 45.2457 123.696 45.3494 123.614 45.4677C123.548 45.5639 123.441 45.6934 123.292 45.8561C123.144 46.0115 123 46.1447 122.859 46.2557C122.733 46.3593 122.578 46.4517 122.393 46.5331C122.209 46.6146 122.031 46.6552 121.861 46.6552ZM127.637 46.4111C127.726 46.0411 127.844 45.6304 127.992 45.1792C128.147 44.7204 128.321 44.2432 128.514 43.7475C128.713 43.2518 128.917 42.7597 129.124 42.2714C129.331 41.7831 129.531 41.3169 129.723 40.873C129.916 40.4217 130.138 39.9667 130.389 39.5079C130.441 39.4191 130.485 39.3377 130.522 39.2638C130.567 39.1898 130.615 39.1268 130.667 39.0751C130.378 39.0825 130.067 39.1195 129.734 39.1861C129.408 39.2453 129.095 39.3303 128.791 39.4413C128.495 39.5523 128.24 39.6818 128.025 39.8298C127.818 39.9778 127.685 40.1405 127.626 40.3181C127.619 40.3403 127.604 40.3514 127.581 40.3514C127.515 40.3514 127.481 40.2996 127.481 40.196C127.481 40.1738 127.488 40.1405 127.504 40.0961C127.57 39.9037 127.652 39.7336 127.748 39.5856C127.852 39.4376 127.955 39.3119 128.059 39.2083C128.303 38.9567 128.576 38.805 128.88 38.7532C129.184 38.694 129.505 38.6644 129.845 38.6644H132.354C132.176 38.7976 131.987 39.0159 131.788 39.3193C131.588 39.6152 131.392 39.9481 131.199 40.3181C131.007 40.6881 130.826 41.0506 130.656 41.4057C130.493 41.7609 130.356 42.0605 130.245 42.3047C130.193 42.423 130.119 42.6043 130.023 42.8485C129.927 43.0853 129.819 43.3553 129.701 43.6587C129.59 43.9621 129.483 44.2765 129.379 44.602C129.275 44.9202 129.191 45.2162 129.124 45.4899C129.057 45.7636 129.024 45.9893 129.024 46.1669C129.024 46.2187 129.028 46.2668 129.035 46.3112C129.05 46.3482 129.061 46.3815 129.068 46.4111H127.637ZM132.968 46.4111C133.057 46.2409 133.116 46.0264 133.146 45.7674C133.183 45.5084 133.205 45.2346 133.212 44.9461C133.227 44.6502 133.242 44.3652 133.257 44.0915C133.272 43.8325 133.283 43.5662 133.29 43.2924C133.298 43.0187 133.301 42.7413 133.301 42.4601C133.301 42.0679 133.287 41.6832 133.257 41.3058C133.234 40.9211 133.19 40.5696 133.123 40.2515C133.094 40.0813 133.035 39.9186 132.946 39.7632C132.865 39.6078 132.761 39.5301 132.635 39.5301C132.568 39.5301 132.495 39.5597 132.413 39.6189C132.339 39.6707 132.255 39.7705 132.158 39.9186C132.151 39.9334 132.136 39.9297 132.113 39.9075C132.099 39.8853 132.095 39.8668 132.102 39.852C132.162 39.667 132.28 39.4673 132.458 39.2527C132.635 39.0381 132.824 38.8605 133.024 38.7199C133.127 38.646 133.22 38.5941 133.301 38.5646C133.39 38.535 133.471 38.5202 133.545 38.5202C133.767 38.5202 133.938 38.6349 134.056 38.8642C134.175 39.0862 134.259 39.3377 134.311 39.6189C134.363 39.9001 134.397 40.2404 134.411 40.6399C134.433 41.0321 134.444 41.4428 134.444 41.8719C134.444 42.3232 134.437 42.7708 134.422 43.2148C134.408 43.6587 134.389 44.0545 134.366 44.4023C134.344 44.7501 134.326 45.0089 134.311 45.1792C134.563 44.8314 134.837 44.4207 135.132 43.9472C135.429 43.4737 135.728 42.978 136.031 42.4601C136.342 41.9422 136.634 41.439 136.908 40.9507C137.182 40.455 137.422 40.0073 137.629 39.6078C137.844 39.2083 138 38.8938 138.095 38.6644H139.094C138.983 38.842 138.806 39.1232 138.562 39.5079C138.317 39.8853 138.033 40.3218 137.707 40.8175C137.389 41.3132 137.052 41.8348 136.697 42.3824C136.342 42.9225 135.998 43.4516 135.665 43.9694C135.332 44.48 135.036 44.935 134.777 45.3345C134.637 45.5639 134.488 45.7896 134.333 46.0115C134.186 46.2261 134 46.3556 133.778 46.4C133.756 46.4073 133.723 46.4111 133.678 46.4111H132.968ZM139.54 46.4111C139.422 46.4111 139.333 46.3629 139.274 46.2668C139.222 46.1706 139.196 46.0448 139.196 45.8894C139.196 45.6748 139.229 45.4233 139.296 45.1348C139.37 44.8462 139.459 44.5466 139.562 44.2358C139.673 43.925 139.784 43.6291 139.895 43.3479C140.006 43.0594 140.102 42.8152 140.184 42.6154H139.574C139.514 42.6154 139.485 42.5932 139.485 42.5489C139.485 42.5045 139.518 42.4452 139.585 42.3713C139.651 42.2899 139.729 42.2196 139.818 42.1604C139.906 42.1012 139.98 42.0716 140.04 42.0716H140.417C140.602 41.6351 140.776 41.2282 140.939 40.8508C141.101 40.4661 141.305 40.0591 141.549 39.63C141.609 39.5264 141.664 39.4302 141.715 39.3414C141.767 39.2453 141.826 39.1601 141.893 39.0862C141.494 39.1379 141.083 39.2156 140.661 39.3193C140.246 39.4229 139.877 39.556 139.551 39.7188C139.225 39.8815 138.996 40.0739 138.863 40.2959C138.856 40.3181 138.841 40.3292 138.819 40.3292C138.804 40.3292 138.793 40.3144 138.786 40.2848C138.77 40.2552 138.767 40.2219 138.774 40.1849C138.848 39.9925 138.941 39.8076 139.052 39.63C139.163 39.4524 139.27 39.3119 139.374 39.2083C139.536 39.0381 139.758 38.916 140.04 38.842C140.321 38.7681 140.61 38.7199 140.905 38.6977C141.209 38.6755 141.467 38.6644 141.682 38.6644H143.88C144.139 38.6644 144.368 38.6571 144.568 38.6423C144.775 38.6201 144.949 38.609 145.089 38.609C145.318 38.609 145.452 38.6645 145.489 38.7754C145.496 38.805 145.5 38.8347 145.5 38.8642C145.507 38.8864 145.511 38.916 145.511 38.953C145.511 39.101 145.478 39.2711 145.411 39.4635C145.345 39.6485 145.271 39.8298 145.189 40.0073C145.116 40.1776 145.056 40.3181 145.012 40.4291C145.005 40.4661 144.982 40.4919 144.945 40.5068C144.916 40.5216 144.886 40.529 144.856 40.529C144.819 40.529 144.786 40.5216 144.756 40.5068C144.734 40.4919 144.727 40.4439 144.734 40.3625C144.749 40.2737 144.768 40.1738 144.79 40.0628C144.812 39.9519 144.823 39.8557 144.823 39.7743C144.823 39.5375 144.727 39.3563 144.534 39.2305C144.35 39.0973 144.117 39.0307 143.835 39.0307C143.628 39.0307 143.458 39.0492 143.325 39.0862C143.192 39.1158 143.085 39.1934 143.003 39.3193C142.707 39.7558 142.437 40.2034 142.193 40.6621C141.956 41.1209 141.734 41.5907 141.527 42.0716H144.423C144.446 42.0716 144.431 42.116 144.379 42.2048C144.335 42.2936 144.275 42.3861 144.202 42.4823C144.135 42.5711 144.075 42.6154 144.024 42.6154H141.283C141.201 42.8226 141.105 43.0742 140.994 43.3701C140.883 43.6661 140.779 43.9583 140.683 44.2469C140.595 44.5355 140.524 44.7833 140.472 44.9905C140.428 45.1681 140.406 45.3272 140.406 45.4677C140.406 45.6526 140.461 45.7933 140.572 45.8894C140.69 45.9856 140.894 46.0337 141.183 46.0337C141.582 46.0337 141.982 46.0189 142.381 45.9893C142.781 45.9523 143.173 45.8783 143.558 45.7674C143.891 45.6712 144.186 45.5417 144.446 45.3789C144.712 45.2162 144.905 45.0127 145.023 44.7685C145.038 44.739 145.06 44.7241 145.089 44.7241C145.141 44.7241 145.167 44.7648 145.167 44.8462C145.167 44.861 145.163 44.8795 145.156 44.9017C145.156 44.9239 145.152 44.9498 145.145 44.9794C145.085 45.1718 145.016 45.3419 144.934 45.4899C144.852 45.6379 144.768 45.7636 144.679 45.8672C144.472 46.1188 144.206 46.2742 143.88 46.3334C143.554 46.3851 143.229 46.4111 142.903 46.4111H139.54ZM151.017 46.6774C150.395 46.5738 149.94 46.3038 149.652 45.8672C149.371 45.4307 149.23 44.9128 149.23 44.3135C149.23 43.8769 149.301 43.4219 149.441 42.9484C149.582 42.4674 149.782 41.9977 150.04 41.5389C150.307 41.0801 150.625 40.6548 150.995 40.2626C151.365 39.8631 151.783 39.5228 152.249 39.2416C152.715 38.9604 153.222 38.7643 153.769 38.6534C154.102 38.5868 154.421 38.5535 154.724 38.5535C155.316 38.5535 155.789 38.6718 156.144 38.9086C156.499 39.1379 156.677 39.434 156.677 39.7965C156.677 39.8704 156.67 39.9445 156.655 40.0184C156.648 40.085 156.626 40.159 156.588 40.2404C156.508 40.455 156.37 40.6473 156.178 40.8175C155.993 40.9803 155.778 41.1061 155.534 41.1949C155.298 41.2837 155.054 41.3207 154.801 41.3058C154.683 41.291 154.579 41.2504 154.491 41.1838C154.41 41.1098 154.369 41.021 154.369 40.9174C154.369 40.8138 154.413 40.7028 154.502 40.5845C154.583 40.614 154.676 40.6289 154.779 40.6289C154.965 40.6289 155.145 40.5845 155.323 40.4957C155.501 40.4069 155.649 40.2848 155.767 40.1294C155.886 39.974 155.945 39.8002 155.945 39.6078C155.945 39.3488 155.856 39.1787 155.678 39.0973C155.501 39.0085 155.301 38.9641 155.079 38.9641C154.932 38.9641 154.783 38.9789 154.635 39.0085C154.495 39.0307 154.38 39.0529 154.291 39.0751C153.869 39.1861 153.436 39.3896 152.992 39.6855C152.557 39.974 152.157 40.3292 151.794 40.7509C151.432 41.1653 151.15 41.6203 150.95 42.116C150.803 42.4785 150.688 42.8448 150.606 43.2148C150.526 43.5847 150.484 43.9361 150.484 44.2691C150.484 44.6982 150.555 45.0755 150.695 45.4011C150.843 45.7267 151.076 45.9523 151.394 46.0781C151.683 46.1891 151.979 46.2446 152.282 46.2446C152.77 46.2446 153.263 46.1262 153.758 45.8894C154.262 45.6526 154.724 45.353 155.145 44.9905C155.405 44.7611 155.638 44.5244 155.845 44.2802C156.052 44.036 156.211 43.777 156.322 43.5033C156.463 43.5921 156.533 43.7215 156.533 43.8917C156.533 44.0249 156.492 44.1692 156.411 44.3246C156.337 44.48 156.248 44.6242 156.144 44.7574C156.048 44.8906 155.964 44.9942 155.889 45.0682C155.371 45.6083 154.75 46.0226 154.025 46.3112C153.307 46.5997 152.579 46.744 151.838 46.744C151.558 46.744 151.283 46.7218 151.017 46.6774ZM162.577 46.4999C162.296 46.4999 162.082 46.4259 161.934 46.2779C161.785 46.1299 161.685 45.9412 161.634 45.7119C161.582 45.4825 161.549 45.2457 161.534 45.0016C161.534 44.861 161.541 44.6946 161.556 44.5022C161.571 44.3098 161.59 44.1248 161.612 43.9472C161.641 43.7623 161.663 43.6254 161.678 43.5366H159.137C158.664 44.0323 158.212 44.517 157.783 44.9905C157.361 45.4566 156.946 45.9301 156.54 46.4111H155.43C155.623 46.2335 155.874 45.9967 156.185 45.7008C156.502 45.3974 156.862 45.0533 157.261 44.6686C157.661 44.2839 158.075 43.8769 158.504 43.4478C158.941 43.0113 159.377 42.5748 159.814 42.1382C160.251 41.6943 160.661 41.2688 161.046 40.8619C161.438 40.4475 161.785 40.0739 162.089 39.741C162.237 39.5782 162.373 39.4154 162.5 39.2527C162.633 39.0825 162.781 38.9419 162.944 38.8309C163.106 38.7199 163.306 38.6644 163.543 38.6644H164.342C164.216 38.7828 164.091 38.9826 163.965 39.2638C163.838 39.545 163.724 39.8482 163.621 40.1738C163.525 40.4994 163.443 40.7953 163.376 41.0617C163.28 41.4612 163.181 41.8941 163.077 42.3602C162.981 42.8263 162.903 43.2887 162.844 43.7475C162.784 44.2062 162.766 44.6316 162.788 45.0238C162.795 45.1643 162.821 45.3123 162.866 45.4677C162.917 45.6157 162.988 45.7452 163.077 45.8561C163.173 45.9598 163.292 46.0115 163.432 46.0115C163.558 46.0115 163.694 45.9634 163.842 45.8672L163.909 45.9671C163.813 46.1151 163.628 46.2409 163.354 46.3445C163.088 46.4481 162.828 46.4999 162.577 46.4999ZM158.138 40.873C158.02 40.7472 157.931 40.6178 157.872 40.4846C157.82 40.3514 157.794 40.2256 157.794 40.1072C157.794 39.9592 157.823 39.8187 157.883 39.6855C157.949 39.5449 158.027 39.4265 158.116 39.3303C158.293 39.1306 158.515 38.9826 158.782 38.8864C159.048 38.7903 159.329 38.731 159.625 38.7088C159.929 38.6793 160.217 38.6644 160.491 38.6644H162.977C162.821 38.8198 162.584 38.9419 162.267 39.0307C161.956 39.1121 161.616 39.175 161.245 39.2194C160.875 39.2564 160.517 39.2933 160.169 39.3303C159.829 39.3599 159.547 39.4007 159.325 39.4524C158.933 39.5412 158.633 39.7114 158.427 39.963C158.227 40.2145 158.131 40.5179 158.138 40.873ZM159.625 42.9817H161.756C161.845 42.4934 161.949 42.005 162.067 41.5167C162.193 41.0284 162.304 40.5993 162.4 40.2293C161.949 40.6584 161.486 41.1061 161.012 41.5722C160.546 42.031 160.084 42.5007 159.625 42.9817ZM164.373 46.4111C164.462 46.0411 164.58 45.6304 164.728 45.1792C164.884 44.7204 165.057 44.2432 165.25 43.7475C165.45 43.2518 165.654 42.7597 165.86 42.2714C166.067 41.7831 166.267 41.3169 166.46 40.873C166.652 40.4217 166.874 39.9667 167.126 39.5079C167.177 39.4191 167.221 39.3377 167.259 39.2638C167.303 39.1898 167.352 39.1268 167.403 39.0751C167.114 39.0825 166.804 39.1195 166.471 39.1861C166.145 39.2453 165.831 39.3303 165.527 39.4413C165.232 39.5523 164.977 39.6818 164.762 39.8298C164.555 39.9778 164.422 40.1405 164.362 40.3181C164.355 40.3403 164.34 40.3514 164.318 40.3514C164.251 40.3514 164.218 40.2996 164.218 40.196C164.218 40.1738 164.225 40.1405 164.24 40.0961C164.307 39.9037 164.388 39.7336 164.484 39.5856C164.588 39.4376 164.691 39.3119 164.795 39.2083C165.039 38.9567 165.312 38.805 165.616 38.7532C165.92 38.694 166.242 38.6644 166.582 38.6644H169.279C169.589 38.6644 169.867 38.6977 170.111 38.7643C170.355 38.8236 170.559 38.9086 170.721 39.0196C170.936 39.1601 171.092 39.3341 171.188 39.5412C171.283 39.741 171.332 39.9519 171.332 40.1738C171.332 40.5141 171.258 40.8175 171.11 41.0839C170.962 41.3502 170.766 41.5796 170.522 41.772C170.285 41.9644 170.018 42.1198 169.723 42.2381C169.427 42.3564 169.127 42.4452 168.824 42.5045L168.468 42.5711C168.646 43.1704 168.872 43.7104 169.145 44.1914C169.419 44.6724 169.704 45.0941 170 45.4566C170.296 45.8191 170.562 46.1299 170.799 46.3889C170.688 46.4111 170.518 46.4222 170.289 46.4222C170.089 46.4222 169.896 46.4184 169.711 46.4111C169.527 46.3962 169.434 46.3889 169.434 46.3889C169.249 46.3889 169.068 46.289 168.89 46.0892C168.713 45.8894 168.542 45.6342 168.38 45.3234C168.217 45.0053 168.069 44.676 167.936 44.3357C167.81 43.9879 167.703 43.6661 167.614 43.3701C167.532 43.0742 167.477 42.8448 167.447 42.682C167.447 42.6598 167.443 42.6376 167.436 42.6154C167.436 42.5932 167.436 42.5673 167.436 42.5378C167.436 42.4934 167.443 42.4563 167.459 42.4268C167.481 42.3897 167.521 42.3676 167.581 42.3602C167.951 42.3158 168.287 42.2492 168.591 42.1604C168.894 42.0643 169.172 41.9347 169.423 41.772C169.674 41.6018 169.878 41.3946 170.033 41.1505C170.189 40.8989 170.266 40.6029 170.266 40.2626C170.266 39.9889 170.189 39.741 170.033 39.519C169.885 39.2897 169.645 39.1379 169.312 39.064C169.223 39.0418 169.127 39.027 169.023 39.0196C168.928 39.0122 168.828 39.0048 168.724 38.9974C168.561 39.2194 168.391 39.4857 168.213 39.7965C168.036 40.1072 167.862 40.4364 167.692 40.7842C167.521 41.1245 167.359 41.465 167.203 41.8053C167.055 42.1382 166.922 42.4452 166.804 42.7264C166.744 42.8818 166.655 43.1075 166.537 43.4034C166.426 43.6993 166.311 44.0212 166.193 44.369C166.075 44.7168 165.971 45.0533 165.883 45.3789C165.801 45.697 165.76 45.9598 165.76 46.1669C165.76 46.2779 165.776 46.3593 165.805 46.4111H164.373ZM175.962 46.5442C175.747 46.5072 175.547 46.4555 175.363 46.3889C175.177 46.3149 175.018 46.2224 174.885 46.1114C174.788 46.0226 174.719 45.919 174.674 45.8007C174.63 45.6748 174.608 45.5417 174.608 45.4011C174.608 45.1643 174.648 44.9202 174.73 44.6686C174.811 44.4096 174.881 44.1877 174.941 44.0027C175.081 43.5884 175.247 43.1482 175.44 42.682C175.64 42.2159 175.84 41.7646 176.04 41.328C176.246 40.8915 176.431 40.503 176.594 40.1627C176.757 39.8224 176.879 39.5745 176.961 39.4191C176.99 39.3599 177.016 39.3044 177.038 39.2527C177.068 39.2009 177.097 39.1528 177.127 39.1084C177.052 39.1157 176.983 39.1268 176.916 39.1417C176.85 39.149 176.786 39.1565 176.728 39.1639C176.402 39.2083 176.062 39.2822 175.707 39.3858C175.358 39.482 175.044 39.6041 174.763 39.7521C174.482 39.9001 174.278 40.0813 174.153 40.2959C174.145 40.3181 174.131 40.3292 174.108 40.3292C174.093 40.3292 174.082 40.3144 174.075 40.2848C174.06 40.2552 174.056 40.2219 174.064 40.1849C174.138 39.9925 174.23 39.8076 174.341 39.63C174.452 39.4524 174.559 39.3119 174.663 39.2083C174.826 39.0381 175.048 38.916 175.329 38.842C175.61 38.7681 175.898 38.7199 176.195 38.6977C176.498 38.6755 176.757 38.6644 176.972 38.6644H179.247C179.994 38.6644 180.593 38.805 181.045 39.0862C181.503 39.3674 181.836 39.7373 182.044 40.196C182.251 40.6548 182.354 41.1505 182.354 41.6832C182.354 41.809 182.35 41.9347 182.343 42.0605C182.335 42.1863 182.321 42.3121 182.299 42.4379C182.188 43.1111 181.969 43.7104 181.644 44.2358C181.325 44.7537 180.93 45.1902 180.457 45.5454C179.982 45.9005 179.45 46.1706 178.858 46.3556C178.273 46.5331 177.66 46.6219 177.016 46.6219C176.846 46.6219 176.672 46.6146 176.495 46.5997C176.317 46.5924 176.139 46.5738 175.962 46.5442ZM176.239 46.1114C176.335 46.1188 176.431 46.1299 176.528 46.1447C176.624 46.1521 176.72 46.1558 176.816 46.1558C177.341 46.1558 177.837 46.0633 178.304 45.8783C178.777 45.6934 179.203 45.4344 179.58 45.1015C179.964 44.7685 180.29 44.3838 180.557 43.9472C180.823 43.5107 181.015 43.0372 181.134 42.5267C181.214 42.1863 181.256 41.8608 181.256 41.55C181.256 41.2171 181.203 40.8989 181.1 40.5956C181.003 40.2848 180.845 40.0073 180.623 39.7632C180.423 39.5412 180.157 39.371 179.824 39.2527C179.491 39.1268 179.183 39.0529 178.903 39.0307C178.836 39.0233 178.77 39.0196 178.703 39.0196C178.637 39.0122 178.57 39.0085 178.503 39.0085C178.37 39.1861 178.233 39.3969 178.093 39.6411C177.951 39.8779 177.815 40.1221 177.682 40.3736C177.556 40.6251 177.445 40.8546 177.349 41.0617C177.097 41.6018 176.861 42.142 176.639 42.682C176.417 43.2221 176.217 43.7734 176.04 44.3357C175.987 44.4984 175.936 44.6835 175.884 44.8906C175.832 45.0977 175.806 45.2901 175.806 45.4677C175.806 45.6304 175.836 45.7747 175.895 45.9005C175.962 46.0189 176.076 46.0892 176.239 46.1114ZM183.154 46.4111C183.034 46.4111 182.946 46.3629 182.887 46.2668C182.835 46.1706 182.809 46.0448 182.809 45.8894C182.809 45.6748 182.843 45.4233 182.909 45.1348C182.983 44.8462 183.072 44.5466 183.176 44.2358C183.287 43.925 183.398 43.6291 183.509 43.3479C183.62 43.0594 183.715 42.8152 183.797 42.6154H183.187C183.127 42.6154 183.098 42.5932 183.098 42.5489C183.098 42.5045 183.131 42.4452 183.198 42.3713C183.265 42.2899 183.342 42.2196 183.431 42.1604C183.52 42.1012 183.593 42.0716 183.653 42.0716H184.03C184.215 41.6351 184.388 41.2282 184.552 40.8508C184.714 40.4661 184.918 40.0591 185.162 39.63C185.221 39.5264 185.276 39.4302 185.329 39.3414C185.38 39.2453 185.44 39.1601 185.506 39.0862C185.107 39.1379 184.696 39.2156 184.274 39.3193C183.86 39.4229 183.489 39.556 183.165 39.7188C182.839 39.8815 182.61 40.0739 182.477 40.2959C182.468 40.3181 182.454 40.3292 182.432 40.3292C182.417 40.3292 182.406 40.3144 182.399 40.2848C182.384 40.2552 182.38 40.2219 182.388 40.1849C182.461 39.9925 182.554 39.8076 182.665 39.63C182.776 39.4524 182.883 39.3119 182.987 39.2083C183.149 39.0381 183.371 38.916 183.653 38.842C183.933 38.7681 184.222 38.7199 184.519 38.6977C184.821 38.6755 185.081 38.6644 185.295 38.6644H187.493C187.751 38.6644 187.981 38.6571 188.181 38.6423C188.388 38.6201 188.561 38.609 188.703 38.609C188.932 38.609 189.065 38.6645 189.102 38.7754C189.109 38.805 189.113 38.8347 189.113 38.8642C189.12 38.8864 189.124 38.916 189.124 38.953C189.124 39.101 189.091 39.2711 189.025 39.4635C188.958 39.6485 188.883 39.8298 188.803 40.0073C188.728 40.1776 188.669 40.3181 188.625 40.4291C188.617 40.4661 188.595 40.4919 188.558 40.5068C188.528 40.5216 188.499 40.529 188.47 40.529C188.432 40.529 188.399 40.5216 188.37 40.5068C188.348 40.4919 188.339 40.4439 188.348 40.3625C188.362 40.2737 188.381 40.1738 188.403 40.0628C188.425 39.9519 188.436 39.8557 188.436 39.7743C188.436 39.5375 188.339 39.3563 188.148 39.2305C187.962 39.0973 187.729 39.0307 187.449 39.0307C187.241 39.0307 187.071 39.0492 186.938 39.0862C186.805 39.1158 186.697 39.1934 186.616 39.3193C186.32 39.7558 186.05 40.2034 185.806 40.6621C185.569 41.1209 185.347 41.5907 185.14 42.0716H188.037C188.059 42.0716 188.044 42.116 187.992 42.2048C187.948 42.2936 187.888 42.3861 187.815 42.4823C187.748 42.5711 187.689 42.6154 187.637 42.6154H184.896C184.814 42.8226 184.718 43.0742 184.607 43.3701C184.496 43.6661 184.392 43.9583 184.297 44.2469C184.208 44.5355 184.137 44.7833 184.086 44.9905C184.041 45.1681 184.019 45.3272 184.019 45.4677C184.019 45.6526 184.075 45.7933 184.186 45.8894C184.304 45.9856 184.508 46.0337 184.796 46.0337C185.196 46.0337 185.595 46.0189 185.995 45.9893C186.394 45.9523 186.786 45.8783 187.171 45.7674C187.504 45.6712 187.8 45.5417 188.059 45.3789C188.325 45.2162 188.517 45.0127 188.636 44.7685C188.65 44.739 188.672 44.7241 188.703 44.7241C188.754 44.7241 188.78 44.7648 188.78 44.8462C188.78 44.861 188.776 44.8795 188.769 44.9017C188.769 44.9239 188.765 44.9498 188.758 44.9794C188.699 45.1718 188.628 45.3419 188.547 45.4899C188.466 45.6379 188.381 45.7636 188.292 45.8672C188.084 46.1188 187.818 46.2742 187.493 46.3334C187.167 46.3851 186.841 46.4111 186.516 46.4111H183.154ZM195.319 46.4999C195.038 46.4999 194.824 46.4259 194.676 46.2779C194.527 46.1299 194.427 45.9412 194.376 45.7119C194.324 45.4825 194.291 45.2457 194.276 45.0016C194.276 44.861 194.283 44.6946 194.298 44.5022C194.313 44.3098 194.332 44.1248 194.354 43.9472C194.383 43.7623 194.405 43.6254 194.42 43.5366H191.879C191.406 44.0323 190.954 44.517 190.525 44.9905C190.103 45.4566 189.688 45.9301 189.282 46.4111H188.172C188.365 46.2335 188.616 45.9967 188.927 45.7008C189.244 45.3974 189.604 45.0533 190.003 44.6686C190.403 44.2839 190.817 43.8769 191.246 43.4478C191.683 43.0113 192.119 42.5748 192.556 42.1382C192.993 41.6943 193.403 41.2688 193.788 40.8619C194.18 40.4475 194.527 40.0739 194.831 39.741C194.979 39.5782 195.115 39.4154 195.242 39.2527C195.375 39.0825 195.523 38.9419 195.686 38.8309C195.848 38.7199 196.048 38.6644 196.285 38.6644H197.084C196.958 38.7828 196.833 38.9826 196.707 39.2638C196.58 39.545 196.466 39.8482 196.363 40.1738C196.267 40.4994 196.185 40.7953 196.118 41.0617C196.022 41.4612 195.923 41.8941 195.819 42.3602C195.723 42.8263 195.645 43.2887 195.586 43.7475C195.526 44.2062 195.508 44.6316 195.53 45.0238C195.537 45.1643 195.563 45.3123 195.608 45.4677C195.659 45.6157 195.73 45.7452 195.819 45.8561C195.915 45.9598 196.034 46.0115 196.174 46.0115C196.3 46.0115 196.436 45.9634 196.584 45.8672L196.651 45.9671C196.555 46.1151 196.37 46.2409 196.096 46.3445C195.83 46.4481 195.57 46.4999 195.319 46.4999ZM190.88 40.873C190.762 40.7472 190.673 40.6178 190.614 40.4846C190.562 40.3514 190.536 40.2256 190.536 40.1072C190.536 39.9592 190.565 39.8187 190.625 39.6855C190.691 39.5449 190.769 39.4265 190.858 39.3303C191.035 39.1306 191.257 38.9826 191.524 38.8864C191.79 38.7903 192.072 38.731 192.367 38.7088C192.671 38.6793 192.959 38.6644 193.233 38.6644H195.719C195.563 38.8198 195.326 38.9419 195.009 39.0307C194.698 39.1121 194.358 39.175 193.987 39.2194C193.617 39.2564 193.259 39.2933 192.911 39.3303C192.571 39.3599 192.289 39.4007 192.067 39.4524C191.675 39.5412 191.375 39.7114 191.169 39.963C190.969 40.2145 190.873 40.5179 190.88 40.873ZM192.367 42.9817H194.498C194.587 42.4934 194.691 42.005 194.809 41.5167C194.935 41.0284 195.046 40.5993 195.142 40.2293C194.691 40.6584 194.228 41.1061 193.754 41.5722C193.288 42.031 192.826 42.5007 192.367 42.9817ZM197.906 46.4111C197.751 46.4111 197.636 46.3556 197.562 46.2446C197.496 46.1336 197.462 45.982 197.462 45.7896C197.462 45.6786 197.473 45.5565 197.496 45.4233C197.518 45.2901 197.544 45.1496 197.573 45.0016C197.662 44.6094 197.799 44.1766 197.984 43.7031C198.177 43.2221 198.394 42.7302 198.639 42.227C198.89 41.7165 199.142 41.2208 199.393 40.7398C199.653 40.2589 199.893 39.8187 200.115 39.4191C200.13 39.3896 200.159 39.3341 200.204 39.2527C200.255 39.1712 200.296 39.1121 200.326 39.0751C200.037 39.0825 199.726 39.1195 199.393 39.1861C199.067 39.2453 198.754 39.3303 198.45 39.4413C198.154 39.5523 197.899 39.6818 197.684 39.8298C197.477 39.9778 197.344 40.1405 197.285 40.3181C197.278 40.3403 197.262 40.3514 197.24 40.3514C197.174 40.3514 197.14 40.2996 197.14 40.196C197.14 40.1738 197.147 40.1405 197.163 40.0961C197.236 39.9037 197.322 39.7336 197.418 39.5856C197.514 39.4376 197.614 39.3119 197.718 39.2083C197.962 38.9567 198.235 38.805 198.539 38.7532C198.842 38.694 199.164 38.6644 199.504 38.6644H202.024C201.861 38.7903 201.668 39.0196 201.447 39.3525C201.225 39.6781 200.996 40.048 200.758 40.4624C200.655 40.6473 200.525 40.8878 200.37 41.1838C200.215 41.4797 200.052 41.809 199.882 42.1715C199.711 42.5267 199.549 42.8855 199.393 43.248C199.238 43.6106 199.105 43.9546 198.994 44.2802C198.883 44.5983 198.812 44.8721 198.783 45.1015C198.776 45.1385 198.772 45.1754 198.772 45.2124C198.772 45.242 198.772 45.2753 198.772 45.3123C198.772 45.5195 198.827 45.6934 198.938 45.834C199.049 45.9671 199.256 46.0337 199.56 46.0337C199.952 46.0337 200.348 46.0189 200.747 45.9893C201.154 45.9523 201.55 45.8783 201.935 45.7674C202.261 45.6712 202.556 45.5417 202.823 45.3789C203.089 45.2162 203.282 45.0127 203.4 44.7685C203.415 44.739 203.433 44.7241 203.455 44.7241C203.507 44.7241 203.533 44.7648 203.533 44.8462C203.533 44.861 203.529 44.8795 203.522 44.9017C203.522 44.9239 203.518 44.9498 203.511 44.9794C203.451 45.1718 203.382 45.3419 203.3 45.4899C203.218 45.6379 203.138 45.7636 203.056 45.8672C202.849 46.1188 202.579 46.2742 202.246 46.3334C201.92 46.3851 201.595 46.4111 201.269 46.4111H197.906ZM203.799 46.4111C203.681 46.4111 203.593 46.3629 203.533 46.2668C203.482 46.1706 203.455 46.0448 203.455 45.8894C203.455 45.6748 203.489 45.4233 203.555 45.1348C203.63 44.8462 203.719 44.5466 203.822 44.2358C203.933 43.925 204.044 43.6291 204.155 43.3479C204.266 43.0594 204.362 42.8152 204.443 42.6154H203.833C203.774 42.6154 203.744 42.5932 203.744 42.5489C203.744 42.5045 203.777 42.4452 203.844 42.3713C203.91 42.2899 203.988 42.2196 204.077 42.1604C204.166 42.1012 204.24 42.0716 204.299 42.0716H204.676C204.862 41.6351 205.035 41.2282 205.198 40.8508C205.361 40.4661 205.564 40.0591 205.808 39.63C205.868 39.5264 205.923 39.4302 205.975 39.3414C206.027 39.2453 206.086 39.1601 206.152 39.0862C205.753 39.1379 205.342 39.2156 204.92 39.3193C204.507 39.4229 204.136 39.556 203.81 39.7188C203.486 39.8815 203.256 40.0739 203.122 40.2959C203.115 40.3181 203.1 40.3292 203.078 40.3292C203.064 40.3292 203.053 40.3144 203.045 40.2848C203.031 40.2552 203.027 40.2219 203.034 40.1849C203.108 39.9925 203.2 39.8076 203.311 39.63C203.422 39.4524 203.53 39.3119 203.633 39.2083C203.796 39.0381 204.018 38.916 204.299 38.842C204.58 38.7681 204.869 38.7199 205.164 38.6977C205.468 38.6755 205.727 38.6644 205.941 38.6644H208.139C208.398 38.6644 208.627 38.6571 208.827 38.6423C209.035 38.6201 209.208 38.609 209.349 38.609C209.579 38.609 209.712 38.6645 209.748 38.7754C209.756 38.805 209.759 38.8347 209.759 38.8642C209.767 38.8864 209.77 38.916 209.77 38.953C209.77 39.101 209.737 39.2711 209.67 39.4635C209.604 39.6485 209.53 39.8298 209.448 40.0073C209.375 40.1776 209.315 40.3181 209.271 40.4291C209.264 40.4661 209.242 40.4919 209.204 40.5068C209.175 40.5216 209.146 40.529 209.115 40.529C209.079 40.529 209.046 40.5216 209.016 40.5068C208.993 40.4919 208.986 40.4439 208.993 40.3625C209.009 40.2737 209.027 40.1738 209.049 40.0628C209.071 39.9519 209.082 39.8557 209.082 39.7743C209.082 39.5375 208.986 39.3563 208.794 39.2305C208.609 39.0973 208.376 39.0307 208.094 39.0307C207.888 39.0307 207.717 39.0492 207.584 39.0862C207.451 39.1158 207.344 39.1934 207.262 39.3193C206.966 39.7558 206.696 40.2034 206.452 40.6621C206.216 41.1209 205.994 41.5907 205.786 42.0716H208.683C208.705 42.0716 208.691 42.116 208.638 42.2048C208.594 42.2936 208.535 42.3861 208.461 42.4823C208.394 42.5711 208.336 42.6154 208.283 42.6154H205.542C205.461 42.8226 205.364 43.0742 205.253 43.3701C205.142 43.6661 205.039 43.9583 204.942 44.2469C204.854 44.5355 204.784 44.7833 204.732 44.9905C204.687 45.1681 204.665 45.3272 204.665 45.4677C204.665 45.6526 204.721 45.7933 204.832 45.8894C204.951 45.9856 205.153 46.0337 205.442 46.0337C205.841 46.0337 206.241 46.0189 206.641 45.9893C207.04 45.9523 207.433 45.8783 207.817 45.7674C208.15 45.6712 208.447 45.5417 208.705 45.3789C208.971 45.2162 209.164 45.0127 209.282 44.7685C209.297 44.739 209.319 44.7241 209.349 44.7241C209.401 44.7241 209.426 44.7648 209.426 44.8462C209.426 44.861 209.423 44.8795 209.415 44.9017C209.415 44.9239 209.412 44.9498 209.404 44.9794C209.346 45.1718 209.275 45.3419 209.193 45.4899C209.112 45.6379 209.027 45.7636 208.938 45.8672C208.731 46.1188 208.465 46.2742 208.139 46.3334C207.814 46.3851 207.488 46.4111 207.162 46.4111H203.799ZM210.435 46.4111C210.524 46.0411 210.642 45.6304 210.79 45.1792C210.946 44.7204 211.119 44.2432 211.312 43.7475C211.512 43.2518 211.715 42.7597 211.922 42.2714C212.129 41.7831 212.329 41.3169 212.522 40.873C212.714 40.4217 212.936 39.9667 213.188 39.5079C213.239 39.4191 213.283 39.3377 213.321 39.2638C213.365 39.1898 213.414 39.1268 213.465 39.0751C213.176 39.0825 212.866 39.1195 212.533 39.1861C212.207 39.2453 211.893 39.3303 211.589 39.4413C211.294 39.5523 211.038 39.6818 210.824 39.8298C210.617 39.9778 210.484 40.1405 210.424 40.3181C210.417 40.3403 210.402 40.3514 210.38 40.3514C210.313 40.3514 210.28 40.2996 210.28 40.196C210.28 40.1738 210.287 40.1405 210.302 40.0961C210.369 39.9037 210.45 39.7336 210.546 39.5856C210.65 39.4376 210.753 39.3119 210.857 39.2083C211.101 38.9567 211.374 38.805 211.678 38.7532C211.982 38.694 212.304 38.6644 212.644 38.6644H215.341C215.651 38.6644 215.929 38.6977 216.173 38.7643C216.417 38.8236 216.621 38.9086 216.783 39.0196C216.998 39.1601 217.154 39.3341 217.25 39.5412C217.345 39.741 217.394 39.9519 217.394 40.1738C217.394 40.5141 217.32 40.8175 217.172 41.0839C217.024 41.3502 216.828 41.5796 216.584 41.772C216.347 41.9644 216.08 42.1198 215.785 42.2381C215.489 42.3564 215.189 42.4452 214.886 42.5045L214.53 42.5711C214.708 43.1704 214.934 43.7104 215.207 44.1914C215.481 44.6724 215.766 45.0941 216.062 45.4566C216.358 45.8191 216.624 46.1299 216.861 46.3889C216.75 46.4111 216.58 46.4222 216.351 46.4222C216.151 46.4222 215.958 46.4184 215.773 46.4111C215.589 46.3962 215.496 46.3889 215.496 46.3889C215.311 46.3889 215.13 46.289 214.952 46.0892C214.775 45.8894 214.604 45.6342 214.442 45.3234C214.279 45.0053 214.131 44.676 213.998 44.3357C213.872 43.9879 213.765 43.6661 213.676 43.3701C213.594 43.0742 213.539 42.8448 213.509 42.682C213.509 42.6598 213.505 42.6376 213.498 42.6154C213.498 42.5932 213.498 42.5673 213.498 42.5378C213.498 42.4934 213.505 42.4563 213.52 42.4268C213.543 42.3897 213.583 42.3676 213.643 42.3602C214.013 42.3158 214.349 42.2492 214.653 42.1604C214.956 42.0643 215.234 41.9347 215.485 41.772C215.736 41.6018 215.94 41.3946 216.095 41.1505C216.251 40.8989 216.328 40.6029 216.328 40.2626C216.328 39.9889 216.251 39.741 216.095 39.519C215.947 39.2897 215.707 39.1379 215.374 39.064C215.285 39.0418 215.189 39.027 215.085 39.0196C214.989 39.0122 214.89 39.0048 214.786 38.9974C214.623 39.2194 214.453 39.4857 214.275 39.7965C214.098 40.1072 213.924 40.4364 213.754 40.7842C213.583 41.1245 213.421 41.465 213.265 41.8053C213.117 42.1382 212.984 42.4452 212.866 42.7264C212.806 42.8818 212.717 43.1075 212.599 43.4034C212.488 43.6993 212.373 44.0212 212.255 44.369C212.137 44.7168 212.033 45.0533 211.945 45.3789C211.863 45.697 211.822 45.9598 211.822 46.1669C211.822 46.2779 211.838 46.3593 211.867 46.4111H210.435ZM218.796 46.4999C218.767 46.485 218.707 46.4592 218.619 46.4222C218.537 46.3851 218.459 46.3407 218.386 46.289C218.297 46.2224 218.252 46.141 218.252 46.0448C218.252 45.9412 218.301 45.8413 218.397 45.7452C218.47 45.6637 218.563 45.5972 218.674 45.5454C218.785 45.4936 218.907 45.4677 219.04 45.4677C219.166 45.4677 219.273 45.4899 219.362 45.5343C219.451 45.5713 219.495 45.6415 219.495 45.7452C219.495 45.7674 219.488 45.808 219.473 45.8672C219.414 45.8746 219.336 45.919 219.24 46.0004C219.144 46.0818 219.051 46.1706 218.963 46.2668C218.881 46.3629 218.825 46.4406 218.796 46.4999Z" fill="#13141A"/>
    <path d="M54.0474 19.6137L50.7351 16.9979L50.6953 16.9639L53.779 16.3549C53.979 16.3155 54.1591 16.2089 54.2884 16.0532C54.4176 15.8974 54.4882 15.7023 54.4879 15.5009V12.8868C54.4879 12.6558 54.3949 12.4341 54.2293 12.2707C54.0638 12.1073 53.8393 12.0155 53.6051 12.0155H49.191C48.9568 12.0155 48.7324 12.1073 48.5668 12.2707C48.4012 12.4341 48.3082 12.6558 48.3082 12.8868V14.4135L48.2473 14.3324C48.1913 14.1844 48.0943 14.055 47.9674 13.9586C47.4704 13.2642 47.0449 12.5688 46.7676 11.9676L45.2757 8.72876C44.3249 6.66278 41.7789 5.04468 39.48 5.04468H18.2923C15.9935 5.04468 13.4474 6.66278 12.4966 8.72876L11.0056 11.9667C10.7283 12.5679 10.3028 13.2642 9.8058 13.9586C9.67919 14.0552 9.5823 14.1846 9.52595 14.3324L9.46504 14.4135V12.8868C9.46504 12.6558 9.37202 12.4341 9.20646 12.2707C9.0409 12.1073 8.81635 12.0155 8.58222 12.0155H4.16723C3.9331 12.0155 3.70855 12.1073 3.54299 12.2707C3.37743 12.4341 3.28442 12.6558 3.28442 12.8868V15.5009C3.28442 15.9166 3.58104 16.2738 3.9942 16.3549L7.07788 16.9639L7.03816 16.9979L3.72495 19.6137C1.99286 20.9817 0.635958 23.7683 0.635958 25.9572V40.7702C0.635958 42.2114 1.82423 43.3843 3.28442 43.3843H10.347C11.8072 43.3843 12.9954 42.2114 12.9954 40.7702V39.0275H44.7769V40.7702C44.7769 42.2114 45.9651 43.3843 47.4254 43.3843H54.4879C55.9482 43.3843 57.1364 42.2114 57.1364 40.7702V25.9572C57.1364 23.7683 55.7795 20.9817 54.0474 19.6137ZM46.0253 37.2847L44.0009 35.2867C43.1419 34.4389 41.5776 33.7994 40.3628 33.7994H16.9681C15.7534 33.7994 14.189 34.4389 13.33 35.2867L11.3058 37.2847H5.05005C3.58987 37.2847 2.4016 36.1119 2.4016 34.6707V30.314H3.28442V31.1853C3.28442 33.1075 4.86819 34.6707 6.81569 34.6707H9.46415C9.69828 34.6707 9.92283 34.5789 10.0884 34.4155C10.254 34.2521 10.347 34.0305 10.347 33.7994C10.347 33.5683 10.254 33.3467 10.0884 33.1832C9.92283 33.0199 9.69828 32.928 9.46415 32.928H6.81569C5.84194 32.928 5.05005 32.1464 5.05005 31.1853V30.314H6.81569C7.54843 30.314 8.68727 30.7792 9.20548 31.2907C9.28728 31.372 9.38453 31.4363 9.49164 31.4803C9.59876 31.5243 9.71363 31.5469 9.82964 31.5469C9.94564 31.5469 10.0605 31.5243 10.1676 31.4803C10.2747 31.4363 10.372 31.372 10.4538 31.2907C10.5358 31.2099 10.6009 31.1139 10.6454 31.0081C10.6898 30.9024 10.7126 30.7891 10.7126 30.6747C10.7126 30.5603 10.6898 30.447 10.6454 30.3412C10.6009 30.2355 10.5358 30.1394 10.4538 30.0586C9.59481 29.2108 8.03133 28.5713 6.81569 28.5713H2.4016V25.9572C2.4016 25.6496 2.45103 25.3176 2.52077 24.9786C3.08578 25.5607 3.90769 25.9572 5.05005 25.9572H12.1126C12.3467 25.9571 12.5713 25.8653 12.7367 25.7018L13.8782 24.5752L15.0198 25.7018C15.1016 25.7829 15.1988 25.8471 15.306 25.891C15.4131 25.9348 15.528 25.9573 15.6439 25.9572H25.8723L28.262 28.3159C28.3438 28.3971 28.441 28.4616 28.5482 28.5056C28.6553 28.5495 28.7701 28.5722 28.8862 28.5722C29.0022 28.5722 29.117 28.5495 29.2242 28.5056C29.3313 28.4616 29.4286 28.3971 29.5103 28.3159L31.9002 25.9572H42.1285C42.3624 25.9572 42.5875 25.8657 42.7526 25.7018L43.8941 24.5752L45.0356 25.7018C45.1174 25.7829 45.2147 25.8471 45.3218 25.891C45.429 25.9348 45.5438 25.9573 45.6597 25.9572H52.7223C53.8647 25.9572 54.6866 25.5607 55.2516 24.9786C55.3213 25.3176 55.3707 25.6496 55.3707 25.9572V28.5713H50.9566C49.7419 28.5713 48.1775 29.2108 47.3185 30.0586C47.2366 30.1395 47.1715 30.2356 47.1272 30.3413C47.0828 30.447 47.06 30.5603 47.06 30.6747C47.06 30.7891 47.0828 30.9024 47.1272 31.0081C47.1715 31.1138 47.2366 31.2098 47.3185 31.2907C47.4006 31.3717 47.4978 31.4358 47.605 31.4796C47.712 31.5234 47.8268 31.5459 47.9427 31.5459C48.0586 31.5459 48.1734 31.5234 48.2804 31.4796C48.3876 31.4358 48.4849 31.3717 48.5669 31.2907C49.0851 30.7792 50.224 30.314 50.9566 30.314H52.7223V31.1853C52.7223 32.1464 51.9304 32.928 50.9566 32.928H48.3082C48.074 32.928 47.8495 33.0199 47.684 33.1832C47.5184 33.3467 47.4254 33.5683 47.4254 33.7994C47.4254 34.0305 47.5184 34.2521 47.684 34.4155C47.8495 34.5789 48.074 34.6707 48.3082 34.6707H50.9566C52.9041 34.6707 54.4879 33.1075 54.4879 31.1853V30.314H55.3707V34.6707C55.3707 36.1119 54.1825 37.2847 52.7223 37.2847H46.0253ZM43.5286 37.2847H13.8023L14.5783 36.5188C15.0965 36.0074 16.2354 35.5421 16.9681 35.5421H40.3628C41.0955 35.5421 42.2344 36.0074 42.7526 36.5188L43.5286 37.2847ZM10.8413 15.5009H46.931C47.7865 16.6172 48.7637 17.6732 49.6315 18.359L50.6936 19.1972L44.4494 21.6623L44.4476 21.6632C44.3376 21.707 44.2376 21.7721 44.1536 21.8549L43.2708 22.7262L41.7629 24.2145H31.5346C31.4187 24.2144 31.3039 24.2369 31.1967 24.2807C31.0896 24.3244 30.9923 24.3887 30.9105 24.4697L28.8862 26.4678L26.8618 24.4697C26.78 24.3887 26.6828 24.3244 26.5756 24.2807C26.4685 24.2369 26.3536 24.2144 26.2377 24.2145H16.0093L14.5024 22.7271L13.6196 21.8557C13.5356 21.7729 13.4356 21.7078 13.3256 21.664L13.3238 21.6632L7.07965 19.198L8.14169 18.3598C9.00861 17.6732 9.9859 16.6172 10.8413 15.5009ZM54.4359 22.8369C54.2584 23.7474 53.6863 24.2145 52.7223 24.2145H46.0253L45.1425 23.3431L45.273 23.2141L52.2783 20.4485L52.9438 20.9748C53.5036 21.4166 54.0201 22.0883 54.4359 22.8369ZM50.0738 13.7583H52.7223V14.7865L50.0738 15.3092V13.7583ZM12.6114 12.6882L14.1024 9.45025C14.7681 8.00641 16.6865 6.78738 18.2923 6.78738H39.48C41.0858 6.78738 43.0042 8.00641 43.669 9.44937L45.1609 12.6882C45.3163 13.0246 45.5185 13.3879 45.74 13.7583H12.0323C12.2539 13.3879 12.4569 13.0246 12.6114 12.6882ZM5.05005 13.7583H7.69851V15.3092L5.05005 14.7865V13.7583ZM4.82758 20.9748L5.49323 20.4485L12.4992 23.2141L12.63 23.3431L11.7472 24.2145H5.05005C4.08601 24.2145 3.51395 23.7474 3.33651 22.8369C3.75231 22.0883 4.26788 21.4166 4.82758 20.9748ZM10.347 41.6415H3.28442C2.79798 41.6415 2.4016 41.2504 2.4016 40.7702V38.1344C3.16147 38.7104 4.09195 39.0241 5.05005 39.0275H11.2298V40.7702C11.2298 41.2504 10.8334 41.6415 10.347 41.6415ZM54.4879 41.6415H47.4254C46.939 41.6415 46.5426 41.2504 46.5426 40.7702V39.0275H52.7223C53.7199 39.0275 54.631 38.6867 55.3707 38.1344V40.7702C55.3707 41.2504 54.9743 41.6415 54.4879 41.6415Z" fill="#46D993"/>
  </g>
  <defs>
    <clipPath id="clip0_1_8">
      <rect width="219.948" height="47.42" fill="white" transform="translate(0.635958)"/>
    </clipPath>
  </defs>
</svg>