<svg width="37" height="37" viewBox="0 0 37 37" fill="none" xmlns="http://www.w3.org/2000/svg">
<g clip-path="url(#clip0_213_2388)">
<mask id="mask0_213_2388" style="mask-type:alpha" maskUnits="userSpaceOnUse" x="0" y="0" width="37" height="37">
<path d="M36.8105 0.69043H0.810547V36.6904H36.8105V0.69043Z" fill="#D9D9D9"/>
</mask>
<g mask="url(#mask0_213_2388)">
<path d="M36.776 35.9757L31.5025 22.0841C31.4587 21.9688 31.3759 21.8724 31.2684 21.8119L25.6514 18.6474L27.2913 16.0473C28.2978 14.4502 28.8298 12.6045 28.8298 10.7099C28.8298 5.18515 24.3351 0.69043 18.8103 0.69043C13.2855 0.69043 8.79085 5.18515 8.79085 10.7099C8.79085 12.605 9.32311 14.4507 10.3301 16.0474L11.9695 18.6475L6.35242 21.8119C6.24489 21.8724 6.16201 21.9688 6.1182 22.0841L0.844774 35.9757C0.806385 36.0771 0.80012 36.1877 0.826831 36.2927C0.853542 36.3977 0.911933 36.4919 0.994069 36.5626C1.0762 36.6332 1.1781 36.6769 1.28591 36.6876C1.39371 36.6983 1.5022 36.6755 1.59662 36.6224L10.074 31.8464L18.5514 36.6224C18.6304 36.6669 18.7196 36.6903 18.8103 36.6903C18.901 36.6903 18.9901 36.6669 19.0691 36.6224L27.5466 31.8464L36.024 36.6224C36.1184 36.6757 36.2269 36.6985 36.3348 36.6879C36.4426 36.6772 36.5446 36.6335 36.6268 36.5629C36.7089 36.4922 36.7674 36.3979 36.7941 36.2929C36.8208 36.1878 36.8144 36.0771 36.776 35.9757ZM19.3377 28.0216C19.6731 27.9031 19.9586 27.6747 20.1478 27.3735C20.1746 27.3313 24.6639 20.2133 24.6639 20.2133L26.9504 30.9717L19.3377 35.2605V28.0216ZM11.2222 15.4847C10.3216 14.0566 9.8456 12.4056 9.8456 10.7098C9.8456 5.76663 13.8671 1.74505 18.8104 1.74505C23.7536 1.74505 27.7752 5.76663 27.7752 10.7098C27.7752 12.4052 27.2993 14.0564 26.3993 15.4847C26.3289 15.5963 19.3805 26.6151 19.2593 26.8054C19.2581 26.807 19.2561 26.8103 19.2561 26.8103C19.1583 26.965 18.9917 27.0575 18.8104 27.0575C18.6289 27.0575 18.4616 26.9646 18.3636 26.8106C18.2932 26.6989 11.3309 15.6583 11.2246 15.4886L11.2222 15.4847ZM7.03641 22.637L11.9523 19.8676L11.0959 23.8968C11.0795 23.9737 11.0806 24.0533 11.0989 24.1297C11.1173 24.2062 11.1525 24.2775 11.202 24.3386C11.2515 24.3997 11.314 24.4489 11.385 24.4827C11.456 24.5165 11.5336 24.534 11.6122 24.534C11.7329 24.5338 11.85 24.4922 11.9437 24.4162C12.0375 24.3401 12.1024 24.2342 12.1275 24.1162L12.9569 20.2137L17.4725 27.3749C17.6624 27.6753 17.9479 27.903 18.2829 28.0215V35.2606L10.6704 30.9718L11.689 26.1793C11.7034 26.1116 11.7043 26.0417 11.6917 25.9736C11.6791 25.9055 11.6532 25.8406 11.6155 25.7825C11.5778 25.7244 11.529 25.6743 11.4719 25.6351C11.4149 25.5958 11.3506 25.5682 11.2829 25.5538C11.2151 25.5394 11.1452 25.5384 11.0771 25.551C11.009 25.5636 10.944 25.5895 10.8859 25.6272C10.8278 25.6649 10.7778 25.7137 10.7386 25.7708C10.6994 25.8279 10.6718 25.8922 10.6574 25.96L9.60774 30.8984L2.34756 34.9888L7.03641 22.637ZM28.013 30.8985L25.6686 19.8675L30.5843 22.637L35.2732 34.9888L28.013 30.8985Z" fill="#13141A"/>
<path d="M24.6114 10.7099C24.6114 7.51145 22.0091 4.90918 18.8106 4.90918C15.6121 4.90918 13.0098 7.51145 13.0098 10.7099C13.0098 13.9084 15.6121 16.5107 18.8106 16.5107C22.0091 16.5107 24.6114 13.9084 24.6114 10.7099ZM14.0645 10.7099C14.0645 8.09293 16.1935 5.96387 18.8106 5.96387C21.4276 5.96387 23.5567 8.09293 23.5567 10.7099C23.5567 13.327 21.4276 15.456 18.8106 15.456C16.1935 15.456 14.0645 13.327 14.0645 10.7099Z" fill="#13141A"/>
<path d="M22.5019 10.7099C22.5019 8.67456 20.8459 7.01855 18.8105 7.01855C16.7751 7.01855 15.1191 8.67456 15.1191 10.7099C15.1191 12.7453 16.7751 14.4013 18.8105 14.4013C20.8459 14.4013 22.5019 12.7453 22.5019 10.7099ZM16.1738 10.7099C16.1738 9.25604 17.3566 8.07324 18.8105 8.07324C20.2644 8.07324 21.4472 9.25604 21.4472 10.7099C21.4472 12.1639 20.2644 13.3466 18.8105 13.3466C17.3566 13.3466 16.1738 12.1639 16.1738 10.7099Z" fill="#13141A"/>
</g>
</g>
<defs>
<clipPath id="clip0_213_2388">
<rect width="36" height="36" fill="white" transform="translate(0.810547 0.69043)"/>
</clipPath>
</defs>
</svg>
