<svg width="37" height="37" viewBox="0 0 37 37" fill="none" xmlns="http://www.w3.org/2000/svg">
<g clip-path="url(#clip0_213_2419)">
<mask id="mask0_213_2419" style="mask-type:alpha" maskUnits="userSpaceOnUse" x="0" y="0" width="37" height="37">
<path d="M36.6201 0.69043H0.620117V36.6904H36.6201V0.69043Z" fill="#D9D9D9"/>
</mask>
<g mask="url(#mask0_213_2419)">
<path d="M30.6201 7.04682V3.69043C30.618 2.03443 29.2761 0.692542 27.6201 0.69043H3.62012C1.96412 0.692542 0.622229 2.03443 0.620117 3.69043V16.8904C0.624764 18.4226 1.78621 19.7041 3.31054 19.8595L5.56593 25.7141C6.16174 27.2601 7.8978 28.0302 9.44386 27.4351L23.5281 22.0096C22.5549 24.5517 22.8318 27.4033 24.2754 29.7107L24.6201 30.262V36.0904C24.6201 36.4219 24.8886 36.6904 25.2201 36.6904H36.0201C36.3516 36.6904 36.6201 36.4219 36.6201 36.0904V16.2851C36.6146 14.2103 35.7882 12.2221 34.3214 10.7547L30.6201 7.04682ZM30.6201 10.6351L32.4411 15.3622C32.798 16.2901 32.3355 17.3312 31.4078 17.6884L30.3669 18.0904C30.533 17.7121 30.6192 17.3036 30.6201 16.8904V10.6351ZM1.82012 16.8904V3.69043C1.82012 2.69652 2.62621 1.89043 3.62012 1.89043H27.6201C28.614 1.89043 29.4201 2.69652 29.4201 3.69043V7.50405H29.4148L29.4201 7.51768V16.8904C29.4154 16.995 29.4018 17.099 29.3793 17.2012L23.8833 11.7046C22.6479 10.4978 20.6784 10.4884 19.4319 11.6827C18.1851 12.8777 18.1103 14.8457 19.2633 16.1312L21.6063 18.6904H3.62012C2.62621 18.6904 1.82012 17.8843 1.82012 16.8904ZM9.50673 19.8904L5.2401 21.533L4.60896 19.8904H9.50673ZM9.01233 26.3151C8.08473 26.6726 7.04298 26.2102 6.68552 25.2826L5.67329 22.6504L12.8355 19.8904V19.8868H22.7061L23.486 20.737L9.01233 26.3151ZM35.4201 35.4904H25.8201V30.6904H35.4201V35.4904ZM35.4201 29.4904H25.5531L25.2929 29.0746C23.8299 26.7367 23.7717 23.7838 25.1409 21.3904C25.2041 21.28 25.2305 21.1524 25.2164 21.026C25.2022 20.8996 25.1483 20.7809 25.0623 20.6872L20.1455 15.3232C19.4123 14.5207 19.4535 13.28 20.2385 12.5284C21.0237 11.7766 22.265 11.7889 23.0348 12.5557L32.5959 22.1146L33.4443 21.2662L31.2243 19.0462L31.8399 18.8062C33.3846 18.2102 34.1544 16.4756 33.5601 14.93L31.5293 9.65668L33.473 11.6044C34.7151 12.846 35.4151 14.5289 35.4201 16.2851V29.4904Z" fill="#13141A"/>
<path d="M7.46051 9.08984C8.32213 9.08984 9.02051 8.39142 9.02051 7.52984V4.64984C9.02051 3.78822 8.32209 3.08984 7.46051 3.08984H4.58051C3.71889 3.08984 3.02051 3.78826 3.02051 4.64984V7.52984C3.02051 8.39146 3.71893 9.08984 4.58051 9.08984H7.46051ZM4.22051 7.52984V6.68984H5.42051V5.48984H4.22051V4.64984C4.22051 4.45108 4.38179 4.28984 4.58051 4.28984H7.46051C7.65927 4.28984 7.82051 4.45112 7.82051 4.64984V5.48984H6.62051V6.68984H7.82051V7.52984C7.82051 7.7286 7.65923 7.88984 7.46051 7.88984H4.58051C4.38175 7.88984 4.22051 7.72856 4.22051 7.52984ZM3.62051 10.8898H6.02051V12.0898H3.62051V10.8898ZM3.62051 14.4898H6.02051V15.6898H3.62051V14.4898ZM14.4205 14.4898H16.8205V15.6898H14.4205V14.4898ZM7.22051 10.8898H9.62051V12.0898H7.22051V10.8898ZM10.8205 10.8898H13.2205V12.0898H10.8205V10.8898ZM14.4205 10.8898H16.8205V12.0898H14.4205V10.8898ZM25.8205 3.68984H27.0205V5.48984H25.8205V3.68984ZM23.4205 3.68984H24.6205V5.48984H23.4205V3.68984ZM21.0205 3.68984H22.2205V5.48984H21.0205V3.68984ZM18.6205 3.68984H19.8205V5.48984H18.6205V3.68984ZM27.0205 31.8898H28.2205V33.0898H27.0205V31.8898Z" fill="#13141A"/>
</g>
</g>
<defs>
<clipPath id="clip0_213_2419">
<rect width="36" height="36" fill="white" transform="translate(0.620117 0.69043)"/>
</clipPath>
</defs>
</svg>
