<svg width="42" height="43" viewBox="0 0 42 43" fill="none" xmlns="http://www.w3.org/2000/svg">
<mask id="mask0_1_3315" style="mask-type:alpha" maskUnits="userSpaceOnUse" x="0" y="0" width="42" height="43">
<path d="M42 0.390137H0V42.3901H42V0.390137Z" fill="#D9D9D9"/>
</mask>
<g mask="url(#mask0_1_3315)">
<path d="M38.3104 12.0377H36.7613C36.832 11.6417 36.7893 11.2339 36.638 10.8608C36.4867 10.4876 36.2329 10.164 35.9053 9.9266C35.5778 9.68921 35.1897 9.54758 34.785 9.5178C34.3804 9.48801 33.9754 9.57127 33.6161 9.75811C33.2544 7.8097 30.3764 7.49016 29.594 9.31777C29.3343 9.15997 29.0436 9.05879 28.7413 9.02096C28.439 8.98312 28.1321 9.0095 27.8409 9.09834C27.5497 9.18717 27.2809 9.33643 27.0524 9.53619C26.8239 9.73595 26.6409 9.98163 26.5156 10.2569C26.1932 10.0627 25.8247 9.95625 25.4475 9.94844C25.0703 9.94062 24.6976 10.0317 24.3673 10.2124C24.037 10.3931 23.7606 10.657 23.5662 10.9775C23.3718 11.2981 23.2663 11.6638 23.2602 12.0377H18.8293C19.081 9.55548 16.9579 6.89784 17.0601 4.43894H18.1531C18.3095 4.43894 18.4595 4.37736 18.5701 4.26774C18.6807 4.15812 18.7428 4.00944 18.7428 3.85442V0.974661C18.7428 0.819636 18.6807 0.67096 18.5701 0.56134C18.4595 0.45172 18.3095 0.390137 18.1531 0.390137H5.94158C5.78517 0.390137 5.63517 0.45172 5.52457 0.56134C5.41397 0.67096 5.35184 0.819636 5.35184 0.974661V3.85442C5.35184 4.67275 6.47234 4.39218 6.98738 4.43894C6.66892 7.22907 3.36245 9.15021 3.28382 12.0377C2.97297 11.9958 2.65668 12.0197 2.3558 12.1077C2.05492 12.1958 1.77627 12.346 1.53818 12.5484C1.3001 12.7509 1.10798 13.0011 0.974487 13.2825C0.840992 13.5639 0.769143 13.8701 0.763672 14.181V28.5992C0.764711 29.1673 0.992866 29.7119 1.39817 30.1136C1.80346 30.5153 2.35287 30.7415 2.92605 30.7425H5.32825C5.08842 32.4805 6.85371 33.8599 8.47353 33.0221C8.83523 34.9705 11.7132 35.2901 12.4955 33.4625C12.756 33.6237 13.0483 33.7277 13.3528 33.7673C13.6573 33.807 13.9668 33.7815 14.2605 33.6925C14.5541 33.6034 14.8251 33.453 15.0551 33.2513C15.2851 33.0496 15.4687 32.8014 15.5936 32.5233C15.9156 32.7127 16.282 32.8152 16.6564 32.8205C17.0308 32.8258 17.4 32.7338 17.7273 32.5537C18.0546 32.3735 18.3286 32.1115 18.522 31.7937C18.7153 31.4759 18.8213 31.1135 18.8293 30.7425H23.2602C23.0126 33.2365 25.1356 35.8746 25.0295 38.3413H23.9365C23.7801 38.3413 23.6301 38.4029 23.5195 38.5125C23.4089 38.6221 23.3467 38.7708 23.3467 38.9258V41.8056C23.3467 41.9606 23.4089 42.1093 23.5195 42.2189C23.6301 42.3285 23.7801 42.3901 23.9365 42.3901H36.148C36.3044 42.3901 36.4544 42.3285 36.565 42.2189C36.6756 42.1093 36.7377 41.9606 36.7377 41.8056V38.9258C36.7377 38.1036 35.6172 38.3881 35.0983 38.3413C35.4325 35.5317 38.7507 33.6067 38.8136 30.684C39.286 30.5713 39.7064 30.3044 40.0073 29.9263C40.3082 29.5482 40.4722 29.0808 40.4728 28.5992V14.181C40.4717 13.6129 40.2436 13.0683 39.8383 12.6666C39.433 12.2649 38.8836 12.0387 38.3104 12.0377ZM34.6304 10.6777C35.4167 10.6777 35.6605 11.3714 35.5819 12.0377H33.6829C33.5925 11.3714 33.8638 10.6933 34.6304 10.6777ZM30.6005 10.1907C30.6005 9.94055 30.7008 9.70069 30.8792 9.52383C31.0576 9.34698 31.2996 9.24763 31.552 9.24763C31.8043 9.24763 32.0463 9.34698 32.2247 9.52383C32.4032 9.70069 32.5034 9.94055 32.5034 10.1907V12.0377H30.6005V10.1907ZM27.5221 11.0947C27.5376 10.8556 27.6444 10.6313 27.8208 10.4674C27.9971 10.3035 28.2298 10.2123 28.4716 10.2123C28.7133 10.2123 28.946 10.3035 29.1224 10.4674C29.2987 10.6313 29.4055 10.8556 29.4211 11.0947V12.0377H27.5221V11.0947ZM25.3912 11.0947C25.6432 11.0957 25.8846 11.1954 26.0628 11.372C26.241 11.5487 26.3416 11.7879 26.3426 12.0377H24.4397C24.4428 11.7896 24.5444 11.5528 24.7225 11.3784C24.9006 11.2041 25.1409 11.1064 25.3912 11.1064V11.0947ZM6.51952 1.5475H17.5634V3.2699H6.53132L6.51952 1.5475ZM7.03063 7.41222C7.66239 6.53081 8.05377 5.50262 8.16686 4.42725H15.9003C15.7155 6.90563 17.8661 9.55548 17.6695 12.026H11.4104C11.254 12.026 11.104 12.0876 10.9934 12.1972C10.8828 12.3068 10.8207 12.4555 10.8207 12.6105C10.8793 13.0615 10.8414 13.5196 10.7094 13.9551C10.5774 14.3905 10.3542 14.7935 10.0544 15.1377C9.75465 15.4818 9.38504 15.7595 8.9697 15.9525C8.55436 16.1456 8.10262 16.2497 7.64396 16.258C7.48755 16.258 7.33755 16.3196 7.22695 16.4292C7.11635 16.5388 7.05422 16.6875 7.05422 16.8425V21.2693C7.05422 21.4387 7.02056 21.6064 6.95516 21.7629C6.88976 21.9194 6.7939 22.0616 6.67306 22.1814C6.55222 22.3011 6.40876 22.3961 6.25087 22.461C6.09298 22.5258 5.92376 22.5591 5.75286 22.5591C5.58197 22.5591 5.41274 22.5258 5.25485 22.461C5.09697 22.3961 4.95351 22.3011 4.83266 22.1814C4.71182 22.0616 4.61596 21.9194 4.55057 21.7629C4.48517 21.6064 4.45151 21.4387 4.45151 21.2693V12.6378C4.27458 10.7635 6.07132 8.85794 7.04243 7.42391L7.03063 7.41222ZM7.44738 32.0908C6.66106 32.0908 6.4173 31.3972 6.49593 30.7308H8.39489C8.48532 31.4088 8.22584 32.0869 7.45917 32.1025L7.44738 32.0908ZM11.4773 32.5779C11.4773 32.828 11.377 33.0679 11.1986 33.2447C11.0202 33.4216 10.7782 33.5209 10.5258 33.5209C10.2735 33.5209 10.0315 33.4216 9.85304 33.2447C9.67461 33.0679 9.57437 32.828 9.57437 32.5779V30.7425H11.4773V32.5779ZM13.6082 32.6169C12.5231 32.5701 12.6607 31.5218 12.6685 30.7425H14.5675C14.5793 31.5218 14.7208 32.5701 13.62 32.6285L13.6082 32.6169ZM16.6866 31.6738C16.4387 31.6698 16.202 31.5704 16.0267 31.3966C15.8513 31.2228 15.751 30.9882 15.747 30.7425H17.6499C17.6483 30.8663 17.6222 30.9887 17.5729 31.1025C17.5237 31.2163 17.4523 31.3194 17.3629 31.4059C17.2734 31.4924 17.1677 31.5606 17.0516 31.6065C16.9356 31.6525 16.8116 31.6754 16.6866 31.6738ZM35.5583 41.2211H24.5262V39.5103H35.5583V41.2211ZM37.6617 30.158C37.7324 33.2754 34.021 35.255 33.9109 38.3413H26.2089C26.3977 35.859 24.2431 33.217 24.4397 30.7425H30.6831C31.3004 30.7152 31.2925 30.1541 31.2728 29.6864C31.2739 28.8476 31.6106 28.0433 32.209 27.4501C32.8075 26.857 33.6189 26.5233 34.4653 26.5222C34.6217 26.5222 34.7717 26.4606 34.8823 26.351C34.9929 26.2414 35.055 26.0927 35.055 25.9377V21.5109C35.0733 21.1806 35.2186 20.8697 35.461 20.6423C35.7035 20.4149 36.0246 20.2881 36.3583 20.2881C36.6921 20.2881 37.0132 20.4149 37.2556 20.6423C37.4981 20.8697 37.6434 21.1806 37.6617 21.5109V30.158ZM39.2933 28.5992C39.2934 28.7623 39.252 28.9228 39.173 29.0658C39.0939 29.2088 38.9798 29.3298 38.8411 29.4176V21.5109C38.9001 19.3754 36.089 18.2259 34.6029 19.7729C34.3713 20.0002 34.1876 20.2709 34.0627 20.5694C33.9379 20.8678 33.8742 21.1878 33.8755 21.5109V25.4077C32.8498 25.5465 31.907 26.0411 31.2145 26.8038C30.522 27.5665 30.1248 28.5479 30.0934 29.5734H2.92605C2.66537 29.5734 2.41536 29.4708 2.23103 29.2881C2.0467 29.1054 1.94315 28.8576 1.94315 28.5992V14.181C1.94315 13.4834 2.59973 13.1171 3.25237 13.2068V21.2693C3.18553 23.4048 6.00449 24.5582 7.4867 23.0073C7.71798 22.7797 7.90137 22.5089 8.02623 22.2106C8.15109 21.9122 8.21493 21.5923 8.21404 21.2693V17.3725C9.23975 17.2337 10.1826 16.7391 10.8751 15.9764C11.5676 15.2137 11.9648 14.2323 11.9962 13.2068H38.3104C38.5711 13.2068 38.8211 13.3094 39.0054 13.4921C39.1897 13.6748 39.2933 13.9226 39.2933 14.181V28.5992Z" fill="#13141A"/>
<path d="M9.94771 27.2357H5.28484C5.12843 27.2357 4.97842 27.1741 4.86782 27.0645C4.75723 26.9549 4.69509 26.8062 4.69509 26.6512V25.2016C4.69509 25.0465 4.63296 24.8979 4.52236 24.7882C4.41176 24.6786 4.26177 24.617 4.10536 24.617C3.94896 24.617 3.79894 24.6786 3.68835 24.7882C3.57775 24.8979 3.51563 25.0465 3.51563 25.2016V26.6512C3.51562 27.1163 3.70202 27.5623 4.03382 27.8912C4.36561 28.22 4.81562 28.4048 5.28484 28.4048H9.94771C10.1041 28.4048 10.2541 28.3432 10.3647 28.2336C10.4753 28.1239 10.5374 27.9753 10.5374 27.8202C10.5374 27.6652 10.4753 27.5165 10.3647 27.4069C10.2541 27.2973 10.1041 27.2357 9.94771 27.2357ZM35.9513 14.3762H31.2845C31.1281 14.3762 30.9781 14.4378 30.8675 14.5474C30.7569 14.657 30.6947 14.8057 30.6947 14.9607C30.6947 15.1157 30.7569 15.2644 30.8675 15.374C30.9781 15.4836 31.1281 15.5452 31.2845 15.5452H35.9513C36.1074 15.5463 36.2568 15.6082 36.3671 15.7176C36.4775 15.827 36.54 15.975 36.541 16.1298V17.5833C36.541 17.7383 36.6031 17.887 36.7137 17.9966C36.8243 18.1062 36.9743 18.1678 37.1307 18.1678C37.2872 18.1678 37.4372 18.1062 37.5478 17.9966C37.6583 17.887 37.7205 17.7383 37.7205 17.5833V16.1259C37.7184 15.6618 37.5312 15.2173 37.1998 14.8895C36.8683 14.5618 36.4195 14.3772 35.9513 14.3762ZM23.8695 21.2346V21.558C23.8695 21.7131 23.9316 21.8617 24.0422 21.9714C24.1528 22.081 24.3028 22.1426 24.4592 22.1426C24.6156 22.1426 24.7656 22.081 24.8762 21.9714C24.9868 21.8617 25.049 21.7131 25.049 21.558V21.2346C25.049 21.0796 24.9868 20.9309 24.8762 20.8213C24.7656 20.7117 24.6156 20.6501 24.4592 20.6501C24.3028 20.6501 24.1528 20.7117 24.0422 20.8213C23.9316 20.9309 23.8695 21.0796 23.8695 21.2346ZM16.7769 20.6501C16.6205 20.6501 16.4705 20.7117 16.3599 20.8213C16.2493 20.9309 16.1871 21.0796 16.1871 21.2346C16.14 21.6594 16.2658 22.1348 16.7769 22.1426C16.9333 22.1426 17.0833 22.081 17.1939 21.9714C17.3045 21.8617 17.3666 21.7131 17.3666 21.558C17.4138 21.1333 17.2919 20.6579 16.7769 20.6501ZM20.0991 19.4421H21.137C21.159 19.4421 21.1808 19.4464 21.2011 19.4549C21.2214 19.4633 21.2398 19.4758 21.2552 19.4914C21.2706 19.507 21.2827 19.5255 21.2907 19.5458C21.2988 19.5661 21.3027 19.5878 21.3022 19.6096C21.3022 19.7646 21.3643 19.9133 21.4749 20.0229C21.5855 20.1326 21.7355 20.1941 21.8919 20.1941C22.0483 20.1941 22.1983 20.1326 22.3089 20.0229C22.4195 19.9133 22.4816 19.7646 22.4816 19.6096C22.4831 19.2673 22.3517 18.9376 22.1145 18.6887C21.8773 18.4399 21.5527 18.291 21.2078 18.273C21.2078 17.7898 21.3297 17.0143 20.6181 16.9987C19.9064 16.9832 20.0283 17.7781 20.0283 18.273C19.6848 18.291 19.3613 18.4387 19.1243 18.6859C18.8874 18.9331 18.755 19.2609 18.7545 19.6018V20.6345C18.7545 20.9883 18.896 21.3277 19.1481 21.5782C19.4001 21.8288 19.7421 21.9701 20.0991 21.9711H21.137C21.1808 21.9711 21.2228 21.9883 21.2538 22.019C21.2848 22.0497 21.3022 22.0914 21.3022 22.1348V23.183C21.3022 23.2264 21.2848 23.268 21.2538 23.2987C21.2228 23.3294 21.1808 23.3467 21.137 23.3467H20.0991C19.9615 23.3467 19.9182 23.2064 19.934 23.0934C19.934 22.9384 19.8718 22.7897 19.7612 22.6801C19.6506 22.5704 19.5006 22.5089 19.3442 22.5089C19.2593 22.5104 19.1757 22.5296 19.0988 22.5653C19.0219 22.6009 18.9535 22.6522 18.8978 22.7157C18.8422 22.7793 18.8007 22.8538 18.776 22.9343C18.7513 23.0148 18.744 23.0995 18.7545 23.183C18.7551 23.5236 18.8875 23.8509 19.1246 24.0975C19.3616 24.344 19.6851 24.491 20.0283 24.5079C20.0283 24.995 19.9064 25.7666 20.6181 25.7861C21.3297 25.8056 21.2078 25.0067 21.2078 24.5079C21.551 24.491 21.8745 24.344 22.1115 24.0975C22.3486 23.8509 22.481 23.5236 22.4816 23.183V22.1465C22.4816 21.793 22.34 21.454 22.0878 21.2041C21.8356 20.9542 21.4936 20.8137 21.137 20.8137H20.0991C20.0549 20.8127 20.0129 20.7946 19.9821 20.7633C19.9512 20.732 19.9339 20.69 19.934 20.6462V19.6135C19.9329 19.5914 19.9364 19.5693 19.9442 19.5485C19.952 19.5277 19.964 19.5088 19.9795 19.4927C19.9949 19.4767 20.0135 19.4639 20.034 19.4552C20.0546 19.4465 20.0767 19.442 20.0991 19.4421Z" fill="#13141A"/>
<path d="M20.618 14.5204C14.5516 14.4425 11.4142 22.0452 15.7389 26.246C17.0334 27.5276 18.7883 28.2476 20.618 28.2476C22.4477 28.2476 24.2026 27.5276 25.4971 26.246C29.8219 22.0452 26.6845 14.4425 20.618 14.5204ZM24.6597 25.4315C23.5872 26.4929 22.1336 27.0889 20.618 27.0889C19.1025 27.0889 17.6489 26.4929 16.5763 25.4315C12.9868 21.9478 15.5816 15.631 20.618 15.6895C25.6544 15.6271 28.2492 21.94 24.6597 25.4238V25.4315Z" fill="#13141A"/>
</g>
</svg>
