<svg width="43" height="43" viewBox="0 0 43 43" fill="none" xmlns="http://www.w3.org/2000/svg">
<g clip-path="url(#clip0_1_3330)">
<mask id="mask0_1_3330" style="mask-type:alpha" maskUnits="userSpaceOnUse" x="0" y="0" width="43" height="43">
<path d="M42.6599 0.390137H0.659912V42.3901H42.6599V0.390137Z" fill="#D9D9D9"/>
</mask>
<g mask="url(#mask0_1_3330)">
<path d="M39.6452 10.0824C39.6452 9.73128 39.2897 9.45034 38.9342 9.45034C27.4165 9.45034 21.7998 0.741308 21.7998 0.671074C21.7998 0.600839 21.7287 0.600839 21.7287 0.600839L21.6576 0.530605C21.6576 0.530605 21.5865 0.530605 21.5865 0.460371C21.5154 0.460371 21.5154 0.390137 21.4443 0.390137H21.1599C21.0888 0.390137 21.0888 0.390137 21.0177 0.460371H20.9466C20.8755 0.460371 20.8755 0.530605 20.8044 0.530605L20.7333 0.600839C20.52 0.741308 14.9033 9.45034 3.38561 9.45034C3.03012 9.45034 2.67464 9.73128 2.67464 10.0824C2.67464 10.3634 1.46599 36.6309 20.9466 42.3901H21.3732C40.8538 36.7011 39.6452 10.3634 39.6452 10.0824ZM4.09658 10.855C13.908 10.574 19.4536 4.53395 21.1599 2.28646C22.9373 4.53395 28.4118 10.574 38.2232 10.855C38.2943 14.8583 37.7255 35.9988 21.1599 41.0557C4.59426 35.9988 4.02549 14.8583 4.09658 10.855Z" fill="#13141A"/>
<path d="M30.4025 22.0927C30.4025 17.0358 26.2789 12.9622 21.1599 12.9622C16.0409 12.9622 11.9172 17.0358 11.9172 22.0927C11.9172 27.1495 16.0409 31.2231 21.1599 31.2231C26.2789 31.2231 30.4025 27.1495 30.4025 22.0927ZM13.3392 22.0927C13.3392 17.8084 16.8229 14.3669 21.1599 14.3669C25.4968 14.3669 28.9806 17.8084 28.9806 22.0927C28.9806 26.3769 25.4968 29.8184 21.1599 29.8184C16.8229 29.8184 13.3392 26.3769 13.3392 22.0927Z" fill="#13141A"/>
<path d="M25.7813 19.6343C25.4969 19.3534 25.0703 19.3534 24.786 19.6343L19.5959 24.7614L17.2497 22.4437C16.9653 22.1628 16.5387 22.1628 16.2543 22.4437C15.9699 22.7247 15.9699 23.1461 16.2543 23.427L19.0982 26.2364C19.2404 26.3768 19.4537 26.4471 19.5959 26.4471C19.7381 26.4471 19.9513 26.3768 20.0935 26.2364L25.7813 20.6176C26.0657 20.3367 26.0657 19.9153 25.7813 19.6343Z" fill="#13141A"/>
</g>
</g>
<defs>
<clipPath id="clip0_1_3330">
<rect width="42" height="42" fill="white" transform="translate(0.659912 0.390137)"/>
</clipPath>
</defs>
</svg>
