<svg width="43" height="43" viewBox="0 0 43 43" fill="none" xmlns="http://www.w3.org/2000/svg">
<mask id="mask0_1_3326" style="mask-type:alpha" maskUnits="userSpaceOnUse" x="0" y="0" width="43" height="43">
<path d="M42.33 0.390137H0.329956V42.3901H42.33V0.390137Z" fill="#D9D9D9"/>
</mask>
<g mask="url(#mask0_1_3326)">
<path d="M32.1833 18.0219C32.1833 11.794 27.0786 6.73389 20.8162 6.73389C14.5538 6.73389 9.4491 11.794 9.4491 18.0219C9.4491 24.2408 14.5447 29.31 20.8162 29.31C27.0877 29.31 32.1833 24.2408 32.1833 18.0219ZM20.8162 27.8526C15.356 27.8526 10.9076 23.4442 10.9076 18.0129C10.9076 12.5816 15.356 8.18224 20.8162 8.18224C26.2764 8.18224 30.7248 12.5906 30.7248 18.0219C30.7248 23.4532 26.2764 27.8526 20.8162 27.8526Z" fill="#13141A"/>
<path d="M34.7449 29.6989C35.1551 29.4907 35.5197 29.2192 35.8023 28.839C36.5406 27.8342 36.3674 26.5216 36.2034 25.2453C36.094 24.4215 35.9846 23.5616 36.176 22.9822C36.3492 22.4391 36.9326 21.8326 37.4887 21.2533C38.3546 20.348 39.33 19.3251 39.33 18.0307C39.33 16.7362 38.3638 15.6952 37.4978 14.79C36.9417 14.2016 36.3583 13.6042 36.1851 13.061C35.9937 12.4817 36.1031 11.6217 36.2125 10.798C36.3766 9.52167 36.5406 8.2091 35.8114 7.20431C35.073 6.19046 33.7513 5.94606 32.4751 5.70165C31.6547 5.54776 30.807 5.39387 30.3238 5.04084C29.8407 4.69686 29.4396 3.95458 29.0477 3.2304C28.4552 2.14414 27.7715 0.91304 26.5591 0.514744C25.3923 0.134552 24.1982 0.695788 23.0405 1.23892C22.2657 1.60101 21.4726 1.97215 20.8346 1.97215C20.1965 1.97215 19.4034 1.60101 18.6286 1.23892C17.4709 0.695788 16.2768 0.134552 15.11 0.514744C13.8885 0.903988 13.2504 2.08983 12.6215 3.2304C12.2295 3.94552 11.8193 4.69686 11.3453 5.04084C10.853 5.39387 10.0144 5.55681 9.19397 5.70165C7.91779 5.937 6.59604 6.19046 5.85768 7.20431C5.11932 8.2091 5.29251 9.52167 5.45659 10.798C5.56598 11.6217 5.67537 12.4817 5.48394 13.061C5.31074 13.6042 4.72735 14.2107 4.1713 14.79C3.30532 15.6952 2.32996 16.7181 2.32996 18.0126C2.32996 19.307 3.31444 20.3299 4.1713 21.2352C4.72735 21.8235 5.31074 22.421 5.48394 22.9641C5.67537 23.5435 5.56598 24.4034 5.45659 25.2272C5.29251 26.5035 5.12843 27.8161 5.85768 28.8209C6.14026 29.2011 6.50488 29.4817 6.91508 29.6808L2.9407 36.5152C2.79485 36.7687 2.81308 37.0855 2.99539 37.3209C3.17771 37.5562 3.47852 37.6558 3.7611 37.5834L9.63151 36.0174L11.2085 41.847C11.2815 42.1276 11.5276 42.3358 11.8193 42.381C11.8557 42.381 11.8831 42.3901 11.9104 42.3901C12.1657 42.3901 12.4118 42.2543 12.5394 42.028L16.2677 35.61C17.0607 35.5195 17.8629 35.1484 18.6377 34.7863C19.4125 34.4242 20.2056 34.053 20.8437 34.053C21.4818 34.053 22.2748 34.4242 23.0496 34.7863C23.8245 35.1484 24.6266 35.5285 25.4197 35.61L29.1479 42.028C29.2756 42.2543 29.5217 42.3901 29.7769 42.3901C29.8043 42.3901 29.8407 42.3901 29.8681 42.381C30.1598 42.3448 30.3968 42.1366 30.4788 41.847L32.0558 36.0174L37.9262 37.5834C38.2088 37.6558 38.5096 37.5562 38.6919 37.3209C38.8742 37.0855 38.8925 36.7687 38.7466 36.5152L34.7449 29.6989ZM12.1292 39.8012L10.8257 34.9583C10.7254 34.569 10.3243 34.3427 9.93233 34.4423L5.05551 35.7367L8.30064 30.1516C8.58322 30.2149 8.87492 30.2692 9.16662 30.3235C9.98702 30.4774 10.8348 30.6313 11.3179 30.9844C11.8011 31.3283 12.2021 32.0706 12.5941 32.7948C13.1228 33.7634 13.7153 34.8406 14.6998 35.3475L12.1292 39.8012ZM20.8163 32.6137C19.8501 32.6137 18.9021 33.0573 17.9905 33.4828C17.0881 33.9082 16.1583 34.3427 15.5475 34.1436C14.8821 33.9263 14.3808 33.003 13.8885 32.1159C13.4145 31.2559 12.9314 30.3688 12.1839 29.8257C11.4273 29.2825 10.4155 29.0924 9.44009 28.9114C8.44649 28.7213 7.41643 28.5312 7.00624 27.9881C6.61427 27.454 6.74188 26.4221 6.8695 25.4354C6.99712 24.4487 7.12474 23.4348 6.83304 22.5387C6.55046 21.6878 5.85768 20.9545 5.19224 20.2575C4.48123 19.5152 3.74287 18.7458 3.74287 18.0307C3.74287 17.3156 4.48123 16.5461 5.19224 15.8038C5.86679 15.0978 6.55957 14.3736 6.83304 13.5227C7.12474 12.6265 6.99712 11.6127 6.8695 10.626C6.74188 9.63029 6.61427 8.6074 7.00624 8.07332C7.40732 7.52114 8.43738 7.33104 9.44009 7.15C10.4155 6.96895 11.4273 6.77886 12.1839 6.23573C12.9314 5.70165 13.4145 4.80548 13.8885 3.94552C14.3808 3.04936 14.8821 2.13509 15.5475 1.91784C16.1674 1.71869 17.0972 2.15319 17.9905 2.57864C18.9021 3.0041 19.8501 3.44765 20.8163 3.44765C21.7826 3.44765 22.7306 3.0041 23.6421 2.57864C24.5446 2.15319 25.4744 1.71869 26.0851 1.91784C26.7505 2.13509 27.2519 3.05841 27.7441 3.94552C28.2181 4.80548 28.7013 5.69259 29.4487 6.23573C30.2053 6.77886 31.2172 6.96895 32.1925 7.15C33.1861 7.34009 34.2162 7.53019 34.6264 8.07332C35.0183 8.6074 34.8907 9.63935 34.7631 10.626C34.6355 11.6127 34.5079 12.6265 34.7996 13.5227C35.0822 14.3736 35.7749 15.1068 36.4404 15.8038C37.1514 16.5461 37.8897 17.3156 37.8897 18.0307C37.8897 18.7458 37.1514 19.5152 36.4404 20.2575C35.7658 20.9636 35.073 21.6878 34.7996 22.5387C34.5079 23.4348 34.6355 24.4487 34.7631 25.4354C34.8907 26.4311 35.0183 27.454 34.6264 27.9881C34.2253 28.5403 33.1952 28.7304 32.1925 28.9114C31.2172 29.0924 30.2053 29.2825 29.4487 29.8257C28.7013 30.3598 28.2181 31.2559 27.7441 32.1159C27.2519 33.012 26.7505 33.9263 26.0851 34.1436C25.4653 34.3427 24.5355 33.9082 23.6421 33.4828C22.7306 33.0573 21.7826 32.6137 20.8163 32.6137ZM31.7003 34.4423C31.3083 34.3427 30.9072 34.569 30.807 34.9583L29.5034 39.8012L26.9237 35.3656C27.8991 34.8677 28.4734 33.8267 29.0294 32.8129C29.4214 32.0978 29.8316 31.3464 30.3056 31.0025C30.7978 30.6494 31.6365 30.4865 32.4569 30.3416C32.7486 30.2873 33.0403 30.233 33.3229 30.1697L36.568 35.7548L31.7003 34.4423Z" fill="#13141A"/>
<path d="M27.6529 13.5859C27.3703 13.3053 26.9054 13.3053 26.6229 13.5859L19.2393 20.9182L15.0188 16.727C14.7362 16.4464 14.2713 16.4464 13.9887 16.727C13.7061 17.0076 13.7061 17.4693 13.9887 17.7499L18.7288 22.4571C18.8655 22.5928 19.0478 22.6653 19.2484 22.6653C19.4489 22.6653 19.6312 22.5928 19.768 22.4571L27.6529 14.6088C27.9355 14.3282 27.9355 13.8665 27.6529 13.5859Z" fill="#13141A"/>
</g>
</svg>
