<svg width="43" height="43" viewBox="0 0 43 43" fill="none" xmlns="http://www.w3.org/2000/svg">
<g clip-path="url(#clip0_213_2100)">
<mask id="mask0_213_2100" style="mask-type:alpha" maskUnits="userSpaceOnUse" x="0" y="0" width="43" height="43">
<path d="M42.6104 0.911133H0.610352V42.9111H42.6104V0.911133Z" fill="#D9D9D9"/>
</mask>
<g mask="url(#mask0_213_2100)">
<path d="M32.4636 18.5429C32.4636 12.315 27.3589 7.25488 21.0965 7.25488C14.8342 7.25488 9.72949 12.315 9.72949 18.5429C9.72949 24.7618 14.8251 29.831 21.0965 29.831C27.368 29.831 32.4636 24.7618 32.4636 18.5429ZM21.0965 28.3736C15.6363 28.3736 11.188 23.9652 11.188 18.5339C11.188 13.1026 15.6363 8.70323 21.0965 8.70323C26.5568 8.70323 31.0052 13.1116 31.0052 18.5429C31.0052 23.9742 26.5568 28.3736 21.0965 28.3736Z" fill="#46D993"/>
<path d="M35.0253 30.2199C35.4355 30.0117 35.8001 29.7402 36.0827 29.36C36.821 28.3552 36.6478 27.0426 36.4838 25.7663C36.3744 24.9425 36.265 24.0826 36.4564 23.5032C36.6296 22.9601 37.213 22.3536 37.7691 21.7743C38.6349 20.869 39.6104 19.8461 39.6104 18.5517C39.6104 17.2572 38.6442 16.2162 37.7782 15.311C37.2221 14.7226 36.6386 14.1252 36.4655 13.582C36.2741 13.0027 36.3834 12.1427 36.4929 11.319C36.657 10.0427 36.8209 8.73009 36.0918 7.7253C35.3534 6.71145 34.0317 6.46705 32.7555 6.22264C31.9351 6.06875 31.0874 5.91486 30.6042 5.56183C30.121 5.21785 29.7199 4.47557 29.3281 3.75139C28.7355 2.66513 28.0519 1.43404 26.8395 1.03574C25.6727 0.655548 24.4786 1.21678 23.3209 1.75991C22.5461 2.122 21.753 2.49314 21.115 2.49314C20.4769 2.49314 19.6838 2.122 18.909 1.75991C17.7513 1.21678 16.5572 0.655548 15.3904 1.03574C14.1689 1.42498 13.5308 2.61082 12.9019 3.75139C12.5099 4.46651 12.0997 5.21785 11.6257 5.56183C11.1334 5.91486 10.2948 6.0778 9.47436 6.22264C8.19818 6.45799 6.87643 6.71145 6.13807 7.7253C5.39971 8.73009 5.5729 10.0427 5.73698 11.319C5.84637 12.1427 5.95576 13.0027 5.76433 13.582C5.59113 14.1252 5.00774 14.7317 4.45169 15.311C3.58571 16.2162 2.61035 17.2391 2.61035 18.5336C2.61035 19.828 3.59483 20.8509 4.45169 21.7562C5.00774 22.3445 5.59113 22.942 5.76433 23.4851C5.95576 24.0645 5.84637 24.9244 5.73698 25.7482C5.5729 27.0245 5.40882 28.3371 6.13807 29.3419C6.42065 29.7221 6.78527 30.0027 7.19547 30.2018L3.22109 37.0362C3.07524 37.2897 3.09347 37.6065 3.27578 37.8419C3.4581 38.0772 3.75891 38.1768 4.04149 38.1044L9.9119 36.5384L11.4889 42.368C11.5619 42.6486 11.808 42.8568 12.0997 42.902C12.1361 42.902 12.1635 42.9111 12.1908 42.9111C12.4461 42.9111 12.6922 42.7753 12.8198 42.549L16.5481 36.131C17.3411 36.0405 18.1433 35.6694 18.9181 35.3073C19.6929 34.9452 20.486 34.574 21.1241 34.574C21.7622 34.574 22.5552 34.9452 23.33 35.3073C24.1049 35.6694 24.907 36.0495 25.7001 36.131L29.4283 42.549C29.556 42.7753 29.8021 42.9111 30.0573 42.9111C30.0847 42.9111 30.1211 42.9111 30.1485 42.902C30.4402 42.8658 30.6772 42.6576 30.7592 42.368L32.3362 36.5384L38.2066 38.1044C38.4892 38.1768 38.79 38.0772 38.9723 37.8419C39.1546 37.6065 39.1729 37.2897 39.027 37.0362L35.0253 30.2199ZM12.4096 40.3222L11.1061 35.4793C11.0058 35.09 10.6047 34.8637 10.2127 34.9633L5.3359 36.2577L8.58103 30.6726C8.86361 30.7359 9.15531 30.7902 9.44701 30.8445C10.2674 30.9984 11.1152 31.1523 11.5983 31.5054C12.0815 31.8493 12.4825 32.5916 12.8745 33.3158C13.4032 34.2844 13.9957 35.3616 14.9802 35.8685L12.4096 40.3222ZM21.0967 33.1347C20.1305 33.1347 19.1825 33.5783 18.2709 34.0038C17.3685 34.4292 16.4387 34.8637 15.8279 34.6646C15.1625 34.4473 14.6612 33.524 14.1689 32.6369C13.6949 31.7769 13.2118 30.8898 12.4643 30.3467C11.7077 29.8035 10.6959 29.6134 9.72048 29.4324C8.72688 29.2423 7.69682 29.0522 7.28663 28.5091C6.89466 27.975 7.02227 26.9431 7.14989 25.9564C7.27751 24.9697 7.40513 23.9558 7.11343 23.0597C6.83085 22.2088 6.13807 21.4755 5.47263 20.7785C4.76162 20.0362 4.02326 19.2668 4.02326 18.5517C4.02326 17.8366 4.76162 17.0671 5.47263 16.3248C6.14718 15.6188 6.83996 14.8946 7.11343 14.0437C7.40513 13.1475 7.27751 12.1337 7.14989 11.147C7.02227 10.1513 6.89466 9.12839 7.28663 8.59431C7.68771 8.04213 8.71777 7.85203 9.72048 7.67099C10.6959 7.48994 11.7077 7.29985 12.4643 6.75672C13.2118 6.22264 13.6949 5.32647 14.1689 4.46651C14.6612 3.57035 15.1625 2.65608 15.8279 2.43883C16.4478 2.23968 17.3776 2.67418 18.2709 3.09963C19.1825 3.52509 20.1305 3.96864 21.0967 3.96864C22.063 3.96864 23.011 3.52509 23.9225 3.09963C24.825 2.67418 25.7548 2.23968 26.3655 2.43883C27.0309 2.65608 27.5323 3.5794 28.0245 4.46651C28.4986 5.32647 28.9817 6.21358 29.7291 6.75672C30.4857 7.29985 31.4976 7.48994 32.4729 7.67099C33.4665 7.86108 34.4965 8.05118 34.9067 8.59431C35.2986 9.12839 35.1711 10.1603 35.0435 11.147C34.9159 12.1337 34.7883 13.1475 35.08 14.0437C35.3626 14.8946 36.0553 15.6278 36.7208 16.3248C37.4318 17.0671 38.1701 17.8366 38.1701 18.5517C38.1701 19.2668 37.4318 20.0362 36.7208 20.7785C36.0462 21.4846 35.3534 22.2088 35.08 23.0597C34.7883 23.9558 34.9159 24.9697 35.0435 25.9564C35.1711 26.9521 35.2986 27.975 34.9067 28.5091C34.5056 29.0613 33.4756 29.2514 32.4729 29.4324C31.4976 29.6134 30.4857 29.8035 29.7291 30.3467C28.9817 30.8808 28.4986 31.7769 28.0245 32.6369C27.5323 33.533 27.0309 34.4473 26.3655 34.6646C25.7457 34.8637 24.8159 34.4292 23.9225 34.0038C23.011 33.5783 22.063 33.1347 21.0967 33.1347ZM31.9807 34.9633C31.5887 34.8637 31.1876 35.09 31.0874 35.4793L29.7838 40.3222L27.2041 35.8866C28.1795 35.3887 28.7538 34.3477 29.3098 33.3339C29.7018 32.6188 30.1119 31.8674 30.586 31.5235C31.0783 31.1704 31.9169 31.0075 32.7373 30.8626C33.029 30.8083 33.3207 30.754 33.6033 30.6907L36.8484 36.2759L31.9807 34.9633Z" fill="#13141A"/>
<path d="M27.9338 14.1069C27.6512 13.8263 27.1863 13.8263 26.9037 14.1069L19.5201 21.4392L15.2996 17.248C15.017 16.9674 14.5522 16.9674 14.2696 17.248C13.987 17.5286 13.987 17.9903 14.2696 18.2709L19.0097 22.9781C19.1464 23.1138 19.3287 23.1863 19.5292 23.1863C19.7298 23.1863 19.9121 23.1138 20.0488 22.9781L27.9338 15.1298C28.2164 14.8492 28.2164 14.3875 27.9338 14.1069Z" fill="#46D993"/>
</g>
</g>
<defs>
<clipPath id="clip0_213_2100">
<rect width="42" height="42" fill="white" transform="translate(0.610352 0.911133)"/>
</clipPath>
</defs>
</svg>
