<svg width="16" height="16" viewBox="0 0 16 16" fill="none" xmlns="http://www.w3.org/2000/svg">
<path d="M13.3865 2.87891C14.781 4.27344 15.6443 6.09961 15.6443 8.0918C15.6443 12.1426 12.2576 15.4629 8.17362 15.4629C6.94511 15.4629 5.7498 15.1309 4.65409 14.5664L0.769328 15.5625L1.79862 11.7441C1.16777 10.6484 0.802531 9.38672 0.802531 8.05859C0.802531 4.00781 4.12284 0.6875 8.17362 0.6875C10.1658 0.6875 12.0252 1.48438 13.3865 2.87891ZM8.17362 14.2012C11.5603 14.2012 14.3826 11.4453 14.3826 8.0918C14.3826 6.43164 13.6853 4.9043 12.5232 3.74219C11.3611 2.58008 9.83378 1.94922 8.20683 1.94922C4.82011 1.94922 2.06425 4.70508 2.06425 8.05859C2.06425 9.2207 2.39628 10.3496 2.99394 11.3457L3.15995 11.5781L2.52909 13.8359L4.85331 13.2051L5.05253 13.3379C6.01542 13.9023 7.07792 14.2012 8.17362 14.2012ZM11.5603 9.61914C11.7264 9.71875 11.8592 9.75195 11.8924 9.85156C11.9588 9.91797 11.9588 10.2832 11.7928 10.7148C11.6267 11.1465 10.8963 11.5449 10.5642 11.5781C9.96659 11.6777 9.50175 11.6445 8.33964 11.1133C6.48027 10.3164 5.28495 8.45703 5.18534 8.35742C5.08573 8.22461 4.45487 7.36133 4.45487 6.43164C4.45487 5.53516 4.91972 5.10352 5.08573 4.9043C5.25175 4.70508 5.45097 4.67188 5.58378 4.67188C5.68339 4.67188 5.8162 4.67188 5.91581 4.67188C6.04862 4.67188 6.18144 4.63867 6.34745 5.00391C6.48027 5.36914 6.8787 6.26562 6.91191 6.36523C6.94511 6.46484 6.97831 6.56445 6.91191 6.69727C6.57987 7.39453 6.18144 7.36133 6.38066 7.69336C7.11112 8.92188 7.80839 9.35352 8.90409 9.88477C9.07011 9.98438 9.16972 9.95117 9.30253 9.85156C9.40214 9.71875 9.76737 9.28711 9.86698 9.12109C9.9998 8.92188 10.1326 8.95508 10.2986 9.02148C10.4646 9.08789 11.3611 9.51953 11.5603 9.61914Z" fill="white"/>
</svg>
